<svg id="Layer_1" data-name="Layer 1" xmlns="http://www.w3.org/2000/svg" viewBox="0 0 366.8 229"><defs><style>.cls-1,.cls-20{fill:#fff;}.cls-2{fill:#e0e0e0;}.cls-3{fill:#fafbfb;}.cls-4{fill:#ebebeb;}.cls-5{fill:#a8caeb;}.cls-6{fill:#f5f5f5;}.cls-7{fill:#96ceb4;}.cls-8{fill:#14133c;}.cls-9{opacity:0.46;}.cls-10{opacity:0.48;}.cls-11{fill:#263238;}.cls-12{fill:#dcdbdb;}.cls-13{fill:#455b64;}.cls-14{fill:#4155a5;}.cls-15{fill:#0a1929;}.cls-16{fill:#e7515b;}.cls-17{fill:#fbbd9d;}.cls-18{fill:#ec996f;}.cls-19,.cls-20{opacity:0.6;}.cls-21{fill:#b78876;}.cls-22{fill:#aa6551;}.cls-23{opacity:0.4;}.cls-24{opacity:0.3;}.cls-25{fill:#f5f6f6;}</style></defs><path class="cls-1" d="M326.1,223.4a.8.8,0,0,1-.8.8.8.8,0,0,1,0-1.6A.8.8,0,0,1,326.1,223.4Z"/><rect class="cls-2" x="184.2" y="128.1" width="3.2" height="23.91" transform="translate(45.7 325.8) rotate(-90)"/><path class="cls-3" d="M177.1,138.6c.1,0,.1.6.1,1.5a4.2,4.2,0,0,1-.1,1.5,3.2,3.2,0,0,1-.2-1.5C176.9,139.2,177,138.6,177.1,138.6Z"/><path class="cls-3" d="M176.5,138.5a5.7,5.7,0,0,1,0,3,11.3,11.3,0,0,1,0-3Z"/><path class="cls-3" d="M195.9,138.6c.1,0,.1.6.1,1.5a4.2,4.2,0,0,1-.1,1.5,3.2,3.2,0,0,1-.2-1.5C195.7,139.2,195.8,138.6,195.9,138.6Z"/><ellipse class="cls-3" cx="195.4" cy="140" rx="0.2" ry="1.5"/><path class="cls-3" d="M192.2,140.1a48.6,48.6,0,0,1-6.1.2,48.6,48.6,0,0,1-6.1-.2h12.2Z"/><rect class="cls-2" x="182.5" y="144.1" width="6.4" height="23.91" transform="translate(29.7 341.7) rotate(-90)"/><path class="cls-3" d="M197.9,157.4h-.1l-.4.2-1.6.4a4.4,4.4,0,0,1-2.7-.3,4.6,4.6,0,0,1-1.2-1.2,2.7,2.7,0,0,1-.4-1.8,1.8,1.8,0,0,1,.4-1,1.2,1.2,0,0,1,1-.4,1.2,1.2,0,0,1,1,.5,2.2,2.2,0,0,1,.5,1.1,3.2,3.2,0,0,1-.8,2.3,4.1,4.1,0,0,1-2.3,1.1,6.3,6.3,0,0,1-2.7-.3,4.6,4.6,0,0,1-2.3-1.6,3.5,3.5,0,0,1-.6-1.4,1.9,1.9,0,0,1,.5-1.4,1.1,1.1,0,0,1,.8-.3.8.8,0,0,1,.8.2,2.2,2.2,0,0,1,.8,1.3,2.7,2.7,0,0,1-.9,2.8,4.6,4.6,0,0,1-2.7,1.1,6.7,6.7,0,0,1-2.8-.3,3.6,3.6,0,0,1-2.1-1.7,2.8,2.8,0,0,1-.3-2.5,1.6,1.6,0,0,1,1-.8,1.3,1.3,0,0,1,1.2.3,1.9,1.9,0,0,1,.6,2.1,3.5,3.5,0,0,1-1.2,1.7,5.3,5.3,0,0,1-3.3,1.3,5.9,5.9,0,0,1-2.6-.6,4.2,4.2,0,0,1-1.4-1l-.2-.3v-.2a4.4,4.4,0,0,0,1.7,1.4,5.3,5.3,0,0,0,2.6.5,4.8,4.8,0,0,0,3.1-1.2,4.5,4.5,0,0,0,1.2-1.6,2.1,2.1,0,0,0-.5-1.9,1.9,1.9,0,0,0-1-.3,1.1,1.1,0,0,0-.8.7,2.7,2.7,0,0,0,.2,2.3,3.7,3.7,0,0,0,2,1.5,6.1,6.1,0,0,0,2.7.3,4.6,4.6,0,0,0,2.5-1,2.9,2.9,0,0,0,.8-2.6,1.9,1.9,0,0,0-.7-1.1,1,1,0,0,0-1.2.1,1.7,1.7,0,0,0-.4,1.2,1.8,1.8,0,0,0,.5,1.2,4.8,4.8,0,0,0,2.2,1.5,5.4,5.4,0,0,0,2.5.3,3.5,3.5,0,0,0,2.2-1,2.7,2.7,0,0,0,.7-2.1,1.4,1.4,0,0,0-1.2-1.4.9.9,0,0,0-.8.4,1.2,1.2,0,0,0-.4.8,2.5,2.5,0,0,0,.4,1.7,2.9,2.9,0,0,0,1.1,1.1,4.2,4.2,0,0,0,2.6.4l1.6-.4Z"/><rect class="cls-4" x="181.2" y="136.4" width="11.1" height="21.77" transform="translate(39.5 334) rotate(-90)"/><path class="cls-2" d="M179.5,142.1s.1,2.4.1,5.4-.1,5.3-.1,5.3a37.4,37.4,0,0,1-.2-5.3A38.2,38.2,0,0,1,179.5,142.1Z"/><path class="cls-2" d="M181.1,142a36.2,36.2,0,0,1,.2,5.3,37.4,37.4,0,0,1-.2,5.3,50.4,50.4,0,0,1-.1-5.3A49.1,49.1,0,0,1,181.1,142Z"/><path class="cls-2" d="M195.2,141.6s.1,2.5.1,5.6-.1,5.6-.1,5.6a41.2,41.2,0,0,1-.2-5.6A41.2,41.2,0,0,1,195.2,141.6Z"/><path class="cls-2" d="M193.2,141.8a38.2,38.2,0,0,1,.2,5.4,38.2,38.2,0,0,1-.2,5.4,51.7,51.7,0,0,1-.1-5.4A51.7,51.7,0,0,1,193.2,141.8Z"/><rect class="cls-5" x="46.2" y="15.5" width="146.8" height="97.37"/><path class="cls-6" d="M47.9,223a3.5,3.5,0,0,1-.9-4.3,3.7,3.7,0,0,1,2-1.4,5.9,5.9,0,0,0,2.2-1.2c1.2-1,1.6-2.7,2.4-4.1a5.1,5.1,0,0,1,4.4-2.6,5.5,5.5,0,0,1,4.6,3.7,16.1,16.1,0,0,1,.9,6.2,4.5,4.5,0,0,1-.9,3.2,4,4,0,0,1-3,.7l-11.4-.3"/><path class="cls-2" d="M69.7,191.8H39.8l5.4,32.1a3.6,3.6,0,0,0,2.5,2.9H62.9a3.6,3.6,0,0,0,3-3.2l2.6-22.1.2-.9h-.1l1.1-8.8Zm-5.6,20.5H61l.3-9.4h3.5Zm1-9.4h3L67,212.3H64.3Zm-8.7,19.7-.2-8.1h4.4l-.3,8.1Zm-4.8-8.1h4.3l.2,8.1H52.2Zm.3,8.1H48.3c-.3-2.2-.8-5-1.2-8.1h4.2Zm-.5-10.3-.7-9.4h4.9l.2,9.4Zm4.7,0-.2-9.4H61l-.3,9.4Zm-.2-11.6-.2-8.6h5.7l-.3,8.6Zm-.3,0H50.5l-.6-8.6h5.5Zm-5.4,0H44.9c-.2-1.2-.4-2.3-.5-3.3l-.9-5.3h6.1Zm.2,2.2.7,9.4H46.7c-.1-1-.3-1.9-.4-2.9s-.7-4.4-1.1-6.5Zm-4,9.4H43.5L42,202.9h2.9C45.4,205.8,45.9,209,46.4,212.3Zm.4,2.2c.4,2.8.8,5.6,1.2,8.1H45.3l-1.4-8.1Zm13.8,8.1.3-8.1h3l-.7,8.1Zm.8-21.9.3-8.6h4.1l-.8,8.6Zm-18.2-8.6c.1.6.7,4,1.4,8.6h-3l-1.5-8.6Zm22.6,30.5H63.5l.7-8.1h2.5Zm2.5-21.9h-3l.8-8.6h3.3Z"/><rect class="cls-7" x="279.7" y="30.7" width="6.4" height="25.73"/><rect class="cls-8" x="289.2" y="36.3" width="6.4" height="20.12"/><rect class="cls-7" x="298.8" y="40.9" width="6.4" height="15.52"/><rect class="cls-8" x="307.7" y="47.2" width="6.4" height="9.22"/><path class="cls-7" d="M303.8,88.4a22.3,22.3,0,0,0-31.4,1.1,22,22,0,0,0,1.1,31.1,22.3,22.3,0,0,0,31.3-1A22,22,0,0,0,303.8,88.4Zm-7.4,23.3a10.6,10.6,0,0,1-15,.5,10.5,10.5,0,0,1-.5-14.9,10.8,10.8,0,0,1,15-.5A10.6,10.6,0,0,1,296.4,111.7Z"/><path class="cls-7" d="M272.4,89.5a22.3,22.3,0,0,1,31.4-1.1l-7.9,8.4a10.8,10.8,0,0,0-15,.5,10.5,10.5,0,0,0,.5,14.9l-7.9,8.4A22,22,0,0,1,272.4,89.5Z"/><path class="cls-8" d="M302.9,84.8c10.9,10.2,12.2,26.7,2,37.6l-11.1-9.6c4.9-5.2,5.9-12.2.7-17Z"/><polygon class="cls-8" points="257.6 137.9 256.4 227.2 307.8 227.2 307.8 139.1 257.6 137.9"/><polygon class="cls-7" points="285.2 138.6 284.8 227.2 307.8 227.2 307.8 139.1 285.2 138.6"/><g class="cls-9"><polygon class="cls-2" points="259.2 139.5 259.2 157.8 283.5 157.8 283.5 140.4 259.2 139.5"/></g><polygon class="cls-6" points="267.6 144.5 267.6 147.2 275 147.2 275 144.3 267.6 144.5"/><rect class="cls-6" x="267.6" y="149.5" width="7.7" height="1.1"/><g class="cls-10"><polygon class="cls-2" points="259.2 203.5 259.2 221.8 283.5 221.8 283.5 204.4 259.2 203.5"/></g><polygon class="cls-6" points="267.6 208.5 267.6 211.2 275 211.2 275 208.3 267.6 208.5"/><rect class="cls-6" x="267.6" y="213.5" width="7.7" height="1.1"/><g class="cls-10"><polygon class="cls-2" points="259.2 160.1 259.2 178.4 283.5 178.4 283.5 161 259.2 160.1"/></g><polygon class="cls-6" points="267.6 165.1 267.6 167.8 275 167.8 275 164.9 267.6 165.1"/><rect class="cls-6" x="267.6" y="170.1" width="7.7" height="1.1"/><g class="cls-10"><rect class="cls-2" x="258.9" y="182" width="24.3" height="18.26"/></g><polygon class="cls-6" points="267.4 190.2 267.4 192.7 274.4 192.7 274.4 190 267.4 190.2"/><rect class="cls-6" x="267.4" y="194.9" width="7.2" height="1.04"/><path class="cls-11" d="M375.9,226.4c0,.1-84.5.2-188.7.2s-188.6-.1-188.6-.2H375.9Z"/><rect class="cls-12" x="37.4" y="18" width="152" height="99.71"/><path class="cls-11" d="M189.4,117.7c0-1,0-38.9-.1-99.7H37.5v99.5l152,.2H37.3V17.8H189.5C189.5,78.8,189.4,116.7,189.4,117.7Z"/><path class="cls-13" d="M83.9,73l14.9.2A14.9,14.9,0,0,1,83.9,87.7h-.1Z"/><path class="cls-11" d="M108.6,93.3h-4.7L99,87.1l-4-5h.2l4,5.1c1.8,2.4,3.6,4.5,4.9,6.2h4.5Z"/><path class="cls-11" d="M113.9,95h0Z"/><path class="cls-11" d="M113.9,96.8a40.5,40.5,0,0,1-4.8.1,40.5,40.5,0,0,1-4.8-.1h9.6Z"/><path class="cls-8" d="M81.5,70.9l-.2,14.7A14.7,14.7,0,1,1,96.4,70.9Z"/><path class="cls-11" d="M75.7,66.1h-1l-2.7.4h-.1l-3.6-3.4-4.4-4.4a15.8,15.8,0,0,0-1.3-1.3c-.3-.3-.5-.5-.4-.5s.2.1.5.4L64,58.7,68.5,63,72,66.5h-.1l2.7-.3h1.1Z"/><path class="cls-11" d="M58.4,56.3a42.9,42.9,0,0,1-4.9.1,41.7,41.7,0,0,1-4.8-.1h9.7Z"/><path class="cls-11" d="M58.4,58.1a42.9,42.9,0,0,1-4.9.1,41.7,41.7,0,0,1-4.8-.1,41.7,41.7,0,0,1,4.8-.1A42.9,42.9,0,0,1,58.4,58.1Z"/><path class="cls-14" d="M133.8,41.9V32.8a11.9,11.9,0,0,0-7.5,2.9,11.2,11.2,0,0,0-3.6,9.5c.1.4.1.9.2,1.3h0l11-2.4Z"/><path class="cls-8" d="M133.8,41.9V32.8a11.9,11.9,0,0,0-7.5,2.9,11.2,11.2,0,0,0-3.6,9.5c.1.4.1.9.2,1.3h0l11-2.4Z"/><path class="cls-14" d="M145.1,39.1a10.6,10.6,0,0,0-8.8-6.2H135V44.1l11,2.4h0a9.9,9.9,0,0,0,.3-2.4A11.1,11.1,0,0,0,145.1,39.1Z"/><path class="cls-7" d="M145.1,39.1a10.6,10.6,0,0,0-8.8-6.2H135V44.1l11,2.4h0a9.9,9.9,0,0,0,.3-2.4A11.1,11.1,0,0,0,145.1,39.1Z"/><path class="cls-15" d="M134.4,45.2l-11,2.5a11.3,11.3,0,0,0,22-.1l-11-2.4"/><path class="cls-11" d="M177.1,43.6H151.8c0-.1,5.7-.2,12.7-.2S177.1,43.5,177.1,43.6Z"/><path class="cls-11" d="M177.1,40.7H151.8c0-.1,5.7-.2,12.7-.2S177.1,40.6,177.1,40.7Z"/><path class="cls-11" d="M177.1,37.8c0,.1-5.6.1-12.6.1s-12.7,0-12.7-.1,5.7-.2,12.7-.2S177.1,37.7,177.1,37.8Z"/><path class="cls-11" d="M177.1,46.3H151.8c0-.1,5.7-.2,12.7-.2S177.1,46.2,177.1,46.3Z"/><path class="cls-11" d="M169.3,49.2H151.9c0-.1,3.9-.2,8.7-.2S169.3,49.1,169.3,49.2Z"/><rect class="cls-15" x="125.2" y="70.1" width="2.6" height="29.18"/><rect class="cls-16" x="130.2" y="80" width="2.6" height="19.27"/><rect class="cls-15" x="135.3" y="73.7" width="2.6" height="25.7"/><rect class="cls-16" x="140.3" y="71.2" width="2.6" height="28.05"/><rect class="cls-15" x="145.4" y="80.6" width="2.6" height="18.67"/><rect class="cls-16" x="150.4" y="84.3" width="2.6" height="15.01"/><rect class="cls-15" x="155.4" y="73.1" width="2.6" height="26.18"/><rect class="cls-16" x="160.5" y="77.8" width="2.6" height="21.46"/><rect class="cls-15" x="165.5" y="74.1" width="2.6" height="25.23"/><rect class="cls-16" x="170.6" y="82.1" width="2.6" height="17.19"/><rect class="cls-15" x="175.6" y="78.8" width="2.6" height="20.46"/><path class="cls-11" d="M179.3,101.3c0,.1-12.4.1-27.7.1s-27.7,0-27.7-.1h55.4Z"/><path class="cls-11" d="M128.9,103.6a6.7,6.7,0,0,1-1.9.1,7.2,7.2,0,0,1-2-.1h3.9Z"/><path class="cls-11" d="M135.3,103.7h0Z"/><path class="cls-11" d="M140.8,103.7h0Z"/><path class="cls-11" d="M146.3,103.7h0Z"/><path class="cls-11" d="M151.8,103.7h0Z"/><path class="cls-11" d="M157.3,103.7h0Z"/><path class="cls-11" d="M162.8,103.7h0Z"/><path class="cls-11" d="M168.3,103.7h0Z"/><path class="cls-11" d="M173.7,103.7h0Z"/><path class="cls-11" d="M179.2,103.7h0Z"/><rect class="cls-1" x="130.2" y="80" width="2.6" height="19.27"/><rect class="cls-1" x="140.3" y="71.2" width="2.6" height="28.05"/><rect class="cls-1" x="150.4" y="84.3" width="2.6" height="15.01"/><rect class="cls-1" x="160.5" y="77.8" width="2.6" height="21.46"/><rect class="cls-1" x="170.6" y="82.1" width="2.6" height="17.19"/><path class="cls-16" d="M55.9,36.7a2.6,2.6,0,1,1-2.5-2.5A2.5,2.5,0,0,1,55.9,36.7Z"/><path class="cls-16" d="M99.1,34.7c0,.1-8.5.2-18.9.2s-19-.1-19-.2,8.5-.1,19-.1S99.1,34.6,99.1,34.7Z"/><path class="cls-16" d="M76.4,37.8h0Z"/><rect class="cls-3" x="196.9" y="10.7" width="87.4" height="99.71"/><path class="cls-11" d="M284.3,110.4a1.2,1.2,0,0,1-.1-.5V82.8c0-17.5-.1-42.4-.1-72.1H197v99.7h-.2c-.1-28.7-.1-62.9-.1-99.7v-.2h87.7c0,29.8-.1,54.7-.1,72.2v27.5Z"/><rect class="cls-2" x="203.9" y="18.7" width="70.8" height="56.78"/><rect class="cls-11" x="208.8" y="65.4" width="2.3" height="0.67"/><rect class="cls-11" x="214.1" y="68.9" width="3" height="0.67"/><rect class="cls-11" x="224.4" y="68.9" width="3" height="0.67"/><rect class="cls-11" x="234.8" y="68.9" width="3" height="0.67"/><rect class="cls-11" x="245.1" y="68.9" width="3" height="0.67"/><rect class="cls-11" x="255.4" y="68.9" width="3" height="0.67"/><rect class="cls-11" x="265.8" y="68.9" width="3" height="0.67"/><rect class="cls-11" x="208.8" y="56.4" width="2.3" height="0.67"/><rect class="cls-11" x="208.8" y="39.6" width="2.3" height="0.67"/><rect class="cls-11" x="208.8" y="31.1" width="2.3" height="0.67"/><rect class="cls-11" x="208.9" y="48" width="2.3" height="0.67"/><path class="cls-11" d="M268.7,66H212.2V66c0-11.4,0-21.4.1-28.6V26.1c0-.2,0-.2.1-.2V37.4c.1,7.2.1,17.2.1,28.6h56.2Z"/><path class="cls-11" d="M269.3,48.3c0,.1-12.2.2-27.3.2s-27.4-.1-27.4-.2h54.7Z"/><path class="cls-11" d="M269.3,39.9c0,.1-12.2.2-27.3.2s-27.4-.1-27.4-.2,12.2-.1,27.4-.1S269.3,39.8,269.3,39.9Z"/><path class="cls-11" d="M269.3,31.5H214.6c0-.1,12.2-.2,27.4-.2S269.3,31.4,269.3,31.5Z"/><path class="cls-11" d="M269.3,56.7c0,.1-12.2.2-27.3.2s-27.4-.1-27.4-.2h54.7Z"/><path class="cls-8" d="M215.2,64.2V56.7l4.6-7.2,3.2,2.4,6.5-10,3.8,2.7,5.3-9.3,4.3,3.5,6.5-12.3,7,13.8,5.6-6.9,6.7-1.9V64.2Z"/><path class="cls-16" d="M269.3,28.8h-6.8L257,36H243.4l-5.8,9.6L232,55l-.2.2V55l-7.4-10.2h.2c-2.8,4.4-5.1,8-6.8,10.5l-1.9,2.9a5.6,5.6,0,0,1-.5.8v.2a.3.3,0,0,1,.1-.2l.5-.8,1.8-3,6.7-10.5v0L232,54.8h-.3l5.7-9.4,5.7-9.5h13.7l5.5-7.1h7Z"/><path class="cls-16" d="M226.7,47.1a.6.6,0,0,1-.6.5.5.5,0,0,1,0-1A.6.6,0,0,1,226.7,47.1Z"/><path class="cls-16" d="M242.4,38.1a.5.5,0,1,1-1,0,.5.5,0,1,1,1,0Z"/><path class="cls-16" d="M254.7,35.9a.5.5,0,0,1-1,0,.5.5,0,1,1,1,0Z"/><path class="cls-11" d="M271.5,83.9H204.7c0-.1,15-.2,33.4-.2S271.5,83.8,271.5,83.9Z"/><path class="cls-11" d="M271.5,87.5H204.7c0-.1,15-.2,33.4-.2S271.5,87.4,271.5,87.5Z"/><path class="cls-11" d="M271.5,91.1c0,.1-15,.2-33.4.2s-33.4-.1-33.4-.2h66.8Z"/><path class="cls-11" d="M271.5,94.7c0,.1-15,.2-33.4.2s-33.4-.1-33.4-.2,15-.1,33.4-.1S271.5,94.6,271.5,94.7Z"/><path class="cls-11" d="M245.1,93.3c1.8-3.1,2.4-7.2,2.8-10.7.3-1.7.6-4-.5-5.1s-1.4-2.8-2.8-3.7a4.6,4.6,0,0,0-4.8.1"/><path class="cls-17" d="M240.1,104.1h0a4.8,4.8,0,0,1-5.3-4.7c-.2-2.7-.2-5.4-.2-5.4a4.8,4.8,0,0,1-4.4-4.4c-.3-4-.2-13.3-.2-13.3h0a14.2,14.2,0,0,1,14.2.9L244,91.4V99C243.9,101.6,242.6,104,240.1,104.1Z"/><path class="cls-11" d="M234.2,84.7a2.2,2.2,0,0,1,2.8-.6,2.4,2.4,0,0,1,.7,3,2.8,2.8,0,0,1-1.9,1.4,1.5,1.5,0,0,0-1.2,1.7c.1,1,1.7,1.4,2.5,2.2s3.8,1.9,5.5,2.1,1.5.2,2.5-1.2a5.4,5.4,0,0,0,1-3.3c.1-2.9.1-5.9.2-8.9a17.7,17.7,0,0,0-.2-3.2,4.6,4.6,0,0,0-1.7-2.6,18.3,18.3,0,0,0-3.3-1.1,20.5,20.5,0,0,1-3.9-2,4.5,4.5,0,0,0-4.2-.4c-1,.5-1.6,1.4-2.5,1.9s-3.1.6-3.7,2.5a3.7,3.7,0,0,0,0,2.1,4.7,4.7,0,0,0,6.4,2.5,6.7,6.7,0,0,0,.1,2.8c.2.4.2,1.1.9,1.1"/><path class="cls-18" d="M234.9,87.2c.1,0,.2.3.5.2a.9.9,0,0,0,.8-.9,1.1,1.1,0,0,0-.7-1h-.6a.8.8,0,0,1,.7-.1l.6.4a1.1,1.1,0,0,1,.3.8,1,1,0,0,1-1.1,1.1l-.4-.2Z"/><path class="cls-13" d="M239.1,75.1l.4-.3a2.3,2.3,0,0,1,1.2-.5,3.4,3.4,0,0,1,1.9.3,4.6,4.6,0,0,1,1.8,1.6,8.9,8.9,0,0,1,1.2,4,6.2,6.2,0,0,1,.1,1.8s-.1-.7-.3-1.7a10.3,10.3,0,0,0-1.3-4,4.6,4.6,0,0,0-1.6-1.5,4,4,0,0,0-1.8-.3A3.8,3.8,0,0,0,239.1,75.1Z"/><path class="cls-13" d="M227.8,79.2h-.2l-.4-.2a1.1,1.1,0,0,1-.4-.5,1.3,1.3,0,0,1-.2-.9,1.7,1.7,0,0,1,.7-1,2.7,2.7,0,0,1,1.3-.2,1.8,1.8,0,0,0,1.2-.3l1-1.1a5.2,5.2,0,0,1,2.5-1.4,6.1,6.1,0,0,1,2.3-.1l1.5.6.5.4a7.6,7.6,0,0,0-2-.8,6.2,6.2,0,0,0-2.3.1,5.5,5.5,0,0,0-2.3,1.4,10.9,10.9,0,0,1-1,1.1,1.1,1.1,0,0,1-.7.3h-.7a2.2,2.2,0,0,0-1.2.2,1.1,1.1,0,0,0-.6.7,1.3,1.3,0,0,0,.5,1.3C227.6,79.2,227.8,79.2,227.8,79.2Z"/><path class="cls-13" d="M238.5,90.4l.6-.3a3.3,3.3,0,0,0,1.1-1.2,3.8,3.8,0,0,0,.2-2.4,4.2,4.2,0,0,0-.8-1.2l-1.2-.9-1.4-.8a5.7,5.7,0,0,1-1.1-1.1,5,5,0,0,1-1-2.4,4.2,4.2,0,0,1,.2-1.7c0-.2.1-.3.1-.4a.3.3,0,0,0,.1-.2,6.5,6.5,0,0,0-.2,2.3,4.3,4.3,0,0,0,1,2.2,3.6,3.6,0,0,0,1.1,1,5.7,5.7,0,0,0,1.3.8,4.5,4.5,0,0,1,1.3,1,3.1,3.1,0,0,1,.8,1.3,3.7,3.7,0,0,1-.2,2.6,3.6,3.6,0,0,1-1.3,1.2A1,1,0,0,1,238.5,90.4Z"/><path class="cls-13" d="M245.5,84.5h-1.9a8.8,8.8,0,0,1-4.5-1.6,6.8,6.8,0,0,1-3-3.7,3.2,3.2,0,0,1,0-1.4,1.2,1.2,0,0,1,.2-.5,3.2,3.2,0,0,0,0,1.9,7.7,7.7,0,0,0,2.9,3.5,9.9,9.9,0,0,0,4.4,1.6Z"/><path class="cls-11" d="M246.2,81.8a6.7,6.7,0,0,1,5.5-2.5,5.1,5.1,0,0,1,4.7,3.6,14.3,14.3,0,0,1-.3,4.6c-.2,1.6,0,3.4,1.2,4.4a12.2,12.2,0,0,0,2.7.9,2.9,2.9,0,0,1,2.3,1.5,2.4,2.4,0,0,1-1.4,2.7,5,5,0,0,1-3.2,0,2.7,2.7,0,0,1-1.2,3.2,3.6,3.6,0,0,1-3.6-.1,5.5,5.5,0,0,1-2.2-3,2.6,2.6,0,0,1-3.6.7,3.6,3.6,0,0,1-1.5-3.6,7.2,7.2,0,0,1,1.8-3.7,5.5,5.5,0,0,0,1.3-1.7,1.8,1.8,0,0,0,.1-2,1.2,1.2,0,0,0-1.8-.3"/><path class="cls-16" d="M248.6,86a2,2,0,0,1-1.2,0,2.9,2.9,0,0,1-1.8-2.3,3.2,3.2,0,0,1,.2-1.7,2.7,2.7,0,0,1,.8-1c.5-.6,1-.7,1-.6s-.4.2-.9.7a2.8,2.8,0,0,0-.8,2.5,3.1,3.1,0,0,0,1.5,2.2C248.1,86.1,248.6,85.9,248.6,86Z"/><path class="cls-18" d="M234.4,94h-.9a6.8,6.8,0,0,1-2-1.1,5.6,5.6,0,0,1-1.2-1.8,1.9,1.9,0,0,1-.3-.9c.1,0,.2.3.4.8a8.6,8.6,0,0,0,1.3,1.7l1.9,1.1Z"/><path class="cls-13" d="M249.9,97.3h-.2l-.5-.2a3.9,3.9,0,0,1-1.2-1.7,3.8,3.8,0,0,1,0-1.5,14.2,14.2,0,0,1,.5-1.6c.5-1,1.3-2,1.9-3.2a6.4,6.4,0,0,0,.6-1.8,3.2,3.2,0,0,0-.2-1.7,3.1,3.1,0,0,0-2-2,3.7,3.7,0,0,0-2-.2,1.4,1.4,0,0,0-.7.3v-.2l.6-.2a3.5,3.5,0,0,1,2,.1,3.5,3.5,0,0,1,2.5,3.9,6,6,0,0,1-.6,1.9c-.6,1.2-1.4,2.2-1.9,3.2a4.1,4.1,0,0,0-.6,2.9,3.3,3.3,0,0,0,1,1.7Z"/><path class="cls-13" d="M256,100.2h-1a4.7,4.7,0,0,1-2.1-1.6,6.1,6.1,0,0,1-.9-3.9,42,42,0,0,1,.8-4.7,10.7,10.7,0,0,0,.1-2.5,5.4,5.4,0,0,0-.5-2.2,4.8,4.8,0,0,0-1.2-1.6,3.7,3.7,0,0,0-1.6-.7,5.6,5.6,0,0,0-2.6,0l-.9.2h.2l.7-.2a4.6,4.6,0,0,1,2.7-.1,4.7,4.7,0,0,1,1.7.7,4.5,4.5,0,0,1,1.3,1.7,5.9,5.9,0,0,1,.5,2.3,10.5,10.5,0,0,1-.1,2.5,30.8,30.8,0,0,0-.8,4.7,6,6,0,0,0,.8,3.7A4.1,4.1,0,0,0,255,100Z"/><polygon class="cls-17" points="257.2 118.5 248.6 125.2 252.2 131.1 262.5 123.5 257.2 118.5"/><path class="cls-17" d="M234.3,96.1s0-.7-1.9-.8h-2s-.9-1.1-.9-1.7a4.3,4.3,0,0,1,.4-1.8l1.9-.2-.5-1.3h-1.4l-3.7.5-1.5,6.6-10.3,19.1a4.9,4.9,0,0,0,2,7.2h0c2.6,1.3,6.2-1.4,7.2-4.2l5.6-21.3,2-1.6,2.9-.5"/><path class="cls-17" d="M210.9,223.6l13.9-80.4h0a.4.4,0,0,0,.1-.3h0c2.4-9.4,6.1-12.4,6.1-12.4l21.4,1.3c1.8,3.3,2,11.1,2,11.1s-4.5,78.9-4.5,78.9l-7.2-.2-3.8-73.7L218,223.9Z"/><path d="M210.7,224.4v-.8l7.4.2v2.4h-.4c-2.1,0-10.3.1-11.7-.3S210.7,224.4,210.7,224.4Z"/><g class="cls-19"><path d="M215.4,226.1a2.1,2.1,0,0,1,1-1.4,2.6,2.6,0,0,1,1.7-.5v1.9Z"/></g><path class="cls-1" d="M207.6,225s-2.2.5-1.9.9,8.6.5,12.3.3h0l-9.7-.2S208.1,225,207.6,225Z"/><path class="cls-11" d="M218.1,226.1h-6.2l-4.4-.2h0l4.4.2h6.2Z"/><path class="cls-11" d="M208.3,226c-.1,0-.1-.3-.3-.6l-.4-.5a1,1,0,0,1,.5.5A1.2,1.2,0,0,1,208.3,226Z"/><path class="cls-11" d="M210.5,225c-.1.1-.2-.1-.3-.2v-.3l.2.2Z"/><path class="cls-11" d="M211.1,224.8l-.3-.2-.2-.2h.3Z"/><path class="cls-11" d="M211.4,224.1h0Z"/><path class="cls-11" d="M211.6,223.7h0Z"/><path class="cls-11" d="M210.2,224.4h-1.3a.1.1,0,0,1,0-.2.9.9,0,0,1,1.1.3v.2c.1.1.1.2,0,.2a.6.6,0,0,0-.2-.4l-.4-.3H209c-.1,0-.1.1,0,.1h.3l.5.2Z"/><path class="cls-11" d="M210.1,224.5s-.1-.1,0-.3a.8.8,0,0,1,.1-.4l.4-.2c.1,0,.1.2.1.2s0,.2-.1.2l-.2.3-.3.2.3-.3.2-.2c0-.1.1-.3,0-.3l-.3.2-.2.3Z"/><path class="cls-11" d="M218,224.2h-.5l-1.2.4a3.5,3.5,0,0,0-.8,1,1.8,1.8,0,0,0-.1.5v-.2a.4.4,0,0,1,.1-.3,1.8,1.8,0,0,1,.8-1,2.1,2.1,0,0,1,1.2-.4h.5Z"/><path class="cls-15" d="M214.5,225.4h0Z"/><path class="cls-11" d="M215.9,225.5v.2a.1.1,0,0,1-.1.1v-.2Z"/><path class="cls-11" d="M216.5,224.8v.2h-.2v-.2Z"/><path class="cls-11" d="M217.2,224.6h0Z"/><path class="cls-11" d="M217.8,224.5h0Z"/><path class="cls-8" d="M246.6,98.3a14.2,14.2,0,0,1,5.7,2.3c6.8,4.4,18.1,13.6,17.1,17.9s-9.6,8.1-9.6,8.1l-5.7-6.9,3.5-2L249,112Z"/><path class="cls-8" d="M250.5,112.3l-.3,1-1,4.8L249,125c5.1,6.6,5.2,12.2,5.2,12.2l-25.9,3a51.4,51.4,0,0,1,1.8-11.5c1.5-2.6,1.5-10.2,1.2-10.5s-2-2.7-.7-4.8l-8.9,9.2c-2.8,2.6-5.6,1.9-6.8.7-3.6-3.1.1-7.2.1-7.2l13.5-15.5a6.8,6.8,0,0,1,3.5-2.2l2.9-.5H244l2.6.3a6.4,6.4,0,0,1,4,4.9A29.6,29.6,0,0,1,250.5,112.3Z"/><path class="cls-13" d="M250.8,106.1v2.8a54.5,54.5,0,0,1-.9,6.7c-.2.9-.4,1.7-.5,2.5h0c-.1,2-.2,3.7-.3,5a6.1,6.1,0,0,1-.1,1.4v0a6.1,6.1,0,0,0,.1-1.4c0-1.3,0-3,.1-5h0c.2-.7.3-1.6.5-2.5.5-2.6.8-4.9,1-6.6a17.9,17.9,0,0,0,.1-2.1A2.4,2.4,0,0,1,250.8,106.1Z"/><path class="cls-13" d="M250.9,113.1l4.7,3a51.1,51.1,0,0,1,4.6,3.4c-.1,0-2.2-1.3-4.8-3.1Z"/><path class="cls-13" d="M234.1,102.9h.1l.4.3a7.3,7.3,0,0,1,.7,1.7,6,6,0,0,1-.2,2.6,12.2,12.2,0,0,1-1.4,2.8,13.1,13.1,0,0,1-1.1,1.2l-1.1,1.1-1.9,1.7-1.2,1.3-.4.4.3-.5,1.2-1.3,1.8-1.9,1.1-1a5.8,5.8,0,0,0,1-1.2,9.1,9.1,0,0,0,1.5-2.7,5.5,5.5,0,0,0,.2-2.5A4.4,4.4,0,0,0,234.1,102.9Z"/><polygon class="cls-13" points="231.1 125.8 231.4 122.3 249.1 122.3 249 125 231.1 125.8"/><path class="cls-13" d="M216,115.4c.1.1-.4.3-1,1a5.8,5.8,0,0,0-1,3.2,4.9,4.9,0,0,0,1.3,3c.6.7,1.1.9,1.1,1l-.4-.2-.9-.6a5.6,5.6,0,0,1-1.4-3.2,5.2,5.2,0,0,1,1.2-3.3l.8-.7Z"/><polygon points="249.9 221.7 251.9 226.4 242.9 226.3 242.7 221.5 249.9 221.7"/><path class="cls-11" d="M242.9,225.5h0Z"/><path class="cls-11" d="M246.6,221.6a5.1,5.1,0,0,0,0,1.9,4.7,4.7,0,0,0,.2,1.9,18.2,18.2,0,0,0-.2-3.8Z"/><polyline class="cls-20" points="251.9 226.5 242.9 226.2 242.9 225.3 251.4 225.4 251.9 226.4"/><path class="cls-7" d="M253.6,132.7c6.8,21.3-1.9,47.2.1,72,.3,2.4,1.2,5.3-1,6.7a3.1,3.1,0,0,1-2.1.5c-1.8,0-3.3-1-5-1.6a14.1,14.1,0,0,0-9.7-.4c-2.2.7-4.3,1.9-6.6,1.5s-4.8-3.4-7.6-4.6-5.5-.7-8.3-.8h-.1a6.4,6.4,0,0,1-5.8-8c4.1-14.9,17.6-63.3,23.6-72.2L249,125A28.1,28.1,0,0,1,253.6,132.7Z"/><path class="cls-11" d="M247.4,142.7a15.1,15.1,0,0,1-1,1.3,34,34,0,0,1-2.7,2.7,21.3,21.3,0,0,1-3.1,2.1,7.3,7.3,0,0,1-1.4.7c-.1-.1,2.1-1.2,4.3-3.1a22.9,22.9,0,0,0,2.7-2.6Z"/><path d="M239.5,150.8a75.6,75.6,0,0,0-3,45.6c.3,1.3.6,2.7-.1,3.9s-3.3,1.3-4.6.2a8,8,0,0,1-2.2-4.6c-2.5-12.8,2-25.5,6.8-37.5"/><rect class="cls-11" x="104.2" y="158" width="33.9" height="1.65"/><polygon class="cls-11" points="98.9 159.6 92.6 135.8 119 135.8 124.8 159.6 98.9 159.6"/><polygon class="cls-6" points="123.2 157.8 99.6 157.8 94 136.9 117.8 136.9 123.2 157.8"/><path class="cls-4" d="M94.4,138.4h23.8l-.4-1.5H94.1Z"/><path class="cls-3" d="M97,137.6a.3.3,0,0,0,.3.3c.1,0,.2-.1.2-.3l-.2-.2C97.1,137.4,97,137.5,97,137.6Z"/><path class="cls-3" d="M96.1,137.6a.3.3,0,0,0,.3.3c.1,0,.2-.1.2-.3l-.2-.2C96.2,137.4,96.1,137.5,96.1,137.6Z"/><path class="cls-3" d="M95.2,137.6a.3.3,0,0,0,.3.3c.1,0,.2-.1.2-.3l-.2-.2C95.3,137.4,95.2,137.5,95.2,137.6Z"/><path class="cls-15" d="M112.3,147.6l2.6,2.9a3.7,3.7,0,0,0,1.6-3,4.2,4.2,0,0,0-8.4.1Z"/><path class="cls-11" d="M112,148l.7.8,1.9,2.1h0a4.5,4.5,0,0,1-4.4.4,4.9,4.9,0,0,1-1.8-1.4,4.1,4.1,0,0,1-.6-2h.2a3.4,3.4,0,0,0,.7,1.8,3.4,3.4,0,0,0,1.6,1.3,4.4,4.4,0,0,0,4.2-.3v.2a27,27,0,0,0-1.8-2.2Z"/><path class="cls-11" d="M110.3,145.3l.2.2.2-.2a.2.2,0,1,0-.4,0Z"/><path class="cls-11" d="M105.6,143.6l2.8-.2h.5a9.7,9.7,0,0,1,1.6,1.8,9.7,9.7,0,0,1-1.8-1.6h-3.1Z"/><path class="cls-11" d="M100.3,146.6l-.3-1.1a28.6,28.6,0,0,1-.6-3.1h6c-.1,0,.2.3.1.1h.1v.9c.1.3.1.7.2,1s.3,1.4.4,2v.2h-.1l-.2.2a17.7,17.7,0,0,0-.4-2l-.2-1.1v-1H99.6c.2,1.2.4,2.3.5,3Z"/><path class="cls-11" d="M109.9,150a.3.3,0,0,0,.3.3c.1,0,.2-.1.2-.3l-.2-.2C110,149.8,109.9,149.9,109.9,150Z"/><path class="cls-11" d="M105.9,150.1a5.8,5.8,0,0,1,2.1-.2h2.2a6.6,6.6,0,0,1-2.2.2Z"/><path class="cls-11" d="M100.3,151.9l-.3-.8a19.4,19.4,0,0,0-.6-2.2v-.2h6.2c-.2-.1.1.1.1.1h.1v.6l.2.8c.1.5.3,1,.4,1.5h-.3c-.1-.4-.2-.9-.4-1.5l-.2-.7v-.6h-6v-.2l.5,2.2A6.6,6.6,0,0,0,100.3,151.9Z"/><path class="cls-11" d="M100.7,143.7a5.4,5.4,0,0,1,2-.2,5.8,5.8,0,0,1,2.1.2h-2.1A7.2,7.2,0,0,1,100.7,143.7Z"/><path class="cls-11" d="M100.8,144.3h2a7.2,7.2,0,0,1,2,.1,10.1,10.1,0,0,1-4,0Z"/><path class="cls-11" d="M100.9,145a5.4,5.4,0,0,1,2-.2,5.1,5.1,0,0,1,1.9.2h-3.9Z"/><path class="cls-11" d="M100.9,150h1.9a4.1,4.1,0,0,1,1.9.1h-1.9A3.9,3.9,0,0,1,100.9,150Z"/><path class="cls-11" d="M101.1,150.7h3.3a4.1,4.1,0,0,1-1.7.2A3.5,3.5,0,0,1,101.1,150.7Z"/><polygon points="64 159.5 64 162.7 66.1 162.7 66.1 225.9 70.3 225.9 70.3 162.7 92.6 162.7 92.6 225.9 96.8 225.9 96.8 162.7 193.4 162.7 193.4 225.9 197.6 225.9 197.6 162.7 199.4 162.7 199.4 159.5 64 159.5"/><path class="cls-11" d="M155,183.1h0Z"/><ellipse class="cls-13" cx="115.3" cy="183.7" rx="0.1" ry="0.1"/><path class="cls-21" d="M142,127.4l-15.6-15.9-.4-1.7a5.2,5.2,0,0,0-.2-1.1,7.1,7.1,0,0,1,.1-1.4,6.2,6.2,0,0,1,.4-1.6c.3-.5-.1-1.1-.6-.9a4.5,4.5,0,0,0-1.3,3.2c-.2,1.7-1.6-.6-2.2-1.4s-2.4-3.3-2.7-3.3-.7.6-.2,1.4,2.1,3.3,1.7,3.6h0a2,2,0,0,0-2.2,1.1c-.4.7-.8,1.8-.5,2.3a34.4,34.4,0,0,0,2.5,2.6l.6.5s13.5,19.6,16.5,20.3,30.2,2.7,30.2,2.7l2.2-7.8Z"/><path class="cls-21" d="M118.2,111.4l1.5,1.4.5.4h.7a.6.6,0,0,0,0-.6.9.9,0,0,0-.3-.5c-.5-.6-.9-1.2-1.4-1.7"/><path class="cls-22" d="M119.2,110.3l.7.7.7.8a1,1,0,0,1,.4.5c.1.2.2.6,0,.8a.7.7,0,0,1-.8.2l-.6-.4-.7-.8-.7-.7c0-.1.3.2.8.6l.8.7c.2.1.3.3.5.3s.4.1.5-.1,0-.3,0-.5l-.4-.5-.6-.8Z"/><path class="cls-21" d="M119.2,110.3l1.5,1.4c.2.2.3.4.5.4a.6.6,0,0,0,.7-.1.7.7,0,0,0,.1-.5,2.1,2.1,0,0,0-.4-.6l-1.4-1.7"/><path class="cls-22" d="M120.2,109.2l.7.7.8.9.4.5a.8.8,0,0,1-.1.8.6.6,0,0,1-.8.2l-.5-.4-.8-.8c-.4-.4-.7-.7-.7-.8l.8.7.8.7c.2.1.3.3.5.3a.4.4,0,0,0,.5-.1.4.4,0,0,0,0-.5l-.4-.5-.6-.8Z"/><path class="cls-21" d="M120.4,109.5l1.4,1.4.6.4c.2.1.5.1.6-.1a.6.6,0,0,0,.1-.6l-.3-.5a20.9,20.9,0,0,1-1.4-1.7"/><path class="cls-22" d="M121.4,108.4l.7.7.7.8c.1.2.3.3.4.6a.8.8,0,0,1-.1.8,1,1,0,0,1-.7.2,1.5,1.5,0,0,1-.6-.4l-.8-.8-.6-.8.8.6.8.8.4.3h.5a.4.4,0,0,0,0-.5l-.3-.5-.7-.8C121.5,108.8,121.3,108.4,121.4,108.4Z"/><path class="cls-22" d="M122.7,111.9a1.6,1.6,0,0,1,.9.1h-.2a1.7,1.7,0,0,1,0-1,2.2,2.2,0,0,1,.5-1.2c.2-.3.4-.4.4-.3a6.5,6.5,0,0,0-.7,1.6v1.1h-.2Z"/><path class="cls-21" d="M162.6,103.6v21.8l-8.5.4-.3-5.2s-4.1.6-5-2.5-.4-17.2-.4-17.2Z"/><path class="cls-11" d="M146.3,103c.6,1.3,3.6,3.7,3.6,3.7l1.4,3.7c1.2-1,2.8-.9,3.1,1.2s-1.7,1.8-1.7,1.8a26,26,0,0,0,3.4,5,5.3,5.3,0,0,0,4.5,2.2h2.1s4.1-3.5,3.3-12.7-9.1-6.5-11.1-8.8S144.2,98.7,146.3,103Z"/><path class="cls-13" d="M165.5,115.6h-1a5.9,5.9,0,0,1-2.4-1.2,15,15,0,0,1-2.5-3.3,11.1,11.1,0,0,0-3.1-3.8,12.3,12.3,0,0,0-4.7-1.5,8.2,8.2,0,0,1-3.8-1.5,3.9,3.9,0,0,1-1.5-2.2,1.9,1.9,0,0,1-.1-1,8.2,8.2,0,0,0,.1,1,4.5,4.5,0,0,0,1.5,2.2,10,10,0,0,0,3.8,1.4,12.7,12.7,0,0,1,4.8,1.5,11.4,11.4,0,0,1,3.1,3.9,17.7,17.7,0,0,0,2.4,3.2,5.2,5.2,0,0,0,2.4,1.3h1Z"/><path class="cls-13" d="M166,108.1h-.4a3.5,3.5,0,0,0-1.3-.3,3,3,0,0,0-2,.4,1.8,1.8,0,0,0-.7,1.1,2.2,2.2,0,0,0,.4,1.3l.7.2a1.1,1.1,0,0,0,.8-.2,2.2,2.2,0,0,0,1-1.3,3.2,3.2,0,0,0-.9-3.4,3.1,3.1,0,0,0-1.8-.9,7.6,7.6,0,0,0-2.1.3l-2.2.5h-2.4a6,6,0,0,1-2.2-.6,2.4,2.4,0,0,1-1.5-1.6,2.1,2.1,0,0,1,.5-2,1.7,1.7,0,0,1,2-.3,1,1,0,0,1,.7.7,1.5,1.5,0,0,1,.2.9,2.3,2.3,0,0,1-1,1.6,4.8,4.8,0,0,1-1.7.5,4.5,4.5,0,0,1-1.6-.3,6.4,6.4,0,0,1-2.3-1.4,5.3,5.3,0,0,1-1.2-1.7,3,3,0,0,1-.4-1.3,1.6,1.6,0,0,1-.1-.4,1.6,1.6,0,0,0,.1.4l.4,1.2a6.6,6.6,0,0,0,1.2,1.7,5.9,5.9,0,0,0,2.3,1.4,4.5,4.5,0,0,0,1.6.3,3,3,0,0,0,1.6-.5,2.3,2.3,0,0,0,1-1.5,1.3,1.3,0,0,0-.8-1.5,1.7,1.7,0,0,0-1.9.2,2.1,2.1,0,0,0-.5,2A2.5,2.5,0,0,0,153,105a7.1,7.1,0,0,0,2.2.6,8.8,8.8,0,0,0,2.3,0l2.1-.5a5.6,5.6,0,0,1,2.2-.3,3.4,3.4,0,0,1,2.8,4.4,2.6,2.6,0,0,1-1.1,1.4l-.8.2a1.1,1.1,0,0,1-.7-.3,1.4,1.4,0,0,1-.4-1.4,1.8,1.8,0,0,1,.7-1,3.1,3.1,0,0,1,2-.5l1.3.3Z"/><path d="M155.2,220.6l-2.8-3.6,6.7-5.3,4.1,5.2-.4.4c-1.7,1.5-9,7.7-10.5,8.3S155.2,220.6,155.2,220.6Z"/><g class="cls-23"><path d="M153,223.5s-1.5,2.1-1,2.2,8.1-5.8,11.2-8.8h-.1l-8.8,7.1S153.4,223.2,153,223.5Z"/></g><path d="M163.2,216.7a.1.1,0,0,0-.1.1l-.3.3-1.2,1-3.9,3.2-4.1,3.1-1.2.9-.4.2h0l.3-.2,1.3-1,4-3.1,3.9-3.2,1.2-.9.4-.3A.1.1,0,0,1,163.2,216.7Z"/><path d="M154.4,224c-.1,0-.3-.3-.7-.4l-.8-.2a1.3,1.3,0,0,1,.8.1A1,1,0,0,1,154.4,224Z"/><path d="M155.5,221.4h-.4c-.2,0-.4-.1-.3-.2h.4Z"/><path d="M155.9,220.7h0Z"/><path d="M155.7,219.8l-.3.3-.4.3.3-.4Z"/><path d="M155.5,219.3l-.3.4-.5.3.4-.4Z"/><path d="M154.9,221l-.5.3-.5.3h-.6c0-.1-.1-.2,0-.3a.9.9,0,0,1,1.1-.5l.4.2h.1a.8.8,0,0,0-.5-.2h-.6c-.1.1-.4.3-.4.5s0,.1.1.1h.4l.5-.2Z"/><path d="M154.8,221.1a.4.4,0,0,1-.3-.2c-.1-.1-.1-.3-.2-.4s0-.4.2-.5a.2.2,0,0,1,.3.1c.1,0,.1.1.1.2v.4a.6.6,0,0,1-.1.4v-.8c0-.1-.1-.3-.2-.2s-.2.2-.2.4.1.2.1.3Z"/><path d="M161.6,215l-.5.4a3.2,3.2,0,0,0-.7,1.3,3.5,3.5,0,0,0,.1,1.5l.2.5h-.1l-.2-.4a3.5,3.5,0,0,1-.1-1.5,2.7,2.7,0,0,1,.8-1.4l.3-.2Z"/><path d="M158.7,212.8a4.9,4.9,0,0,1,1.2,1.3,10.2,10.2,0,0,1,1,1.4l-1.1-1.3Z"/><path d="M159.4,218.8l-.9.9-1,.6.9-.7Z"/><path d="M160.7,217.8v.2c0,.1.1.3,0,.3a.4.4,0,0,1-.1-.3A.1.1,0,0,1,160.7,217.8Z"/><path d="M160.7,216.8v.4c-.1,0-.1-.1-.1-.2Z"/><path d="M161.2,215.9l-.2.2v.3a.5.5,0,0,1,.1-.3A.2.2,0,0,1,161.2,215.9Z"/><path d="M161.6,215.4h0Z"/><polygon points="161.4 214.8 154.7 220 154.1 219.1 161.2 214.4 161.4 214.8"/><path d="M124.6,224.2v-4.6h8.5v6.6h-.6c-2.3.2-11.9.6-13.4.1S124.6,224.2,124.6,224.2Z"/><g class="cls-23"><path d="M121.1,225.1s-2.5.7-2.2,1.1,10,.4,14.3,0V226l-11.3.2S121.6,225.1,121.1,225.1Z"/></g><path d="M133.3,226h-7.2c-2,.1-3.8,0-5.1,0h12.3Z"/><path d="M121.9,226.3c-.1,0-.1-.4-.3-.7s-.6-.6-.5-.6a1.4,1.4,0,0,1,.6.5A2,2,0,0,1,121.9,226.3Z"/><path d="M124.4,225q-.2,0-.3-.3l-.2-.4.3.3Z"/><path d="M125.1,224.7l-.3-.2-.3-.3.3.2Z"/><path d="M125.5,223.9h0Z"/><path d="M125.6,223.3h0Z"/><path d="M124.1,224.3H123l-.4-.2h-.1a.4.4,0,0,1,.1-.3,1.2,1.2,0,0,1,1.2.3c.1.2.2.3.2.4h0s0-.2-.3-.4-.2-.3-.4-.3h-.7c-.1.1,0,.2.1.2l.3.2h1.1Z"/><path d="M123.9,224.3s-.1-.1,0-.4a.8.8,0,0,1,.1-.4c.1-.1.2-.3.5-.2s.2.1.1.2,0,.2-.1.2a.5.5,0,0,1-.2.4l-.3.2.2-.3.3-.3c0-.1.1-.3,0-.3s-.3.1-.4.2l-.2.3C123.9,224.2,124,224.3,123.9,224.3Z"/><path d="M133.1,223.7h-.6a3.3,3.3,0,0,0-1.4.6,2.8,2.8,0,0,0-.8,1.2,1.5,1.5,0,0,0-.2.6v-.2a.8.8,0,0,1,.1-.4,2.6,2.6,0,0,1,.9-1.3,2,2,0,0,1,1.4-.5h.6Z"/><path d="M132.2,220.2a15.4,15.4,0,0,1,.1,1.7v1.8a5.8,5.8,0,0,1-.1-1.8Z"/><path d="M129,225.3c0,.1-.5.2-1.2.2H129Z"/><path d="M130.7,225.3a.4.4,0,0,0-.1.3.3.3,0,0,0-.1.2q-.1,0,0-.3Z"/><path d="M131.3,224.5c0,.1,0,.2-.1.2l-.2.2v-.2Z"/><path d="M132.2,224.2h-.5l.2-.2Z"/><path d="M132.8,224h0Z"/><polygon points="133.2 223.4 124.6 223.4 124.6 222.3 133.1 222.3 133.2 223.4"/><path class="cls-21" d="M145.5,146.1l-3.3,10.2c-1,2.8-3.4,3.2-6.3,3.2H117v-4.2l17.3-2.5,4.1-10.5Z"/><path class="cls-21" d="M115,154.4l-1.5-.7s-1.6-3.1-2-3-.5,1.1.2,2.5l-2-.6s-4.3,2-4.2,2.3a1.1,1.1,0,0,0,1.5.4l2.2-1,2.3.6-3,.4-2.8,2.6a1.3,1.3,0,0,0,1.7-.1l7.4,1.6H117v-4.2Z"/><path class="cls-22" d="M107.4,157.8l.5-.5.5-.4.8-.2,2.2-.3h-2.2l-.9.2-.6.5Z"/><path class="cls-22" d="M108.6,158.1l.2-.2H111c0-.1-.6-.2-1.3-.1l-.9.2-.2.2C108.5,158.1,108.6,158.1,108.6,158.1Z"/><path class="cls-8" d="M147.1,143.9l-1.4,4.9-9.2-4.2c.3-1,1.8-5.6,4.8-12.9a12.5,12.5,0,0,1,9.5-7.7,58.4,58.4,0,0,1,8.8-.9c5.2.1,12.8,3.3,13.8,8.4s0,10.7,0,19l-.6,15.8-26.5.9Z"/><g class="cls-24"><path class="cls-15" d="M173.4,146.8c-3.2.7-6.5,0-9.8-.2s-4.2-.3-5.8.9a7.7,7.7,0,0,0-2.1,4.1c-1.4,5.9-1.6,9.8-1.9,15.9l15.9.9Z"/></g><path class="cls-11" d="M146.5,126.7l.7.2a3.7,3.7,0,0,1,1.5,1.2,5.8,5.8,0,0,1,.9,2.8,15.4,15.4,0,0,1-.3,3.6,49.1,49.1,0,0,1-1.5,6.5c-.2.8-.4,1.4-.5,1.9l-.2.8c.1,0,.1-.3.3-.7s.4-1.2.6-2a61.8,61.8,0,0,0,1.6-6.5,23.6,23.6,0,0,0,.2-3.7,5,5,0,0,0-1-2.8,2.8,2.8,0,0,0-1.6-1.2h-.7Z"/><path class="cls-11" d="M136.8,143.3c0,.1.4.4,1.3.8l3.2,1.6,3.3,1.4c.9.3,1.4.5,1.5.4l-1.4-.6-3.3-1.4-3.3-1.6Z"/><path class="cls-7" d="M132.5,168.4a9.5,9.5,0,0,0-3.8,12.7l23,39.5,10.7-6.4-17.9-35.7,12.9-8.5"/><path class="cls-7" d="M160.6,166.5,129,167.6a9.4,9.4,0,0,0-9.1,9.6l1.3,45.1h13.3l-.5-42.7,26.6-.7Z"/><path class="cls-7" d="M134,181.1c.1,0,.1.2.1.4v1.2c.1,1.1.1,2.6.2,4.5,0,3.7.1,8.8.1,14.5s.1,10.8.1,14.6v5.6a4.1,4.1,0,0,1-.1-1.2c0-1.1-.1-2.6-.1-4.4-.1-3.8-.2-8.9-.2-14.6s0-10.8-.1-14.5v-6.1Z"/><path class="cls-13" d="M174.3,137.8h-9.6a6.9,6.9,0,0,0-6.9,7v33.4H138.6a4.8,4.8,0,0,0-4.8,4.8h43.7a4,4,0,0,0,3.8-4V144.8A7,7,0,0,0,174.3,137.8Z"/><path class="cls-11" d="M160.5,138.9c.1,0,.2,9.8.2,21.9s-.1,21.9-.2,21.9-.1-9.8-.1-21.9S160.5,138.9,160.5,138.9Z"/><path class="cls-13" d="M159.3,218V183h-3.1v35c-1.9,3.8-6.3,6.3-11.8,8.4h27.7C166.5,224.1,161.4,222.3,159.3,218Z"/><circle class="cls-25" cx="37.6" cy="17.8" r="3.4"/><circle class="cls-25" cx="135.2" cy="72.6" r="3.9"/><circle class="cls-25" cx="3.7" cy="191.1" r="3.4"/><circle class="cls-25" cx="339.7" cy="215.9" r="3.4"/><circle class="cls-25" cx="360.2" cy="187.7" r="3.4"/></svg>