<svg id="Layer_1" data-name="Layer 1" xmlns="http://www.w3.org/2000/svg" viewBox="0 0 421 249"><defs><style>.cls-1{fill:#96ceb4;}.cls-2{fill:#0a1929;}.cls-3{fill:#fede00;}.cls-4{fill:#14133c;}.cls-5{fill:#3e57a7;stroke:#717171;}.cls-6{fill:#d7d0c4;}.cls-7{fill:#9794c9;}.cls-8{fill:#ffd563;}.cls-9{fill:#e9e8e8;}.cls-10{fill:#0b0b0b;}.cls-11{fill:#fff;}.cls-12{fill:#f4f3ee;}.cls-13{fill:#2f2e7d;}.cls-14,.cls-23{fill:none;}.cls-15{fill:#d96548;}.cls-16{fill:#bc442a;}.cls-17{fill:#101527;}.cls-18{fill:#f6927a;}.cls-19{fill:#f26a4c;}.cls-20{fill:#d4a838;}.cls-21{fill:#515251;}.cls-22{fill:#121936;}.cls-23{stroke:#c5c3e2;stroke-linecap:round;stroke-linejoin:round;stroke-width:0.75px;}</style></defs><rect id="Rectangle_89" data-name="Rectangle 89" class="cls-1" x="208.38" y="152.94" width="23.88" height="54.57"/><rect id="Rectangle_90" data-name="Rectangle 90" class="cls-2" x="239.61" y="121.56" width="23.88" height="85.95"/><rect id="Rectangle_91" data-name="Rectangle 91" class="cls-3" x="271.8" y="139.98" width="23.88" height="67.54"/><rect id="Rectangle_92" data-name="Rectangle 92" class="cls-4" x="304" y="97" width="23.88" height="110.51"/><rect id="Rectangle_93" data-name="Rectangle 93" class="cls-1" x="336.19" y="127.02" width="23.87" height="80.5"/><rect id="Rectangle_94" data-name="Rectangle 94" class="cls-4" x="376.69" y="79.37" width="23.87" height="134.39"/><path id="Path_695" data-name="Path 695" class="cls-5" d="M202.7,136.05l-1.08-1.7L250.17,93.7l.51.35,32,21.38,29.6-40.84L352,93l35.18-56.63,1.49,1.22-36,58L312.8,77.12l-29.74,41L250.27,96.21Z"/><path id="Path_696" data-name="Path 696" class="cls-3" d="M244.65,95.64a6.82,6.82,0,1,1,6.82,6.82A6.82,6.82,0,0,1,244.65,95.64Z"/><path id="Path_697" data-name="Path 697" class="cls-3" d="M275.33,116.1a6.82,6.82,0,1,1,6.82,6.83,6.82,6.82,0,0,1-6.82-6.83Z"/><path id="Path_698" data-name="Path 698" class="cls-1" d="M305.42,75.85a6.82,6.82,0,1,1,6.83,6.83,6.82,6.82,0,0,1-6.83-6.83Z"/><path id="Path_699" data-name="Path 699" class="cls-1" d="M345,93.59a6.82,6.82,0,1,1,6.82,6.82h0A6.82,6.82,0,0,1,345,93.59Z"/><rect id="Rectangle_96" data-name="Rectangle 96" class="cls-2" x="189.04" y="207.97" width="226.15" height="8.07"/><path class="cls-2" d="M66.36,243.34H58.3a4.41,4.41,0,0,1-4.4-4.4V228.49a42.53,42.53,0,0,1-15.47-6.41L31,229.47a4.41,4.41,0,0,1-6.22,0l-5.7-5.7a4.39,4.39,0,0,1,0-6.22l7.39-7.39a42.34,42.34,0,0,1-6.41-15.48H9.64a4.4,4.4,0,0,1-4.39-4.4v-8.06a4.4,4.4,0,0,1,4.39-4.39H20.1a42.34,42.34,0,0,1,6.41-15.48L19.12,155a4.39,4.39,0,0,1,0-6.22l5.7-5.7A4.4,4.4,0,0,1,31,143l7.39,7.39A42.53,42.53,0,0,1,53.9,144V133.57a4.41,4.41,0,0,1,4.4-4.4h8.06a4.4,4.4,0,0,1,4.4,4.4V144a42.58,42.58,0,0,1,15.48,6.41L93.63,143a4.39,4.39,0,0,1,6.22,0l5.7,5.7a4.39,4.39,0,0,1,0,6.22l-7.39,7.39a42.51,42.51,0,0,1,6.41,15.48H115a4.4,4.4,0,0,1,4.4,4.39v8.06a4.4,4.4,0,0,1-4.4,4.4H104.57a42.68,42.68,0,0,1-6.41,15.48l7.39,7.39a4.41,4.41,0,0,1,0,6.22l-5.7,5.7a4.39,4.39,0,0,1-6.22,0l-7.39-7.39a42.58,42.58,0,0,1-15.48,6.41v10.45A4.4,4.4,0,0,1,66.36,243.34Zm-28-22.73a.69.69,0,0,1,.36.11,41.27,41.27,0,0,0,15.95,6.61.63.63,0,0,1,.53.63v11a3.12,3.12,0,0,0,3.11,3.12h8.06a3.12,3.12,0,0,0,3.12-3.12V228a.63.63,0,0,1,.52-.63,41.21,41.21,0,0,0,16-6.61.65.65,0,0,1,.82.08l7.77,7.76a3.11,3.11,0,0,0,4.4,0l5.7-5.7a3.12,3.12,0,0,0,0-4.4l-7.77-7.77a.64.64,0,0,1-.07-.81,41.47,41.47,0,0,0,6.61-16,.63.63,0,0,1,.63-.52h11a3.12,3.12,0,0,0,3.11-3.12v-8.06a3.11,3.11,0,0,0-3.11-3.11H104a.63.63,0,0,1-.63-.52,41.47,41.47,0,0,0-6.61-16,.65.65,0,0,1,.07-.82l7.77-7.76a3.11,3.11,0,0,0,0-4.4l-5.7-5.7a3.11,3.11,0,0,0-4.4,0l-7.77,7.76a.65.65,0,0,1-.82.08,41.21,41.21,0,0,0-16-6.61.64.64,0,0,1-.52-.63v-11a3.12,3.12,0,0,0-3.12-3.12H58.3a3.12,3.12,0,0,0-3.11,3.12v11a.64.64,0,0,1-.53.63,41.27,41.27,0,0,0-15.95,6.61.65.65,0,0,1-.82-.08L30.13,144a3.11,3.11,0,0,0-4.41,0L20,149.65a3.09,3.09,0,0,0,0,4.4l7.76,7.76a.65.65,0,0,1,.08.82,41.31,41.31,0,0,0-6.61,16,.64.64,0,0,1-.63.52h-11a3.12,3.12,0,0,0-3.11,3.11v8.06a3.12,3.12,0,0,0,3.11,3.12h11a.64.64,0,0,1,.63.52,41.31,41.31,0,0,0,6.61,16,.64.64,0,0,1-.08.81L20,218.46a3.1,3.1,0,0,0,0,4.4l5.69,5.7a3.11,3.11,0,0,0,4.41,0l7.76-7.76A.63.63,0,0,1,38.35,220.61Zm24-11.91a22.45,22.45,0,1,1,22.44-22.45A22.47,22.47,0,0,1,62.33,208.7Zm0-43.6a21.16,21.16,0,1,0,21.16,21.15A21.18,21.18,0,0,0,62.33,165.1Z"/><path class="cls-6" d="M81.31,127.56a2.84,2.84,0,0,1-2.76-2.21l-1.28-5.72A24.72,24.72,0,0,1,68,118L64.86,123a2.83,2.83,0,0,1-3.9.87l-4-2.51a2.84,2.84,0,0,1-.87-3.9l3.14-5a25,25,0,0,1-5.41-7.7l-5.72,1.28a2.82,2.82,0,0,1-3.37-2.14l-1-4.58A2.82,2.82,0,0,1,45.89,96l5.72-1.28a25,25,0,0,1,1.61-9.27l-4.94-3.14a2.81,2.81,0,0,1-.87-3.9l2.51-4a2.76,2.76,0,0,1,1.77-1.24,2.8,2.8,0,0,1,2.13.37l4.94,3.14a25,25,0,0,1,7.71-5.41l-1.28-5.72a2.82,2.82,0,0,1,2.14-3.37l4.57-1a2.84,2.84,0,0,1,3.38,2.15L76.56,69a25,25,0,0,1,9.27,1.62L89,65.69a2.81,2.81,0,0,1,1.77-1.25,2.85,2.85,0,0,1,2.13.37l3.95,2.52a2.81,2.81,0,0,1,1.25,1.77,2.85,2.85,0,0,1-.37,2.13l-3.14,4.94a25.14,25.14,0,0,1,5.41,7.7l5.72-1.27h0a2.82,2.82,0,0,1,3.37,2.14l1,4.57a2.83,2.83,0,0,1-2.14,3.38L102.22,94a25.1,25.1,0,0,1-1.61,9.28l4.94,3.14a2.82,2.82,0,0,1,.87,3.9l-2.51,4a2.82,2.82,0,0,1-3.9.87l-5-3.13a25,25,0,0,1-7.7,5.41l1.28,5.71a2.83,2.83,0,0,1-2.14,3.38l-4.58,1A2.54,2.54,0,0,1,81.31,127.56Zm-3.53-9.23a.64.64,0,0,1,.63.51l1.39,6.23a1.55,1.55,0,0,0,1.84,1.17l4.58-1a1.54,1.54,0,0,0,1.17-1.84L86,117.14a.65.65,0,0,1,.38-.73,23.61,23.61,0,0,0,8.12-5.71.65.65,0,0,1,.82-.1L100.7,114a1.55,1.55,0,0,0,2.13-.48l2.51-4a1.55,1.55,0,0,0-.48-2.13L99.47,104a.64.64,0,0,1-.25-.78,23.93,23.93,0,0,0,1.71-9.79.65.65,0,0,1,.5-.65l6.23-1.39a1.54,1.54,0,0,0,1.17-1.84l-1-4.57A1.54,1.54,0,0,0,106,83.85l-6.24,1.39a.64.64,0,0,1-.73-.37,23.86,23.86,0,0,0-5.7-8.13.63.63,0,0,1-.11-.81l3.42-5.39a1.56,1.56,0,0,0-.47-2.13l-4-2.51A1.53,1.53,0,0,0,91,65.7a1.56,1.56,0,0,0-1,.67l-3.42,5.4a.65.65,0,0,1-.78.25,23.75,23.75,0,0,0-9.78-1.71.64.64,0,0,1-.65-.5L74,63.58a1.53,1.53,0,0,0-1.84-1.17l-4.57,1a1.54,1.54,0,0,0-1.17,1.84l1.39,6.23a.64.64,0,0,1-.37.73,23.89,23.89,0,0,0-8.12,5.71.66.66,0,0,1-.82.11l-5.39-3.43A1.55,1.55,0,0,0,51,75.1l-2.51,4A1.53,1.53,0,0,0,49,81.18l5.39,3.43a.64.64,0,0,1,.25.78,23.69,23.69,0,0,0-1.71,9.78.65.65,0,0,1-.5.65l-6.23,1.39A1.54,1.54,0,0,0,45,99.05l1,4.58a1.54,1.54,0,0,0,1.84,1.16l6.23-1.39a.65.65,0,0,1,.74.38,23.82,23.82,0,0,0,5.7,8.12.65.65,0,0,1,.11.82l-3.42,5.39a1.53,1.53,0,0,0,.47,2.12l4,2.52a1.55,1.55,0,0,0,2.13-.48l3.42-5.39a.63.63,0,0,1,.78-.25,23.68,23.68,0,0,0,9.78,1.7Zm-.87-10.69a13.31,13.31,0,1,1,2.91-.32h0A13.23,13.23,0,0,1,76.91,107.64Zm0-25.35a11.84,11.84,0,0,0-2.63.29,12,12,0,1,0,5.25,23.49h0a12,12,0,0,0-2.62-23.78Z"/><circle class="cls-7" cx="346.15" cy="90.49" r="1.74"/><path class="cls-7" d="M348.76,49.74a.87.87,0,1,1-.87-.87A.87.87,0,0,1,348.76,49.74Z"/><path class="cls-7" d="M336.6,236.53a.87.87,0,1,1-.87-.87A.87.87,0,0,1,336.6,236.53Z"/><path class="cls-7" d="M198.37,118a.87.87,0,1,1-.87-.87A.87.87,0,0,1,198.37,118Z"/><path class="cls-8" d="M381.13,121.87a1.74,1.74,0,1,1-1.74-1.74A1.74,1.74,0,0,1,381.13,121.87Z"/><circle class="cls-8" cx="219.49" cy="91.45" r="1.74"/><circle class="cls-7" cx="42.04" cy="84.19" r="1.74"/><path class="cls-7" d="M312.2,109.62a1.08,1.08,0,1,0,1.27-.84A1.07,1.07,0,0,0,312.2,109.62Z"/><path class="cls-8" d="M10.76,103.73a1.74,1.74,0,1,0,2.05-1.37A1.74,1.74,0,0,0,10.76,103.73Z"/><path class="cls-9" d="M42.46,47.31a1.35,1.35,0,1,0,1.59-1.06A1.35,1.35,0,0,0,42.46,47.31Z"/><path class="cls-10" d="M14.16,68.89a1,1,0,0,0,1.89.38,1,1,0,1,0-1.89-.38Z"/><path class="cls-10" d="M218.55,123a1,1,0,1,0,1.89.38,1,1,0,0,0-1.89-.38Z"/><path class="cls-10" d="M326.61,205.67a1,1,0,1,0,1.13-.75A1,1,0,0,0,326.61,205.67Z"/><path class="cls-4" d="M203.19,88.91A13.17,13.17,0,0,0,181,85.6l-4.72-.72,2.51,4.53a13.15,13.15,0,1,0,24.43-.5Z"/><path class="cls-11" d="M197.43,99.17H184.91a.32.32,0,0,1,0-.64h12.52a.32.32,0,0,1,0,.64Z"/><path class="cls-11" d="M197.43,95H184.91a.32.32,0,0,1-.32-.32.32.32,0,0,1,.32-.32h12.52a.33.33,0,0,1,.32.32A.32.32,0,0,1,197.43,95Z"/><path class="cls-11" d="M197.43,90.41H184.91a.33.33,0,0,1,0-.65h12.52a.33.33,0,0,1,0,.65Z"/><path class="cls-1" d="M183.94,56.19a23.51,23.51,0,0,0,37.74,13.58l8,2.92-2.8-8.81a23.49,23.49,0,1,0-42.95-7.69Z"/><path class="cls-11" d="M206.07,64.9h-.81a3.59,3.59,0,0,1,0-7.18h.81a3.59,3.59,0,0,1,0,7.18Zm-.81-6.53a2.94,2.94,0,0,0,0,5.88h.81a2.94,2.94,0,0,0,0-5.88Zm1.31-2.18h0a4.72,4.72,0,0,1-1.84-.34A3.05,3.05,0,0,1,203,53.16l-.55-3.71a.31.31,0,0,1,.07-.26l.31-.35a.3.3,0,0,1,.21-.1,11.72,11.72,0,0,0,4.55-1A2,2,0,0,0,208.79,46a1.51,1.51,0,0,0-.62-1.3c-1.35-1-2.82-.48-4.38.09a7.08,7.08,0,0,1-3.41.66A3.36,3.36,0,0,1,198.13,44a3.4,3.4,0,0,1-.58-2.57,4.44,4.44,0,0,1,2.23-2.9A14.36,14.36,0,0,1,206.73,37a13.18,13.18,0,0,1,4,.57,9.2,9.2,0,0,1,3.14,1.65,7.5,7.5,0,0,1,2.07,2.65,9.12,9.12,0,0,1,.14,6.85A7.26,7.26,0,0,1,214.4,51,8.75,8.75,0,0,1,212,52.65a13.45,13.45,0,0,1-2.59.74l-.55.12c0,.1,0,.22,0,.33a3.4,3.4,0,0,1,0,.5,1.67,1.67,0,0,1-.73,1.5A3.06,3.06,0,0,1,206.57,56.19Zm-3.46-6.69.54,3.57c.16,1.1.43,1.81,1.29,2.19a3.84,3.84,0,0,0,1.59.28,2.51,2.51,0,0,0,1.25-.25c.29-.18.4-.43.42-1,0-.05,0-.23,0-.44,0-.78,0-.86.23-.93l.82-.18a13.15,13.15,0,0,0,2.46-.69,8.22,8.22,0,0,0,2.27-1.5,6.54,6.54,0,0,0,1.5-2.16,8.45,8.45,0,0,0-.13-6.32,6.91,6.91,0,0,0-1.89-2.42,8.78,8.78,0,0,0-2.93-1.54,12.6,12.6,0,0,0-3.78-.54,13.74,13.74,0,0,0-6.62,1.53,3.84,3.84,0,0,0-1.93,2.47,2.73,2.73,0,0,0,2.29,3.18,6.63,6.63,0,0,0,3.1-.63c1.65-.61,3.35-1.23,5,0a2.14,2.14,0,0,1,.88,1.82,2.65,2.65,0,0,1-1.5,2.33,12,12,0,0,1-4.7,1.09Z"/><path class="cls-4" d="M95.5,97.38l10-1,32.76,12.28,14.68-4.25c2,.63,3.7,1.25,5.28,1.87,0-.17,9.74,3.35,10.28,3.58A64.45,64.45,0,0,1,188.41,123a41.6,41.6,0,0,1,12.3,25.21c.67,6.56-.45,13.26-.58,19.85q-.21,11.14-.15,22.28.12,22.27,1.31,44.53a5.92,5.92,0,0,1-.35,2.93c-1.45,2.91-15.17,3.58-18.06,3.69-6.54.24-105.27,0-107.23,0l-2.59-76.61s-25.45-16.07-25.43-16.61,0-1.06.07-1.58C49.18,120.74,69.67,99.93,95.5,97.38Z"/><rect class="cls-12" x="119.59" y="118.09" width="34.31" height="123.45"/><path class="cls-13" d="M170,167.86a.32.32,0,0,1-.32-.32V146.89a.32.32,0,0,1,.32-.33.33.33,0,0,1,.32.33v20.65A.32.32,0,0,1,170,167.86Z"/><polygon class="cls-14" points="116.8 45.89 120.94 46.08 120.94 46.08 116.8 45.89"/><path class="cls-14" d="M132.94,47.67a9.45,9.45,0,0,1,4.1,4.8l.65-12.13C135.61,42,134.93,47,132.94,47.67Z"/><path class="cls-15" d="M170.47,34.6c-2.16-6.86-9.18-6-12.81-5a19.09,19.09,0,0,0-2.22.73c-2.91-.35-10.66-5.42-14.49-8l-.37-.25c-1.13-.77-1.84-1.28-1.84-1.28l-1.05,19.59s-2.88,8.41-4.75,7.33a9.18,9.18,0,0,0-4.19-1.23l-7.81-.36-4.14-.19a9.06,9.06,0,0,0-2.4.21,9.37,9.37,0,0,0-7.34,8.68l0,.74a10.22,10.22,0,0,0,9.7,10.64l1.81.08L108.26,97.55c-2.72,9.47,5,17.54,14.66,20.3l.4.12a18.12,18.12,0,0,0,22.44-12.2l3.68-12.83c11.44-1,20.49-10.79,20.64-22.88l.39-33Z"/><path class="cls-16" d="M149.24,93.31s-19.54-3.94-21.05-11.63h0s-4.59,13.55,17.33,24.86Z"/><polygon class="cls-17" points="115.58 75.23 123.6 66.24 118.53 66.24 115.58 75.23"/><path class="cls-4" d="M180,18.35a13.62,13.62,0,0,0-.48-3.29A10,10,0,0,0,177,10.53c-3.74-3.69-11-3.78-15.3-1-1.43.93-2.31,2.38-3.47,3.59.19-.12.11-1.24.09-1.46a5.22,5.22,0,0,0-.25-1.4A5.28,5.28,0,0,0,156.65,8a8.5,8.5,0,0,0-5-2.08C147.06,5.47,143.07,7.75,140,11c-.22.24-.45.56-.32.85-.63-1.38-3-1.64-4.32-1.68A11.1,11.1,0,0,0,130,11.46a22.17,22.17,0,0,0-6.3,5.05,20.77,20.77,0,0,0-4,6.49c0,.09-.06.18-.09.26-3.29,1.28-6.33,4.77-8.18,8.45a10.77,10.77,0,0,0-1,7.51,18.18,18.18,0,0,0,3.93,6.88,9.06,9.06,0,0,1,2.4-.21l4.14.19,5.19.24a22.12,22.12,0,0,0,2.73,7.14l-.39,9.68a3.91,3.91,0,0,1-.9,2.31h0a20.52,20.52,0,0,0,15.17,30.19l1.39.2a4.14,4.14,0,0,0,1.1.28l9.78,1a14.18,14.18,0,0,0,15.63-14.07L170.12,66l-.79,1.42a1.51,1.51,0,0,1-2.5.21,6.57,6.57,0,0,0-4.44-2.43l-9.87-1a11.29,11.29,0,0,0-5.79.94l-1.22.77A5.52,5.52,0,0,1,137,61.09c0-2.28.37-9,.56-14.22,1.58-6.46,2.82-14.56,1.63-22.45A60.74,60.74,0,0,0,156,33.94a25.61,25.61,0,0,0,10.86,1.92,13.63,13.63,0,0,0,9.83-5.27C179.23,27.2,180.13,22.54,180,18.35Z"/><polyline class="cls-15" points="115.15 52.64 118.31 56.8 114.89 58.66"/><path class="cls-16" d="M114.89,59.3a.64.64,0,0,1-.31-1.21l2.77-1.5L114.64,53a.64.64,0,0,1,.12-.9.65.65,0,0,1,.9.12l3.16,4.16a.64.64,0,0,1-.2,1l-3.43,1.86A.64.64,0,0,1,114.89,59.3Z"/><path class="cls-16" d="M158.73,73.34h0L152.88,73a4.82,4.82,0,0,1-4.23-4.44.66.66,0,0,1,.56-.72.66.66,0,0,1,.72.57,3.53,3.53,0,0,0,3,3.31l5.81.38a.65.65,0,0,1,.6.69A.64.64,0,0,1,158.73,73.34Z"/><path class="cls-15" d="M161,43.3l2.45,14.81a1.27,1.27,0,0,1-.2.93c-.69,1-2.74,3-7.51,1.5"/><path class="cls-11" d="M149.86,100.3a1.92,1.92,0,0,0-2.71-.14l-10.11,9-25-20a2.78,2.78,0,0,0-3.62.13L97.8,99.1a2.4,2.4,0,0,0-.13,3.4l23.42,25.07a1.69,1.69,0,0,0,2.58-.12L137.09,110l14,15.79a1.11,1.11,0,0,0,1.92-.53l3.41-17.73Z"/><path class="cls-17" d="M149.14,123.54l-7.45,11.52a2.86,2.86,0,0,1-4.43.47l-11.19-11.21,11-14.37Z"/><path class="cls-15" d="M123.53,162,137,155.91a22.5,22.5,0,0,1,13.53-1.69L165.26,157c2.11.4,5.21,1,6.76,2.64l21.45,11.89a2.35,2.35,0,0,1,.88,3.41l-.06.08a4.75,4.75,0,0,1-6.2,1.5l-11-6,.45.44a4.92,4.92,0,0,1,1.24,4.8l-.83,3.09.15,1.36a5.11,5.11,0,0,1-2,4.7l-14,9.82a1.64,1.64,0,0,1-2.45-.69h0a5.82,5.82,0,0,1,1.56-7l4.45-3.47-12.81,3.79a12.53,12.53,0,0,1-6.43.2l-6.85-1.6-11.21,8.42Z"/><path class="cls-16" d="M176.89,171.09a.35.35,0,0,1-.19-.06l-7.35-5.34a.32.32,0,0,1,.38-.52l7.35,5.34a.31.31,0,0,1,.07.44A.31.31,0,0,1,176.89,171.09Z"/><path class="cls-16" d="M177.7,179a.41.41,0,0,1-.17,0l-9.32-5.91a.32.32,0,0,1,.34-.54l9.33,5.91a.32.32,0,0,1,.1.44A.33.33,0,0,1,177.7,179Z"/><path class="cls-16" d="M165.66,183.91a.31.31,0,0,1-.26-.14.3.3,0,0,1,.08-.44l2.69-1.89a.32.32,0,1,1,.37.53l-2.7,1.88A.3.3,0,0,1,165.66,183.91Z"/><path class="cls-4" d="M50.08,139.79l38.34,3.09.11,14.33,44.14-6.56a2.33,2.33,0,0,1,2.56,1.93l8.7,40.24a3.44,3.44,0,0,1-2.59,4.21c-8.36,1.4-24.78,4.36-41.86,7.11-8.21,1.32-16.58,2.6-24.28,3.63a25.17,25.17,0,0,1-12.84-1.63C51.52,201.73,43.82,190,44.47,176.21c.21-4.43.45-8.42.73-11.38.79-8.35,2.57-16.69,3.36-25"/><path class="cls-13" d="M87.73,157.29h0a.33.33,0,0,1-.31-.34l1.08-27.39a.32.32,0,0,1,.33-.31.32.32,0,0,1,.31.33L88.05,157A.31.31,0,0,1,87.73,157.29Z"/><path class="cls-13" d="M78.86,159.54a.32.32,0,0,1,0-.64l40.73-6.76a.32.32,0,0,1,.11.63l-40.74,6.76Z"/><path class="cls-13" d="M70.38,208.59a19.09,19.09,0,0,1-10-2.81.32.32,0,0,1-.11-.44.31.31,0,0,1,.44-.11A18.4,18.4,0,0,0,73,207.76l46.55-7.3a.33.33,0,0,1,.37.27.32.32,0,0,1-.27.37l-46.55,7.3A19,19,0,0,1,70.38,208.59Z"/><path class="cls-2" d="M315.71,129.7a4.93,4.93,0,0,0,1.75-2.61,15,15,0,0,0,.46-1.44,18.61,18.61,0,0,0,1.23-19.26,18.37,18.37,0,0,0-8.5-7.82c-.46-.21-.92-.4-1.39-.58a18.73,18.73,0,0,0-4.38-1A28.47,28.47,0,0,1,302,96.7a8.19,8.19,0,0,1-1.48-1.34c-2.93-3.46-1.66-8.53-1.38-13a24.65,24.65,0,0,0-1.43-9.75,11.39,11.39,0,1,0-14-16.33,25.64,25.64,0,0,0-2.44-1.4c-13.44-6.78-33.94-3-42.18,10.37-2.84,4.62-3.34,10.27-3.53,15.69a14,14,0,0,1-1.07,5.93c-1.52,2.94-4.22,4.8-5.35,8a15,15,0,0,0,.39,10.63,24.33,24.33,0,0,0,3,4.64c.56.77,1.77,2.36,1.44,3.5l-.3.53h0a21.33,21.33,0,0,0-2.72,13.06c.9,7.59,5.85,13.85,12.87,17.49,8.58,4.45,17,9.18,24.4,14.92a31.22,31.22,0,0,0,24.25,5.6c13.35-2.24,23.55-12.37,24.11-23.84a19.51,19.51,0,0,0-.48-5.49c-.38-1.57-1.31-3.06-1.2-4.73a4.85,4.85,0,0,1,.26-1.2A3.64,3.64,0,0,0,315.71,129.7Z"/><path class="cls-1" d="M207.32,186.67c-1.83-46.07,40.38-51.51,40.38-51.51v.19l11.61,0,15.45,7.22L289.7,133l13.51,2.86s30.26,7.29,29.19,44.62a1.56,1.56,0,0,1-1.31,1.49l-12.51,12.55L314,229.07c2.11,4.27,5.7,12.52,5.7,12.52H209.09Z"/><polyline class="cls-12" points="289.7 133.04 288.31 241.59 246.97 241.59 245.79 135.51"/><path class="cls-1" d="M267.2,154.3h.39c9.31-.22,18.21-5.53,18-14.47l-.28-4.68a4.18,4.18,0,0,0-3.25-3.83l-14.34-3.24-15.4,5.22a3.61,3.61,0,0,0-2.46,3.5l0,1.65C250.11,147.38,257.89,154.52,267.2,154.3Z"/><path class="cls-3" d="M266.91,182a.33.33,0,0,1-.33-.32v-26.1a.33.33,0,0,1,.65,0v26.1A.33.33,0,0,1,266.91,182Z"/><path class="cls-8" d="M260.05,159.77a1.93,1.93,0,1,1,1.94-1.93A1.94,1.94,0,0,1,260.05,159.77Zm0-3.21a1.28,1.28,0,1,0,1.3,1.28A1.3,1.3,0,0,0,260.05,156.56Z"/><path class="cls-8" d="M259.85,170a1.93,1.93,0,1,1,1.95-1.92A1.93,1.93,0,0,1,259.85,170Zm0-3.2a1.28,1.28,0,1,0,1.3,1.28A1.3,1.3,0,0,0,259.85,166.82Z"/><path class="cls-18" d="M266.66,192.6l-11.13-5.89a19.26,19.26,0,0,0-11.41-2.11l-12.64,1.59c-1.81.23-4.47.62-5.88,1.9l-18.81,9a2,2,0,0,0-.92,2.85l0,.07a4,4,0,0,0,5.18,1.59l9.6-4.5-.4.34a4.21,4.21,0,0,0-1.3,4l.55,2.67-.19,1.14a4.34,4.34,0,0,0,1.5,4.1l11.4,9.05a1.39,1.39,0,0,0,2.11-.47h0a5,5,0,0,0-1-6l-3.6-3.17,10.68,3.86a10.59,10.59,0,0,0,5.46.49l5.89-1,9.1,7.73Z"/><path class="cls-19" d="M220.91,197.64a.31.31,0,0,1-.27-.15.31.31,0,0,1,.09-.44l6.51-4.16a.32.32,0,1,1,.35.54l-6.51,4.16A.34.34,0,0,1,220.91,197.64Z"/><path class="cls-19" d="M219.82,204.33a.32.32,0,0,1-.16-.6l8.22-4.55a.31.31,0,0,1,.43.12.32.32,0,0,1-.12.44L220,204.29A.42.42,0,0,1,219.82,204.33Z"/><path class="cls-19" d="M229.8,209.1a.37.37,0,0,1-.2-.07l-2.2-1.74a.32.32,0,0,1,.4-.5l2.2,1.73a.33.33,0,0,1,.05.46A.32.32,0,0,1,229.8,209.1Z"/><path class="cls-1" d="M330.16,177.42l-32.71.69-.82,12.16-37.16-7.8A2,2,0,0,0,257.2,184l-9.42,33.73a2.94,2.94,0,0,0,2,3.71c7,1.61,20.82,5,35.19,8.15,6.9,1.54,14,3,20.43,4.31a21.4,21.4,0,0,0,11-.74c9.43-3.19,16.56-12.8,16.71-24.51,0-3.77,0-7.17,0-9.7-.25-7.13-.38-14.76-.63-21.89"/><path class="cls-20" d="M297.32,190.43h0a.32.32,0,0,1-.31-.33l.47-23.32a.32.32,0,0,1,.32-.32.33.33,0,0,1,.32.33l-.47,23.32A.32.32,0,0,1,297.32,190.43Z"/><path class="cls-20" d="M304.74,192.78h-.07l-20.25-4.62a.32.32,0,1,1,.14-.62l20.25,4.61a.32.32,0,0,1,.24.38A.31.31,0,0,1,304.74,192.78Z"/><path class="cls-20" d="M310.4,234.9a16.14,16.14,0,0,1-3.25-.33l-20.91-4.36a.31.31,0,0,1-.25-.38.32.32,0,0,1,.38-.25l20.91,4.36a15.64,15.64,0,0,0,10.49-1.53.32.32,0,0,1,.43.13.32.32,0,0,1-.13.44A16.33,16.33,0,0,1,310.4,234.9Z"/><path class="cls-18" d="M285.05,90l-7.18.61c-3-.44-6-4.6-7.71-10.22a16.5,16.5,0,0,1-8-4.47c-4.39,4.31-10,7.88-15.61,6a21.12,21.12,0,0,1-6.87-3.67l-.08-.09s0,.06,0,.09l-2,28.51a20,20,0,0,0,15,21.06l.15,7.27a14.59,14.59,0,0,0,14.75,14.36h.33c7.93-.19,15.51-5,15.34-13.07l-1.64-28.33,3.47,0a8.82,8.82,0,0,0,8.68-8.9V99A8.82,8.82,0,0,0,285.05,90Z"/><path class="cls-18" d="M254.21,103.87c-1.48.07-2.67.36-4-.58a4.18,4.18,0,0,1-1.8-4.23,1.83,1.83,0,0,1,1.48-1.32l1.41-.25.7-6.64"/><path class="cls-19" d="M252.56,127.88s17,.42,19.66-5.88h0s1,9.5-19.34,14.95Z"/><path class="cls-21" d="M259,239.64a3.45,3.45,0,0,0-3.45-3.44H203.28l-25.7-63.63a6.12,6.12,0,0,0-5.67-3.82H86.75A4,4,0,0,0,83,174.16l26.09,68.16h0l94.95-.41H259Z"/><rect class="cls-11" x="209.09" y="238.47" width="6.3" height="1.57" rx="0.13"/><rect class="cls-11" x="219.94" y="238.47" width="6.3" height="1.57" rx="0.13"/><path class="cls-11" d="M140.33,211.43c-2.76,2.76-7.9,2.09-11.49-1.5s-4.26-8.72-1.5-11.48,7.9-2.09,11.49,1.5S143.08,208.68,140.33,211.43Z"/><path class="cls-22" d="M136,213.45a10.64,10.64,0,0,1-7.34-3.29,11,11,0,0,1-3.22-6.24,6.3,6.3,0,0,1,7.42-7.42,11,11,0,0,1,6.24,3.22c3.71,3.71,4.38,9.06,1.5,11.94h0A6.39,6.39,0,0,1,136,213.45Zm-4.23-16.38a5.75,5.75,0,0,0-4.15,1.61c-2.63,2.62-2,7.57,1.5,11s8.4,4.13,11,1.5,2-7.58-1.5-11A10,10,0,0,0,131.72,197.07Z"/><path class="cls-11" d="M136.82,215.84a13.71,13.71,0,0,1-9.44-4.23c-4.76-4.76-5.64-11.63-2-15.3s10.54-2.79,15.3,2,5.64,11.62,2,15.29A8.12,8.12,0,0,1,136.82,215.84Zm-5.54-21.48a7.81,7.81,0,0,0-5.64,2.18c-3.55,3.55-2.67,10.21,2,14.84s11.29,5.52,14.84,2,2.67-10.21-2-14.85A13.44,13.44,0,0,0,131.28,194.36Z"/><path class="cls-22" d="M362.37,243.29H26.28a1,1,0,0,1,0-1.93H362.37a1,1,0,0,1,0,1.93Z"/><line class="cls-23" x1="14.36" y1="86.67" x2="17.04" y2="92.98"/><line class="cls-23" x1="8.78" y1="92.28" x2="14.26" y2="96.38"/><line class="cls-23" x1="5.25" y1="99.91" x2="12.06" y2="100.58"/></svg>