<svg id="Layer_1" data-name="Layer 1" xmlns="http://www.w3.org/2000/svg" viewBox="0 0 394.7 236.3"><defs><style>.cls-1{fill:#ededed;}.cls-2,.cls-4{fill:#799ad0;}.cls-3{fill:#b2c1e3;}.cls-4{opacity:0.7;}.cls-5{fill:#99b0db;}.cls-6{fill:#dcdbdb;}.cls-7{fill:#14133c;}.cls-8{fill:#96ceb4;}.cls-9{fill:#0a1929;}.cls-10{fill:#71b292;}.cls-11{fill:#243962;}.cls-12{fill:#fff;}.cls-13{fill:#6d7dbd;}.cls-14{fill:#f6927a;}.cls-15{fill:#e9955c;}.cls-16{fill:none;stroke:#0a1929;stroke-miterlimit:10;}.cls-17{fill:#797a7a;}.cls-18{fill:#515251;}.cls-19{fill:#ecf3fb;}.cls-20{fill:#d6def1;}.cls-21{fill:#f7fafd;}.cls-22{fill:#c3d3ed;}.cls-23{fill:#d96548;}.cls-24{fill:#183660;}.cls-25{fill:#fab17e;}.cls-26{fill:#2e3652;}</style></defs><path class="cls-1" d="M40.2,230.4S-4.3,188.7,24,139.6s66.2-24.4,64.4-81.5S175.7-4,204.1,12.6s28.2,36.5,86.8,29.9,69.8,48.4,54.6,76.5c-21.7,39.8,60,33.2,8.6,111.4Z"/><path class="cls-2" d="M215.2,112.4,205.7,225s-1,6.8,4.1,6.8h41.5s-6.3-1.4-6.2-4.6,11.1-115.8,11.1-115.8Z"/><path class="cls-3" d="M254,229.8H212.5c-3.5-.1-4.1-3.2-4.2-5.2a13.3,13.3,0,0,1,.1-1.7l.3-2.9.6-7.5.6-6.5.7-8.5.6-7.2,6.7-79.9,41-1.1s-4.6,46.9-7.9,81c-.3,3.8-.7,7.5-1,10.9l-.3,3.2c-.3,3.2-.6,6.2-.8,8.8s-.3,2.7-.4,3.8c-.4,4.6-.6,7.6-.6,8.1a2.6,2.6,0,0,0,0,.9C248.6,229.6,253.4,229.8,254,229.8Z"/><polygon class="cls-3" points="115.6 51.2 138.6 143.8 141.8 156.5 152.5 199.6 352 199.6 312.4 51.2 115.6 51.2"/><polygon class="cls-2" points="115.6 51.2 112.4 52.3 148.3 202.8 152.5 199.6 115.6 51.2"/><polygon class="cls-2" points="148.3 202.8 346.5 202.8 352 199.6 152.5 199.6 148.3 202.8"/><rect class="cls-3" x="217.9" y="229.8" width="42.9" height="2.04" transform="translate(478.7 461.6) rotate(180)"/><polygon class="cls-4" points="249.9 202.8 249.7 204.4 209.3 212.5 209.9 206 210.1 202.8 249.9 202.8"/><path class="cls-5" d="M254,229.8H212.5c-3.5-.1-4.1-3.2-4.2-5.2l40.2-7.6c-.4,4.6-.6,7.6-.6,8.1a2.6,2.6,0,0,0,0,.9C248.6,229.6,253.4,229.8,254,229.8Z"/><polygon class="cls-5" points="240.2 169.6 152.5 199.6 141.8 156.5 240.2 169.6"/><polygon class="cls-6" points="115.6 51.2 312.4 51.2 344.1 170.5 145.3 170.5 115.6 51.2"/><polygon class="cls-5" points="344.2 170.5 342.6 170.5 329.1 119 311.7 52.8 118 52.8 147.4 170.5 145.3 170.5 115.6 51.2 313.1 51 313.3 51.7 330.6 118.2 344.2 170.5"/><polygon class="cls-3" points="344.5 171.6 342.9 171.8 329.1 119 330.6 118.2 344.5 171.6"/><path class="cls-7" d="M66.9,123.7c-.3-1,4.5,1.3,10.2-.6s.5-4.9,1.8-9,.6-10.7-7.1-11a5.4,5.4,0,0,0-4.4-.2C61.3,104.9,48.8,125.1,66.9,123.7Z"/><path class="cls-8" d="M75.3,140.9a21.6,21.6,0,0,0,2,3.1c1.6,1.9,9.9-2.8,9.2-3.1s-4.9-12.4-5.9-13.9-4.4-2.3-4.4-2.3Z"/><path class="cls-9" d="M47.2,222s-2.3,2.1-1.8,3.6,2.5,2.5,2.8,4.3,1.4,2.8,2.4,2.8h4.8s.7-1.2-1.1-1.6-2.4-2.5-2.3-4.5a35.9,35.9,0,0,0-.2-4.7l-3.8-.8Z"/><path class="cls-9" d="M66.6,222.9s-.8,8.9.2,9.4H79.7s0-1.5-2.1-1.8-5.7-1.6-6.3-4.3S66.6,222.9,66.6,222.9Z"/><path class="cls-8" d="M56.7,134.9a49.8,49.8,0,0,0,0,6c.2,2.1,2.3,5,2.6,5.7s1.7,2.1,1.7,2.1l6.8,1.6,2.3.6,7.5-2.2s3.5-9.6,2.1-14.9a41.2,41.2,0,0,0-3.5-9.1s-5.1-1.2-14.1-.5Z"/><path class="cls-10" d="M56.1,140.9c.1,2.2,2.9,5,3.2,5.7s1.7,2.1,1.7,2.1l6.8,1.6,1.2-3.5s-9.9-2.6-8.3-11.7Z"/><path class="cls-7" d="M77.2,150.1s3.7,11.6,3.9,15.5-7.1,56-7.4,57.8-2.4,2.8-2.4,2.8a3.2,3.2,0,0,1-2.4.2,5.1,5.1,0,0,1-2.5-1.2s-2.9-37.1-1.1-50.4a205.2,205.2,0,0,0,1.8-24.7Z"/><path class="cls-7" d="M61.4,149.8s-5.6,7.6-6.2,12.7-.8,23.2-1.9,28.3S48,205.4,48,221.1a2.7,2.7,0,0,0,1.8,1.3l1.5.5a2.5,2.5,0,0,0,2.7-1.3c2.8-5.7,11.7-23.8,12.2-27.6s3.1-20.3,9.3-30.7c1.4-2.5-.9-12.4-.9-12.4Z"/><path class="cls-11" d="M77.8,148.4a8.5,8.5,0,0,1-4.5,1.2c-3.5.1-12.3-.9-12.3-.9a7.4,7.4,0,0,0-.4,2.2s10.7,2.7,16.9.4A4,4,0,0,0,77.8,148.4Z"/><path class="cls-12" d="M72.5,150.8a1.7,1.7,0,1,1,1.7,1.8A1.8,1.8,0,0,1,72.5,150.8Zm.6,0a1.2,1.2,0,0,0,1.1,1.3c.6,0,1-.6,1-1.3s-.4-1.3-1-1.3A1.2,1.2,0,0,0,73.1,150.8Z"/><polygon class="cls-13" points="66.4 156 82.5 156.1 90.4 137.5 74.3 137.3 66.4 156"/><path class="cls-14" d="M68.5,147.6l1.2-1.5a3.9,3.9,0,0,1,1.4-.8c.6-.2,1.8-.9,1.9-.7s-.9,1.7-.9,1.7H72c1.2.9,4.3.1,4.7.4s-.7,1.5-1.2,2a4.3,4.3,0,0,1-3.6,1.1l-2.5-.6Z"/><path class="cls-14" d="M89.2,140.8s-1-1.2-1.6-.6.1,3.2.8,3S89.6,141.1,89.2,140.8Z"/><path class="cls-8" d="M62.1,124.2s-4.6.5-7.9,6.5-7.1,13.5-5.4,15.9,7.8,5,21.5,2.8a4.2,4.2,0,0,0-1.3-2.6s-11.5-3.6-11.5-4.4,1.6-2.6,8-9C67.2,131.7,62.1,124.2,62.1,124.2Z"/><path class="cls-14" d="M65.7,124.4c-.2-.2,0-.9.3-2.1a28.4,28.4,0,0,0,.6-4.9h.3l5.7,1s-.1,1.5-.1,2.9h0c0,1.2.3,3.1-.1,3.4C70.3,126,66.3,125.2,65.7,124.4Z"/><path class="cls-15" d="M72.6,118.4s-.1,2.1-.1,3.6c-3.2-.1-4.9-3.2-5.6-4.6Z"/><path class="cls-14" d="M73,120.9s-7.5-1-6.8-5.7.3-7.9,5.1-7.4,5.5,2.4,5.6,4S74.9,121.1,73,120.9Z"/><path class="cls-9" d="M74.7,108.2s-2.9,5.1-6.2,5.5-4.5-.8-4.5-.8a8.7,8.7,0,0,0,3.8-4.8S73.6,105.4,74.7,108.2Z"/><path class="cls-9" d="M74.1,108.6a4.4,4.4,0,0,1,1.9,2,7.1,7.1,0,0,1,.4,4.4s2.1-3.4.7-5.8S74.1,108.6,74.1,108.6Z"/><path class="cls-16" d="M8.6,175.7l4.1-.5a.9.9,0,0,1,.8.4,10.5,10.5,0,0,0,.8,1.1,9.3,9.3,0,0,0,1.6,1.8.9.9,0,0,1,.2,1l-1.6,4a1,1,0,0,0,.5,1.1l3.5,1.7a.8.8,0,0,0,1.1-.3l2.1-3.3a1,1,0,0,1,1-.4,16.7,16.7,0,0,0,5,.5,1,1,0,0,1,.9.6l.7,2.3a.8.8,0,0,0,1,.6l3.8-.7h.2a.8.8,0,0,0,.5-.9l-.3-3v-.8a10,10,0,0,0,1.9-1.2,19.9,19.9,0,0,0,2.1-2,.8.8,0,0,1,1-.2l3.2,1.2a.8.8,0,0,0,1.1-.4l1.4-2.7.3-.8a.9.9,0,0,0-.3-1.2l-2.8-1.7a.9.9,0,0,1-.3-1,18.6,18.6,0,0,0,.4-3.3v-.3h0a.9.9,0,0,1,.6-.7l3.7-1.2h.2a.9.9,0,0,0,.4-1l-.7-3.8a1,1,0,0,0-1-.7l-4.2.5a.8.8,0,0,1-.9-.5l-1.3-2-.9-1a1,1,0,0,1-.2-.9l1.5-3.9a.8.8,0,0,0-.4-1.1L35.7,149a.8.8,0,0,0-1.1.3L32.9,152a.9.9,0,0,1-1.1.3,15.1,15.1,0,0,0-4.8-.8.9.9,0,0,1-.8-.7l-1.1-3.3a.9.9,0,0,0-1-.6l-3.8.7a.9.9,0,0,0-.7,1v.2l.4,3.5c0,.4-.1.8-.5.9h0a11.4,11.4,0,0,0-2.3,1.5l-1.2,1a1,1,0,0,1-.9.2l-3.3-1.3a.8.8,0,0,0-1.1.4L9,158.5a.4.4,0,0,0-.1.3.9.9,0,0,0,.4.9l2.2,1.4c.3.1.4.4.4.8v.2a14.6,14.6,0,0,0-.8,6.2.9.9,0,0,1-.5.8h-.1l-3.1.9a1,1,0,0,0-.6,1.1h.1l.7,3.7A1,1,0,0,0,8.6,175.7Zm26-11.6a10.6,10.6,0,0,1,.6,1.9,8.7,8.7,0,0,1-.6,4.5l-.2.3c-4,7.4-14.4,6-16.1-2.4a7.5,7.5,0,0,1,.3-3.9l.3-.7a9.3,9.3,0,0,1,1.9-2.7A8.5,8.5,0,0,1,34.6,164.1Z"/><path class="cls-16" d="M100.8,30.4l3.4-.4c.3-.1.5.1.7.3l.6.9a10.3,10.3,0,0,0,1.4,1.5,1,1,0,0,1,.2.9l-1.3,3.3a.8.8,0,0,0,.3,1l3,1.4a.7.7,0,0,0,.9-.2l1.8-2.8a.9.9,0,0,1,.8-.4,15.1,15.1,0,0,0,4.2.5.7.7,0,0,1,.8.5l.6,1.9a.7.7,0,0,0,.8.5l3.2-.6h.2a.6.6,0,0,0,.4-.7l-.2-2.6v-.6l1.5-1,1.9-1.7a.6.6,0,0,1,.8-.2l2.7,1a.6.6,0,0,0,.9-.3l1.2-2.3.3-.6a.8.8,0,0,0-.3-1l-2.3-1.5a.9.9,0,0,1-.4-.8,9.5,9.5,0,0,0,.4-2.8v-.3h0c0-.3.3-.5.5-.6l3.2-1h.1a1,1,0,0,0,.4-.9l-.7-3.2c0-.3-.4-.6-.8-.6l-3.6.4a.6.6,0,0,1-.7-.3,17.4,17.4,0,0,0-1.1-1.8l-.7-.8a.8.8,0,0,1-.2-.8l1.3-3.2a.8.8,0,0,0-.4-1l-2.9-1.4a.7.7,0,0,0-1,.3l-1.4,2.2a.8.8,0,0,1-.9.3,13.4,13.4,0,0,0-4-.7.8.8,0,0,1-.7-.5l-.9-2.9a.8.8,0,0,0-.9-.5l-3.2.6a.9.9,0,0,0-.6.9h0l.4,3a1.2,1.2,0,0,1-.4.8h-.1a10,10,0,0,0-1.9,1.2l-1,.8a.8.8,0,0,1-.8.2l-2.7-1.1a.8.8,0,0,0-1,.4l-1.4,2.9a.3.3,0,0,0-.1.2,1.1,1.1,0,0,0,.3.8l1.9,1.2a.8.8,0,0,1,.4.6.3.3,0,0,1-.1.2,13.4,13.4,0,0,0-.7,5.2.6.6,0,0,1-.4.7h-.1l-2.5.8a.7.7,0,0,0-.5.9h0l.6,3.1A1,1,0,0,0,100.8,30.4Zm21.9-9.8a7.5,7.5,0,0,1,.4,1.6,7.1,7.1,0,0,1-.5,3.8c0,.1-.1.2-.1.3a7.2,7.2,0,0,1-13.6-2.1,6,6,0,0,1,.3-3.2,1.4,1.4,0,0,1,.2-.7,7.6,7.6,0,0,1,1.7-2.2A7.1,7.1,0,0,1,122.7,20.6Z"/><path class="cls-17" d="M310.5,68.3V178.4a7.1,7.1,0,0,1-6.9,7.3H108.7a7.1,7.1,0,0,1-6.9-7.3V68.3a7.1,7.1,0,0,1,6.9-7.3H303.6A7.1,7.1,0,0,1,310.5,68.3Z"/><path class="cls-7" d="M310.5,67.9v5H101.8v-5a6.9,6.9,0,0,1,6.9-6.9H303.6A6.9,6.9,0,0,1,310.5,67.9Z"/><path class="cls-18" d="M183.8,127.9c3.3,4.1-.6,10.5,1.6,15.3a22.9,22.9,0,0,1,1.4,2.7c.6,1.5.4,3.3.7,4.9s1.9,3.3,3.5,2.9,2-2.1,2-3.5-.5-3-.1-4.3a4.5,4.5,0,0,1,4-3,6.3,6.3,0,0,1,4.9,1.7c1.5,1.2,3.2,3,5,2.4s1.9-3.1,1-4.8-2.3-2.9-3-4.6,0-4.6,1.3-6.6a45.1,45.1,0,0,1,4.7-5.1,3.4,3.4,0,0,0,1.3-2c.1-.7-.6-1.7-1.4-1.6s-.9.6-1.3.9-4.7.6-6.1-1.2-1.5-4.4-1.3-6.7c2.8.7,5.4-3.2,8.1-2.2s2.2,2.7,2.6,4.4,2.3,5.9,2.7,9.1c.8,5.9-2.6,12.5.4,17.8a13.6,13.6,0,0,0,5,4.5c4.8,2.7,10.9,3.7,15.8,1.4s11-9.2,11.1-9.6c.5-4.8-.2-7.7.7-9.2,3.2-5.6,13-1.5,17.7-1.2,12.9.8,12.2-7.6,12.1-11.5-.1-9.3-1.9-11-11.3-12.2-5-.6-10,.4-14.9-.7s-8-3.3-12.1-4.9a30.4,30.4,0,0,0-23.3.9,21.8,21.8,0,0,1-4.8,1.9,4.4,4.4,0,0,1-4.6-1.7c-1.1-1.7-.2-3.9.9-5.6s2.7-3.2,3.1-5.2-1.5-5.6-4.1-6.7a11.3,11.3,0,0,0-8.3.2c-5,1.6-9,5.1-12.7,8.8S177.7,103,177,109c-.2,2.4.1,4.9-.7,7.2s-2.1,3-1.5,4.9C175.9,124.7,181.6,125,183.8,127.9Z"/><path class="cls-18" d="M259.7,98.4l2.6,2a5.8,5.8,0,0,0,1.8,1.1c1.4.2,2.6-1.4,2.6-3.4s-1.5-3.7-2.8-3.7-1.7.7-2.5.1-2.7-6.7-4.2-2.9S258,97.1,259.7,98.4Z"/><path class="cls-18" d="M158.7,106.3l5.4,3.4c1,.6,2.1,1.6,1.7,2.7s-2.5,1-4,1.2a3.6,3.6,0,0,0-3,4.4c.4,1.4,1.5,3.1.5,4.1s-2.7.1-4,.6-1.2,1.1-1.9,1.4a6.5,6.5,0,0,0-2,.5c-.8.4-1,1.3-1.7,1.9s-5.2-.8-7.5.5-1.4,3.7,0,5.2,3.2,2.1,4.9,3.2,3.2,2.8,2.9,4.7-2.7,3.7-1.9,5.5.8,1,1.2,1.5a4.8,4.8,0,0,1,.8,4.5,6.5,6.5,0,0,1-3.1,3.6l-2.9,1.1c-2.5,1.3-4,3.8-5.4,6.2s-3.2,6.2-3.8,9.6c-.2,1.1-.3,2.4-1.4,3s-2.7-.3-3.2-1.5a17,17,0,0,1-.9-3.9c-.6-2.5-2.4-4.5-3.1-6.9-1.5-5.9,4.1-11.6,3-17.6-.2-1.2-.7-2.4-.9-3.6a7.6,7.6,0,0,1,2.5-6.8c2-1.7,5.1-2.7,5.9-5.2s-1.7-5.7-1.2-8.7c.1-.9.6-1.8.7-2.7a6.9,6.9,0,0,0-.4-3.2c-.9-3-2-6.2-.5-9a9.6,9.6,0,0,1,4.2-3.5,24.3,24.3,0,0,1,12.7-2.2c1.8.1,3.5-.4,3.8,1.6S156.7,105,158.7,106.3Z"/><path class="cls-18" d="M171.4,91.1l3.2-1.6a3.5,3.5,0,0,0,2.1-2.6,3.6,3.6,0,0,0-1.1-2.4,8,8,0,0,0-2.4-1.3,31.6,31.6,0,0,0-5.2-1.7,4.8,4.8,0,0,0-2.9-.2,5.6,5.6,0,0,0-2.1,1.6,7.7,7.7,0,0,0-1.9,3.1,7.4,7.4,0,0,0,.7,5c.6,1.4,4.1,8.4,5.9,7.6s1-3.4,1.3-4.1A7.3,7.3,0,0,1,171.4,91.1Z"/><path class="cls-18" d="M274.7,155.7c1.5-1.1,3.3-1.6,4.9-2.5s3.1-2.3,3.2-4.1a4.5,4.5,0,0,0-1.7-3.8,12,12,0,0,0-3.7-2,57.9,57.9,0,0,0-8-2.7,8,8,0,0,0-4.6-.2,7,7,0,0,0-3.2,2.5,11.8,11.8,0,0,0-3,4.7c-.8,2.6,0,5.4,1.1,7.9s6.4,13,9.2,11.8c1.1-.5,1.5-5.2,2-6.4A10.9,10.9,0,0,1,274.7,155.7Z"/><path class="cls-19" d="M110,67.6a1.3,1.3,0,0,1,1.3-1.4,1.4,1.4,0,0,1,1.4,1.4,1.4,1.4,0,0,1-1.4,1.4A1.4,1.4,0,0,1,110,67.6Z"/><circle class="cls-19" cx="118.7" cy="67.6" r="1.4"/><circle class="cls-19" cx="126.1" cy="67.6" r="1.4"/><path class="cls-7" d="M172.3,101.9c0,4.7,7.9,12.3,7.9,12.3s8-7.6,8-12.3a8.3,8.3,0,0,0-8-8.5C175.8,93.4,172.3,97.2,172.3,101.9Zm3.2-.5a4.7,4.7,0,1,1,4.7,4.7A4.7,4.7,0,0,1,175.5,101.4Z"/><path class="cls-19" d="M175.5,101.4a4.7,4.7,0,1,1,4.7,4.7A4.7,4.7,0,0,1,175.5,101.4Z"/><path class="cls-7" d="M132.3,146.1c0,3.4,5.7,8.8,5.7,8.8s5.6-5.4,5.6-8.8A5.9,5.9,0,0,0,138,140,6,6,0,0,0,132.3,146.1Zm2.3-.3a3.4,3.4,0,1,1,6.7,0,3.4,3.4,0,0,1-6.7,0Z"/><path class="cls-19" d="M134.6,145.8a3.4,3.4,0,1,1,6.7,0,3.4,3.4,0,0,1-6.7,0Z"/><rect class="cls-20" x="85.4" y="83.9" width="45.6" height="46.78" rx="13.3"/><path class="cls-7" d="M122,105.8A13.8,13.8,0,1,1,108.2,92l2.5.2c-1.7,6.3-4,14.6-4.1,15.1s8.6-4.2,14.4-6.7A15,15,0,0,1,122,105.8Z"/><path class="cls-8" d="M121.7,99.1c-5,2.2-13.4,6-13.7,6.4s2.5-8.9,4.1-14.6A15.1,15.1,0,0,1,121.7,99.1Z"/><rect class="cls-21" x="142.7" y="12.9" width="59.2" height="54.66" rx="15.9"/><path class="cls-9" d="M195.2,58.5H149.4V44h45.8ZM149.9,58h44.7V44.5H149.9Z"/><rect class="cls-9" x="152.7" y="47.9" width="17.7" height="1.16"/><rect class="cls-9" x="172.3" y="47.9" width="12.6" height="1.16"/><rect class="cls-9" x="152.7" y="51.2" width="9.8" height="1.16"/><rect class="cls-9" x="164.1" y="51.2" width="12.6" height="1.16"/><rect class="cls-9" x="178" y="51.2" width="12.6" height="1.16"/><rect class="cls-7" x="149.6" y="32.9" width="4.8" height="6.65"/><rect class="cls-7" x="157.8" y="28.5" width="4.8" height="11.05"/><rect class="cls-8" x="166" y="24.9" width="4.8" height="14.66"/><rect class="cls-7" x="174.2" y="27.8" width="4.8" height="11.73"/><rect class="cls-7" x="182.4" y="21.5" width="4.8" height="17.98"/><rect class="cls-8" x="190.6" y="18.3" width="4.8" height="21.18"/><rect class="cls-9" x="283.1" y="91.8" width="72.7" height="42.94" rx="12.5"/><path class="cls-22" d="M316.1,127.1H289.2v-8.5h26.9Zm-26.6-.3h26.3v-7.9H289.5Z"/><rect class="cls-22" x="291.1" y="120.9" width="10.4" height="0.68"/><rect class="cls-22" x="302.6" y="120.9" width="7.4" height="0.68"/><rect class="cls-22" x="291.1" y="122.8" width="5.7" height="0.68"/><rect class="cls-22" x="297.8" y="122.8" width="7.4" height="0.68"/><rect class="cls-22" x="306" y="122.8" width="7.4" height="0.68"/><path class="cls-22" d="M348.2,127.1H321.3v-8.5h26.9Zm-26.6-.3h26.2v-7.9H321.6Z"/><rect class="cls-22" x="323.2" y="120.9" width="10.4" height="0.68"/><rect class="cls-22" x="334.7" y="120.9" width="7.4" height="0.68"/><rect class="cls-22" x="323.2" y="122.8" width="5.7" height="0.68"/><rect class="cls-22" x="329.9" y="122.8" width="7.4" height="0.68"/><rect class="cls-22" x="338.1" y="122.8" width="7.4" height="0.68"/><path class="cls-22" d="M349.8,115.2H289.2v-4.9h60.6Zm-60-.6h59.4v-3.8H289.8Z"/><rect class="cls-22" x="289.5" y="110.6" width="47.1" height="4.34"/><path class="cls-22" d="M349.8,105.4H289.2v-4.9h60.6Zm-60-.6h59.4v-3.7H289.8Z"/><rect class="cls-8" x="289.2" y="100.5" width="31.5" height="4.92"/><path class="cls-19" d="M271.2,39.8a.6.6,0,0,0-.6-.9,1.4,1.4,0,0,0-1.2.9.7.7,0,0,0,.7.9A1.2,1.2,0,0,0,271.2,39.8Z"/><path class="cls-7" d="M207.3,93.1c0,7,11.8,18.2,11.8,18.2s11.7-11.2,11.7-18.2-5.2-12.6-11.7-12.6S207.3,86.1,207.3,93.1Zm4.8-.7a7,7,0,0,1,7-6.9,6.9,6.9,0,1,1,0,13.8A7,7,0,0,1,212.1,92.4Z"/><path class="cls-19" d="M212.1,92.4a7,7,0,1,1,7,6.9A6.9,6.9,0,0,1,212.1,92.4Z"/><path class="cls-23" d="M223.4,113.1s-.3-3.1-1.1-4.3a5.8,5.8,0,0,0-3.8-1.8c-.6.5,1.6,2.5,1.7,3.2s-1.1.2-.5,1.6a13,13,0,0,0,2.1,2.7Z"/><path class="cls-8" d="M222,112.8c1.1-.9,1.3-.8,1.3-.8s9.7,8.4,10.7,9.1,15.5,5,15.5,5l2.4,11.9s-19.8-9.5-22.2-11.5-8.8-12.2-8.8-12.2A3.5,3.5,0,0,1,222,112.8Z"/><path class="cls-24" d="M249.9,226.9s-.2,4.1-1,5.1H238.1c0-.5.1-1.4,1.6-1.7a7.2,7.2,0,0,0,5.3-4.2C246.2,223.6,249.9,226.9,249.9,226.9Z"/><path class="cls-24" d="M271.1,226.4s.8,5.4-.2,5.4l-6.2.2H259c-.5,0-.8-.4-.5-.8a2,2,0,0,1,1.6-1.1c1.9-.3,5-1.7,6.1-4.3S271.1,226.4,271.1,226.4Z"/><path class="cls-7" d="M244.2,171.1s3,10.5,11.7,28.9,9,27.1,9,27.1a6.9,6.9,0,0,0,3,.3,8.3,8.3,0,0,0,3.2-1s-.5-21.9-4.6-31.1-4.9-34.6-4.9-34.6Z"/><path class="cls-7" d="M237.8,162.5a259.4,259.4,0,0,0,4.3,36.3c3.8,19.9,3,29.2,3,29.2s.7.5,3,.4a7,7,0,0,0,4.1-1.3s3-20.2,1.4-30.2,3.9-34.7,3.9-34.7Z"/><path class="cls-23" d="M252.7,123.8l-3.2,2.3-4.6-.9.7-3.8v-.3c.3-1.3.5-2.5.5-2.5l4.3-2.1,1.6-.8a12.8,12.8,0,0,1-.2,1.7A13.9,13.9,0,0,0,252.7,123.8Z"/><path class="cls-8" d="M261.9,164c-1.1,4.8-23.4,2.7-23.1-.2,0-.1.1-1.5.1-3.3.2-3.9.5-10.1.5-10.5h0c.4-4,.8-8,.8-10.6a29.1,29.1,0,0,1,.8-6.6,38.8,38.8,0,0,1,1.2-5.1,5.5,5.5,0,0,1,1.5-2.4,4.2,4.2,0,0,1,1.8-1.1l.5-.2c2.6-.8,6.3-1.7,7.3-1.5,2.6.8,4.6,5.5,6,11.5C262,145.2,262.6,160.9,261.9,164Z"/><path class="cls-23" d="M251.5,117.5c-.9,1.8-4.4,3.3-5.9,3.9v-.3c.3-1.3.5-2.5.5-2.5l4.3-2.1C251.3,116.5,251.9,116.7,251.5,117.5Z"/><path class="cls-23" d="M244,118.4s7.8,2.4,9.2-2.5,3.4-7.8-1.5-9.5-6.4-.2-7.3,1.3S242,117.6,244,118.4Z"/><path class="cls-9" d="M244.7,107.2s.5,5.7,1.7,5.4,2.2-.4,2,1.3-1.8,3.7,1.8,4,8.8-9,7.9-10.8C255.2,102,240.6,101,244.7,107.2Z"/><path class="cls-10" d="M238.9,160.5c.2-3.9.5-10.1.5-10.5h0l13.2-7.9S253.1,160.5,238.9,160.5Z"/><path class="cls-23" d="M228.4,144s-2.6-1.8-3.1-2a11.1,11.1,0,0,0-2.3-.2c-.1.2-.3.6,0,.7s.6.1.5.2-1.2-.4-1.4.1-.5,2.5.8,3.1,4.4,0,4.7.1C229.5,146.6,228.4,144,228.4,144Z"/><path class="cls-8" d="M228.4,143.5s13.1,2.2,14.3,1.7S242,131,242,131s-.2-3,3.4-3.7,6,1.6,6,1.6,2.7,2.4,2.3,5.1c-.8,5.9-1.9,17.9-5.9,19.7s-19.8-6.5-19.8-6.5a2.6,2.6,0,0,1-.4-1.8A3.8,3.8,0,0,1,228.4,143.5Z"/><path class="cls-25" d="M219.6,111.6s-.8-1.7-1-2,.2-.2.6,0,.7,1.1,1.2,1S219.6,111.6,219.6,111.6Z"/><rect class="cls-26" x="11" y="231.5" width="377.2" height="2.35" rx="0.7"/></svg>