<svg id="Layer_1" data-name="Layer 1" xmlns="http://www.w3.org/2000/svg" xmlns:xlink="http://www.w3.org/1999/xlink" viewBox="0 0 366.8 229"><defs><style>.cls-1{fill:#c1e2e8;}.cls-2{fill:#a1cfd9;}.cls-3{fill:#14133c;}.cls-4{fill:url(#linear-gradient);}.cls-12,.cls-15,.cls-21,.cls-23,.cls-26,.cls-28,.cls-30,.cls-48,.cls-49,.cls-5,.cls-53{fill:none;stroke-miterlimit:10;}.cls-5{stroke:#14133c;}.cls-16,.cls-6{fill:#4155a5;}.cls-20,.cls-7{fill:#0a1929;}.cls-7{opacity:0.64;}.cls-8{fill:#a8caeb;}.cls-17,.cls-9{fill:#f5f6f6;}.cls-10{fill:#96ceb4;}.cls-11{fill:#010101;opacity:0.15;}.cls-12{stroke:#f5f6f6;}.cls-12,.cls-28,.cls-30{stroke-width:0.5px;}.cls-13{fill:#e05251;}.cls-14{fill:#479d4f;}.cls-15{stroke:#aeaeae;stroke-width:0.42px;}.cls-16,.cls-17{font-size:4.74px;font-family:OpenSans-Semibold, OpenSans Semibold;font-weight:600;letter-spacing:0.07em;}.cls-18{fill:#649ed5;}.cls-19{fill:#2a388f;}.cls-21{stroke:#16332d;stroke-width:0.54px;}.cls-22{fill:url(#linear-gradient-2);}.cls-23{stroke:#2c6960;stroke-width:0.63px;}.cls-24{fill:#10143d;}.cls-25{fill:#e87b71;}.cls-26,.cls-53{stroke:#c23c2e;}.cls-26{stroke-width:0.57px;}.cls-27{fill:#ffeab5;}.cls-28{stroke:#b59e68;}.cls-29{fill:#c23c2e;}.cls-30,.cls-49{stroke:#4155a5;}.cls-31{fill:url(#linear-gradient-3);}.cls-32{fill:#ffda91;}.cls-33{fill:#f47728;}.cls-34{fill:#23275e;}.cls-35{fill:url(#linear-gradient-4);}.cls-36{fill:url(#linear-gradient-5);}.cls-37{fill:url(#linear-gradient-6);}.cls-38{fill:url(#linear-gradient-7);}.cls-39{fill:url(#linear-gradient-8);}.cls-40{fill:url(#linear-gradient-9);}.cls-41{fill:url(#linear-gradient-10);}.cls-42{fill:url(#linear-gradient-11);}.cls-43{fill:url(#linear-gradient-12);}.cls-44{fill:url(#linear-gradient-13);}.cls-45{fill:url(#linear-gradient-14);}.cls-46{fill:url(#linear-gradient-15);}.cls-47{fill:url(#linear-gradient-16);}.cls-48{stroke:#23275e;}.cls-48,.cls-49{stroke-width:0.55px;}.cls-50{fill:#d9d9d8;}.cls-51{fill:#fff;}.cls-52{fill:#242e30;}.cls-53{stroke-width:0.57px;}</style><linearGradient id="linear-gradient" x1="269.02" y1="35.08" x2="269.02" y2="20.4" gradientUnits="userSpaceOnUse"><stop offset="0" stop-color="#cde7eb"/><stop offset="0.25" stop-color="#dbecef"/><stop offset="0.69" stop-color="#eef3f4"/><stop offset="1" stop-color="#f5f6f6"/></linearGradient><linearGradient id="linear-gradient-2" x1="10.59" y1="171.66" x2="30.3" y2="171.66" gradientUnits="userSpaceOnUse"><stop offset="0" stop-color="#1d5e6b"/><stop offset="0.96" stop-color="#228642"/></linearGradient><linearGradient id="linear-gradient-3" x1="241.8" y1="129.81" x2="241.8" y2="91.57" gradientUnits="userSpaceOnUse"><stop offset="0" stop-color="#f99b1c"/><stop offset="1" stop-color="#ffda91"/></linearGradient><linearGradient id="linear-gradient-4" x1="89.64" y1="219.51" x2="89.64" y2="210.68" xlink:href="#linear-gradient-3"/><linearGradient id="linear-gradient-5" x1="90.56" y1="211.7" x2="90.56" y2="202.87" xlink:href="#linear-gradient-3"/><linearGradient id="linear-gradient-6" x1="89.64" y1="203.88" x2="89.64" y2="195.05" xlink:href="#linear-gradient-3"/><linearGradient id="linear-gradient-7" x1="93.08" y1="196.2" x2="93.08" y2="187.36" xlink:href="#linear-gradient-3"/><linearGradient id="linear-gradient-8" x1="86.74" y1="188.42" x2="86.74" y2="179.58" xlink:href="#linear-gradient-3"/><linearGradient id="linear-gradient-9" x1="89.26" y1="180.14" x2="89.26" y2="171.31" xlink:href="#linear-gradient-3"/><linearGradient id="linear-gradient-10" x1="89.26" y1="172.44" x2="89.26" y2="163.61" xlink:href="#linear-gradient-3"/><linearGradient id="linear-gradient-11" x1="295.3" y1="219.51" x2="295.3" y2="210.68" xlink:href="#linear-gradient-3"/><linearGradient id="linear-gradient-12" x1="296.22" y1="211.7" x2="296.22" y2="202.87" xlink:href="#linear-gradient-3"/><linearGradient id="linear-gradient-13" x1="295.3" y1="203.88" x2="295.3" y2="195.05" xlink:href="#linear-gradient-3"/><linearGradient id="linear-gradient-14" x1="298.74" y1="196.2" x2="298.74" y2="187.36" xlink:href="#linear-gradient-3"/><linearGradient id="linear-gradient-15" x1="292.4" y1="188.42" x2="292.4" y2="179.58" xlink:href="#linear-gradient-3"/><linearGradient id="linear-gradient-16" x1="294.92" y1="180.14" x2="294.92" y2="171.31" xlink:href="#linear-gradient-3"/></defs><path class="cls-1" d="M48.7,27.1H282.9a20,20,0,0,1,20,20V217.4a0,0,0,0,1,0,0H28.7a0,0,0,0,1,0,0V47.1A20,20,0,0,1,48.7,27.1Z"/><rect class="cls-2" x="41.2" y="40.3" width="86.4" height="44.33" rx="5.8"/><circle class="cls-3" cx="269" cy="29.1" r="16.7" transform="translate(173.7 282.3) rotate(-75.5)"/><circle class="cls-4" cx="269" cy="29.1" r="13.2"/><polyline class="cls-5" points="262.9 22.8 269 29.1 278.4 22.6"/><circle class="cls-6" cx="269" cy="29.1" r="1.1"/><circle class="cls-7" cx="77.9" cy="44" r="27"/><path class="cls-3" d="M96.6,20a30.2,30.2,0,0,0-18.7-6.4V45.3Z"/><path class="cls-6" d="M94.6,22.8,77.9,45.3l25.7,7.1a29.5,29.5,0,0,0,1.3-8.4A26.8,26.8,0,0,0,94.6,22.8Z"/><path class="cls-6" d="M77.9,45.3V17a28.3,28.3,0,0,0-9.7,1.8Z"/><path class="cls-8" d="M68.2,18.8A27,27,0,0,0,50.9,44a26,26,0,0,0,.6,5.6l26.4-4.3Z"/><rect class="cls-2" x="159.1" y="78.5" width="81.4" height="77.08" rx="8"/><rect class="cls-9" x="143.2" y="169.4" width="92.9" height="41.48" rx="8"/><path class="cls-6" d="M164.9,174.9H150.3a.8.8,0,0,1-.8-.8h0a.8.8,0,0,1,.8-.7h14.6a.7.7,0,0,1,.7.7h0A.7.7,0,0,1,164.9,174.9Z"/><path class="cls-2" d="M171,178.3H150.3a.8.8,0,0,1-.8-.7h0a.8.8,0,0,1,.8-.8H171a.7.7,0,0,1,.7.8h0A.7.7,0,0,1,171,178.3Z"/><path class="cls-10" d="M148.1,210.9h83.1a5,5,0,0,0,4.9-5V176c-2.9,1.7-6.9,6.3-9.6,6.3s-2.6-4.9-8.4-4.5-9.7,10.7-13.6,10.8-4.5-4-8.5-3.7c-5.8.4-7.7,12-10.3,12.1s-3.1-4.7-5.2-4.9-3.9,4.1-6.3,3.2-3.3-8.8-8.6-8.7-6,10.7-13,12.3-6.7-.3-9.4,0v7A5,5,0,0,0,148.1,210.9Z"/><rect class="cls-11" x="15.7" y="77.3" width="90.9" height="64.53" rx="8"/><rect class="cls-3" x="14.4" y="76.2" width="90.9" height="64.53" rx="8"/><path class="cls-10" d="M19.3,140.7h81a5,5,0,0,0,5-5v-21l-12.6-4.1a5.3,5.3,0,0,1-1.5-.8l-5.5-4.9a2.5,2.5,0,0,0-3.7.6l-1.2,2.3a3.2,3.2,0,0,1-5.5-.2l-10.9-12a3.1,3.1,0,0,0-5.2.8L47.6,121.8a2.4,2.4,0,0,1-4.3-.1l-2.9-6.8a1,1,0,0,0-1.7-.3h0a1.5,1.5,0,0,1-2.4-.6l-2.7-7.6a3.1,3.1,0,0,0-5.5-.7L26.5,108a3.8,3.8,0,0,1-5.8.8l-6.3-5.6v32.5A4.9,4.9,0,0,0,19.3,140.7Z"/><line class="cls-12" x1="22.2" y1="82.2" x2="22.2" y2="134.7"/><line class="cls-12" x1="25" y1="82.2" x2="25" y2="134.7"/><line class="cls-12" x1="27.8" y1="82.2" x2="27.8" y2="134.7"/><line class="cls-12" x1="30.6" y1="82.2" x2="30.6" y2="134.7"/><line class="cls-12" x1="33.4" y1="82.2" x2="33.4" y2="134.7"/><line class="cls-12" x1="36.1" y1="82.2" x2="36.1" y2="134.7"/><line class="cls-12" x1="38.9" y1="82.2" x2="38.9" y2="134.7"/><line class="cls-12" x1="41.7" y1="82.2" x2="41.7" y2="134.7"/><line class="cls-12" x1="44.5" y1="82.2" x2="44.5" y2="134.7"/><line class="cls-12" x1="47.3" y1="82.2" x2="47.3" y2="134.7"/><line class="cls-12" x1="50.1" y1="82.2" x2="50.1" y2="134.7"/><line class="cls-12" x1="52.8" y1="82.2" x2="52.8" y2="134.7"/><line class="cls-12" x1="55.6" y1="82.2" x2="55.6" y2="134.7"/><line class="cls-12" x1="58.4" y1="82.2" x2="58.4" y2="134.7"/><line class="cls-12" x1="61.2" y1="82.2" x2="61.2" y2="134.7"/><line class="cls-12" x1="64" y1="82.2" x2="64" y2="134.7"/><line class="cls-12" x1="66.8" y1="82.2" x2="66.8" y2="134.7"/><line class="cls-12" x1="69.6" y1="82.2" x2="69.6" y2="134.7"/><line class="cls-12" x1="72.3" y1="82.2" x2="72.3" y2="134.7"/><line class="cls-12" x1="75.1" y1="82.2" x2="75.1" y2="134.7"/><line class="cls-12" x1="77.9" y1="82.2" x2="77.9" y2="134.7"/><line class="cls-12" x1="80.7" y1="82.2" x2="80.7" y2="134.7"/><line class="cls-12" x1="83.5" y1="82.2" x2="83.5" y2="134.7"/><line class="cls-12" x1="86.3" y1="82.2" x2="86.3" y2="134.7"/><line class="cls-12" x1="89.1" y1="82.2" x2="89.1" y2="134.7"/><line class="cls-12" x1="91.8" y1="82.2" x2="91.8" y2="134.7"/><line class="cls-12" x1="94.6" y1="82.2" x2="94.6" y2="134.7"/><line class="cls-12" x1="97.4" y1="82.2" x2="97.4" y2="134.7"/><path class="cls-6" d="M22.2,114.7h0a1,1,0,0,1-.9-1V102.5a.9.9,0,0,1,.9-.9h0a.9.9,0,0,1,.9.9v11.2A1,1,0,0,1,22.2,114.7Z"/><rect class="cls-6" x="24.1" y="104.7" width="1.8" height="11.12" rx="0.7"/><path class="cls-6" d="M27.8,113.2h0a.9.9,0,0,1-.9-.9V97.9a.9.9,0,0,1,.9-.9h0a.9.9,0,0,1,.9.9v14.4A.9.9,0,0,1,27.8,113.2Z"/><path class="cls-6" d="M30.6,104.7h0a1,1,0,0,1-1-.9V96.7a1,1,0,0,1,1-1h0a.9.9,0,0,1,.9,1v7.1A.9.9,0,0,1,30.6,104.7Z"/><path class="cls-6" d="M33.4,114.2h0a.9.9,0,0,1-1-.9v-9.7a.9.9,0,0,1,1-.9h0a.9.9,0,0,1,.9.9v9.7A.9.9,0,0,1,33.4,114.2Z"/><path class="cls-6" d="M36.1,121.1h0a.9.9,0,0,1-.9-.9v-7.8a.9.9,0,0,1,.9-.9h0a1,1,0,0,1,1,.9v7.8A1,1,0,0,1,36.1,121.1Z"/><path class="cls-6" d="M38.9,127.1h0a.9.9,0,0,1-.9-.9V112a.9.9,0,0,1,.9-.9h0a.9.9,0,0,1,.9.9v14.2A.9.9,0,0,1,38.9,127.1Z"/><path class="cls-6" d="M41.7,126.6h0a.9.9,0,0,1-.9-.9V114.5a.9.9,0,0,1,.9-.9h0a.9.9,0,0,1,.9.9v11.2A.9.9,0,0,1,41.7,126.6Z"/><rect class="cls-6" x="43.6" y="121.6" width="1.8" height="9.49" rx="0.7"/><path class="cls-6" d="M47.3,129.4h0a1,1,0,0,1-.9-1V117.2a.9.9,0,0,1,.9-.9h0a.9.9,0,0,1,.9.9v11.2A1,1,0,0,1,47.3,129.4Z"/><path class="cls-6" d="M50.1,121.2h0a1,1,0,0,1-1-.9V112a1,1,0,0,1,1-.9h0a.9.9,0,0,1,.9.9v8.3A.9.9,0,0,1,50.1,121.2Z"/><path class="cls-6" d="M52.8,118.7h0a.9.9,0,0,1-.9-.9V106.6a.9.9,0,0,1,.9-.9h0a.9.9,0,0,1,1,.9v11.2A.9.9,0,0,1,52.8,118.7Z"/><path class="cls-6" d="M55.6,110.1h0a1,1,0,0,1-.9-1V94a.9.9,0,0,1,.9-.9h0a1,1,0,0,1,1,.9v15.1A1.1,1.1,0,0,1,55.6,110.1Z"/><path class="cls-6" d="M58.4,105.1h0a.9.9,0,0,1-.9-.9V93a1,1,0,0,1,.9-1h0a1,1,0,0,1,.9,1v11.2A.9.9,0,0,1,58.4,105.1Z"/><path class="cls-6" d="M61.2,97h0a.9.9,0,0,1-.9-.9V90.6a.9.9,0,0,1,.9-1h0a.9.9,0,0,1,.9,1v5.5A.9.9,0,0,1,61.2,97Z"/><path class="cls-6" d="M64,103.8h0a.9.9,0,0,1-.9-.9V91.7a1,1,0,0,1,.9-1h0a1,1,0,0,1,.9,1v11.2A.9.9,0,0,1,64,103.8Z"/><path class="cls-6" d="M66.8,102.9h0a.9.9,0,0,1-.9-.9V93.2a.9.9,0,0,1,.9-.9h0a.9.9,0,0,1,.9.9V102A.9.9,0,0,1,66.8,102.9Z"/><path class="cls-6" d="M69.6,108.8h0a1,1,0,0,1-1-.9V96.7a1,1,0,0,1,1-1h0a.9.9,0,0,1,.9,1v11.2A.9.9,0,0,1,69.6,108.8Z"/><path class="cls-6" d="M72.3,108.8h0a.9.9,0,0,1-.9-.9v-7a1,1,0,0,1,.9-1h0a1,1,0,0,1,1,1v7A.9.9,0,0,1,72.3,108.8Z"/><path class="cls-6" d="M75.1,114.7h0a1,1,0,0,1-.9-1V102.5a.9.9,0,0,1,.9-.9h0a1,1,0,0,1,1,.9v11.2A1.1,1.1,0,0,1,75.1,114.7Z"/><path class="cls-6" d="M77.9,119.3h0a.9.9,0,0,1-.9-.9V104.7a.9.9,0,0,1,.9-.9h0a.9.9,0,0,1,.9.9v13.7A.9.9,0,0,1,77.9,119.3Z"/><path class="cls-6" d="M80.7,114.7h0a1,1,0,0,1-.9-1V102.5a.9.9,0,0,1,.9-.9h0a.9.9,0,0,1,.9.9v11.2A1,1,0,0,1,80.7,114.7Z"/><path class="cls-6" d="M83.5,111.8h0a.9.9,0,0,1-.9-.9V99.7a.9.9,0,0,1,.9-.9h0a.9.9,0,0,1,.9.9v11.2A.9.9,0,0,1,83.5,111.8Z"/><path class="cls-6" d="M86.3,113.5h0a.9.9,0,0,1-.9-.9V101.4a.9.9,0,0,1,.9-.9h0a.9.9,0,0,1,.9.9v11.2A.9.9,0,0,1,86.3,113.5Z"/><path class="cls-6" d="M89.1,116.8h0a1,1,0,0,1-1-.9V104.7a1,1,0,0,1,1-.9h0a.9.9,0,0,1,.9.9v11.2A.9.9,0,0,1,89.1,116.8Z"/><path class="cls-6" d="M91.8,114.3h0a.9.9,0,0,1-.9-1V102.1a.9.9,0,0,1,.9-.9h0a.9.9,0,0,1,1,.9v11.2A.9.9,0,0,1,91.8,114.3Z"/><path class="cls-6" d="M94.6,114.7h0a1,1,0,0,1-.9-1V102.5a.9.9,0,0,1,.9-.9h0a1,1,0,0,1,1,.9v11.2A1.1,1.1,0,0,1,94.6,114.7Z"/><path class="cls-6" d="M97.4,114.7h0a1,1,0,0,1-.9-1V102.5a.9.9,0,0,1,.9-.9h0a.9.9,0,0,1,.9.9v11.2A1,1,0,0,1,97.4,114.7Z"/><rect class="cls-11" x="116.2" y="37.8" width="109.3" height="66.22" rx="8"/><rect class="cls-9" x="115.3" y="37" width="109.3" height="66.22" rx="8"/><polygon class="cls-13" points="189.6 91.2 191.3 93.6 193 91.2 192.1 91.2 192.1 88.2 190.6 88.2 190.6 91.2 189.6 91.2"/><rect class="cls-13" x="196.1" y="87.6" width="20" height="7.98"/><polygon class="cls-14" points="193 79.8 191.3 77.4 189.6 79.8 190.6 79.8 190.6 82.8 192.1 82.8 192.1 79.8 193 79.8"/><rect class="cls-14" x="196.1" y="76.8" width="20" height="7.98"/><polygon class="cls-14" points="193 69.1 191.3 66.7 189.6 69.1 190.6 69.1 190.6 72 192.1 72 192.1 69.1 193 69.1"/><rect class="cls-14" x="196.1" y="66.1" width="20" height="7.98"/><rect class="cls-13" x="196.1" y="55.3" width="20" height="7.98"/><rect class="cls-14" x="196.1" y="44.6" width="20" height="7.98"/><line class="cls-15" x1="123.9" y1="52.5" x2="216.1" y2="52.5"/><text class="cls-16" transform="translate(170 50.2)">234.67</text><text class="cls-17" transform="translate(198.9 50.2)">0.234</text><polygon class="cls-14" points="193 47.5 191.3 45.2 189.6 47.5 190.6 47.5 190.6 50.5 192.1 50.5 192.1 47.5 193 47.5"/><line class="cls-15" x1="123.9" y1="63.3" x2="216.1" y2="63.3"/><text class="cls-16" transform="translate(170 61)">123.07</text><text class="cls-17" transform="translate(198.9 61)">0.134</text><polygon class="cls-13" points="189.6 58.9 191.3 61.3 193 58.9 192.1 58.9 192.1 55.9 190.6 55.9 190.6 58.9 189.6 58.9"/><line class="cls-15" x1="123.9" y1="74.1" x2="216.1" y2="74.1"/><text class="cls-16" transform="translate(170 71.8)">2245.0</text><text class="cls-17" transform="translate(198.9 71.8)">1.654</text><line class="cls-15" x1="123.9" y1="84.8" x2="216.1" y2="84.8"/><text class="cls-16" transform="translate(170 82.5)">12.066</text><text class="cls-17" transform="translate(198.9 82.5)">0.934</text><line class="cls-15" x1="123.9" y1="95.6" x2="216.1" y2="95.6"/><text class="cls-16" transform="translate(170 93.3)">131.77</text><text class="cls-17" transform="translate(198.9 93.3)">1.566</text><rect class="cls-11" x="232.8" y="37.8" width="108" height="126.62" rx="8"/><rect class="cls-9" x="231.7" y="37" width="108" height="126.62" rx="8"/><path class="cls-14" d="M273.1,54.7H245.2a1.3,1.3,0,0,1-1.3-1.4h0a1.3,1.3,0,0,1,1.3-1.3h27.9a1.3,1.3,0,0,1,1.3,1.3h0A1.3,1.3,0,0,1,273.1,54.7Z"/><path class="cls-14" d="M292.4,54.7H279.1a1.3,1.3,0,0,1-1.3-1.4h0a1.3,1.3,0,0,1,1.3-1.3h13.3a1.3,1.3,0,0,1,1.3,1.3h0A1.3,1.3,0,0,1,292.4,54.7Z"/><path class="cls-6" d="M325,60H245.2a1.3,1.3,0,0,1-1.3-1.4h0a1.3,1.3,0,0,1,1.3-1.3H325a1.3,1.3,0,0,1,1.3,1.3h0A1.3,1.3,0,0,1,325,60Z"/><path class="cls-13" d="M289.1,71H245.2a1.3,1.3,0,0,1-1.3-1.3h0a1.3,1.3,0,0,1,1.3-1.3h43.9a1.3,1.3,0,0,1,1.4,1.3h0A1.3,1.3,0,0,1,289.1,71Z"/><path class="cls-6" d="M273.1,76.8H245.2a1.3,1.3,0,0,1-1.3-1.3h0a1.3,1.3,0,0,1,1.3-1.3h27.9a1.3,1.3,0,0,1,1.3,1.3h0A1.3,1.3,0,0,1,273.1,76.8Z"/><path class="cls-18" d="M318.2,76.8H279.1a1.3,1.3,0,0,1-1.3-1.3h0a1.3,1.3,0,0,1,1.3-1.3h39.1a1.3,1.3,0,0,1,1.4,1.3h0A1.3,1.3,0,0,1,318.2,76.8Z"/><path class="cls-19" d="M267.5,82.1H245.2a1.3,1.3,0,0,1-1.3-1.3h0a1.3,1.3,0,0,1,1.3-1.4h22.3a1.4,1.4,0,0,1,1.4,1.4h0A1.3,1.3,0,0,1,267.5,82.1Z"/><path class="cls-18" d="M284.4,93.2H245.2a1.3,1.3,0,0,1-1.3-1.4h0a1.3,1.3,0,0,1,1.3-1.3h39.2a1.3,1.3,0,0,1,1.4,1.3h0A1.4,1.4,0,0,1,284.4,93.2Z"/><path class="cls-18" d="M307.6,93.2H289.8a1.4,1.4,0,0,1-1.4-1.4h0a1.3,1.3,0,0,1,1.4-1.3h17.8a1.3,1.3,0,0,1,1.3,1.3h0A1.3,1.3,0,0,1,307.6,93.2Z"/><path class="cls-14" d="M273.1,99H245.2a1.3,1.3,0,0,1-1.3-1.4h0a1.3,1.3,0,0,1,1.3-1.3h27.9a1.3,1.3,0,0,1,1.3,1.3h0A1.3,1.3,0,0,1,273.1,99Z"/><path class="cls-13" d="M292.4,99H279.1a1.3,1.3,0,0,1-1.3-1.4h0a1.3,1.3,0,0,1,1.3-1.3h13.3a1.3,1.3,0,0,1,1.3,1.3h0A1.3,1.3,0,0,1,292.4,99Z"/><path class="cls-19" d="M325,104.3H245.2a1.3,1.3,0,0,1-1.3-1.4h0a1.3,1.3,0,0,1,1.3-1.3H325a1.3,1.3,0,0,1,1.3,1.3h0A1.3,1.3,0,0,1,325,104.3Z"/><path class="cls-19" d="M300.1,115.3H245.2a1.3,1.3,0,0,1-1.3-1.3h0a1.3,1.3,0,0,1,1.3-1.3h54.9a1.3,1.3,0,0,1,1.4,1.3h0A1.3,1.3,0,0,1,300.1,115.3Z"/><path class="cls-14" d="M273.1,121.1H245.2a1.3,1.3,0,0,1-1.3-1.3h0a1.3,1.3,0,0,1,1.3-1.3h27.9a1.3,1.3,0,0,1,1.3,1.3h0A1.3,1.3,0,0,1,273.1,121.1Z"/><path class="cls-14" d="M299.4,121.1H279.1a1.3,1.3,0,0,1-1.3-1.3h0a1.3,1.3,0,0,1,1.3-1.3h20.3a1.3,1.3,0,0,1,1.4,1.3h0A1.3,1.3,0,0,1,299.4,121.1Z"/><path class="cls-6" d="M282.3,126.4H245.2a1.3,1.3,0,0,1-1.3-1.3h0a1.3,1.3,0,0,1,1.3-1.4h37.1a1.3,1.3,0,0,1,1.3,1.4h0A1.3,1.3,0,0,1,282.3,126.4Z"/><path class="cls-13" d="M325,137.5H245.2a1.3,1.3,0,0,1-1.3-1.4h0a1.3,1.3,0,0,1,1.3-1.3H325a1.3,1.3,0,0,1,1.3,1.3h0A1.3,1.3,0,0,1,325,137.5Z"/><path class="cls-6" d="M273.1,143.3H245.2a1.3,1.3,0,0,1-1.3-1.4h0a1.3,1.3,0,0,1,1.3-1.3h27.9a1.3,1.3,0,0,1,1.3,1.3h0A1.3,1.3,0,0,1,273.1,143.3Z"/><path class="cls-19" d="M292.4,143.3H279.1a1.3,1.3,0,0,1-1.3-1.4h0a1.3,1.3,0,0,1,1.3-1.3h13.3a1.3,1.3,0,0,1,1.3,1.3h0A1.3,1.3,0,0,1,292.4,143.3Z"/><path class="cls-18" d="M325,148.6H245.2a1.3,1.3,0,0,1-1.3-1.4h0a1.3,1.3,0,0,1,1.3-1.3H325a1.3,1.3,0,0,1,1.3,1.3h0A1.3,1.3,0,0,1,325,148.6Z"/><path class="cls-3" d="M364.1,60.2,332.6,72a1.7,1.7,0,0,0-.6,2.8l6.5,6.2-32.1,33.6L273.6,87.1a6.1,6.1,0,0,0-8,0l-67.3,57.4-38.4-31.1a6.2,6.2,0,0,0-7.6-.1L13.1,217.5H33.7l122.2-91.4,38.6,31.2a6.1,6.1,0,0,0,7.9-.1l67.3-57.3,33.2,28a6.1,6.1,0,0,0,8.4-.5l36.2-37.9,5.9,5.5a1.7,1.7,0,0,0,2.8-.7l10.1-32A1.7,1.7,0,0,0,364.1,60.2Z"/><circle class="cls-11" cx="155.8" cy="119.5" r="12" transform="translate(12.7 254.1) rotate(-80.7)"/><circle class="cls-10" cx="156.4" cy="118.9" r="12"/><circle class="cls-11" cx="197.8" cy="151.4" r="12" transform="translate(-47.9 192.1) rotate(-46.8)"/><circle class="cls-10" cx="198.4" cy="150.8" r="12"/><circle class="cls-11" cx="268.9" cy="94.4" r="12" transform="translate(129.7 343.1) rotate(-80.1)"/><circle class="cls-10" cx="269.5" cy="93.8" r="12"/><circle class="cls-11" cx="305.8" cy="122.3" r="12" transform="translate(115.9 391.5) rotate(-76.6)"/><circle class="cls-10" cx="306.4" cy="121.7" r="12"/><path class="cls-20" d="M38.3,204.3a61.4,61.4,0,0,1-12.4-10.1c-5.3-5.9-15.7-15.5-21.3-17.9-1.9,5.3-4.6,11.4,1.5,17.9S15.2,199,18.5,205s6.7,9.7,11.8,12.4H49.4Z"/><path class="cls-14" d="M10.1,182.5c1,2.4,1.5,6.5,3.5,8.3,5.3,4.6,14.6,6.1,17.5,8.3h0a39.8,39.8,0,0,1-5.2-4.9c-5.3-5.9-15.7-15.5-21.3-17.9A14.6,14.6,0,0,1,10.1,182.5Z"/><path class="cls-21" d="M6.3,179.6c2.2,2.4,4.2,10.1,8.1,14.6s5.2,5.3,9.9,8.3,12.8,9.7,14.9,14.9"/><path class="cls-20" d="M41,153.2A44.8,44.8,0,0,1,44.1,165c.7,6.5-.4,7.8,1,15.1s2.8,9.5,4.3,18.1,2.5,19.2,2.5,19.2H66s-1.1-2.9-1.2-9.8.9-16.1-1.5-24.8S54.6,157.9,41,153.2Z"/><path class="cls-21" d="M45.5,157.7s7.5,7.3,9.1,18,.2,30.8,1.6,36.3"/><path class="cls-20" d="M10.6,155.6a72.1,72.1,0,0,0,11.1,2.7c4.4.6,9.8,1.1,12.5,3.7s2.8,9,6.5,11,10.1,8.5,12.2,13.6,3.5,15.1,3.6,19,2.4,9.9,3.5,11.8H46.1s-10-8.5-12.6-15.2-1.9-13.9-4.7-17.8-7.6-9.3-11.4-14A36.7,36.7,0,0,1,10.6,155.6Z"/><path class="cls-22" d="M28.8,184.4a10,10,0,0,1,1.5,3.3h0c-1-9.1-2.8-14.4-6.1-17.3s-12.5-10.5-13.6-14.8a36.7,36.7,0,0,0,6.8,14.8C21.2,175.1,26.1,180.4,28.8,184.4Z"/><path class="cls-21" d="M15.1,158.9c4.6,3.5,10,5.8,13.9,9.9s8.9,12.3,12,18.1c5.7,10.5,9.9,25.6,13.6,30.5"/><line class="cls-23" x1="-12.6" y1="217.5" x2="377.5" y2="217.5"/><path class="cls-20" d="M219.5,211.5a50.7,50.7,0,0,1,1.6,8.4,8.7,8.7,0,0,1-4.2,0c-2-.6-8.5,2.2-11.7-.1l7.5-4.5a3.7,3.7,0,0,0,2-3.1l.2-1.3Z"/><path class="cls-20" d="M257.8,206.2a60.5,60.5,0,0,1,3.9,7.7,9.2,9.2,0,0,1-4.1,1.2c-2.1-.1-7.6,4.4-11.3,3.1l6-6.4a4.4,4.4,0,0,0,1.1-3.6l-.2-1.3Z"/><path class="cls-3" d="M213.4,116.5l-3.9,49.3a13.1,13.1,0,0,0,0,2.8l3.3,43.8a27.1,27.1,0,0,0,7.9,0l2.7-44.7,9.4-49.5-4.9-14.6Z"/><path class="cls-24" d="M227.8,144.5l5-26.3-4.9-14.6-14.5,12.9-.7,9A30.3,30.3,0,0,1,227.8,144.5Z"/><path class="cls-3" d="M225.8,116.5l9.8,48.6a13.8,13.8,0,0,0,.8,2.7l15.2,41.1a28.1,28.1,0,0,0,7.6-2.1l-9.7-43.7L245,112.9l-8.8-12.7Z"/><path class="cls-25" d="M177.4,76.7l-2.8-3.8a24.5,24.5,0,0,0-.5-3.1l.8-4h-.6a1.3,1.3,0,0,0-1.1.9l-.8,2.5-5.3-6.6a.5.5,0,0,0-.7-.1h0a.5.5,0,0,0-.3.7l2.4,4.7-2.8,2a1.3,1.3,0,0,0-.4,1.6,6.1,6.1,0,0,0,5,4l1.8,4Z"/><path class="cls-26" d="M171.8,69.4a3.9,3.9,0,0,0-.4,4.7"/><path class="cls-26" d="M168.5,68l1.3,2.1a1.4,1.4,0,0,1-.4,1.8l-2.7,2"/><line class="cls-26" x1="167.3" y1="69.1" x2="169.2" y2="72"/><line class="cls-26" x1="166.1" y1="70.1" x2="168" y2="73"/><polygon class="cls-27" points="178.3 76.3 176.5 73.7 170 77.3 171.3 80.4 178.3 76.3"/><path class="cls-3" d="M204.9,70.4c-4.1,3.2-14.6,20.2-14.6,20.2L178.1,75.5l-7.7,4.4s6.1,14.2,10.5,21.9,15,9.4,19.9.2,10.3-21.7,10.3-21.7Z"/><path class="cls-24" d="M188,94.6l2.3-4-3.4-4.3C187.5,90.1,188,94.6,188,94.6Z"/><path class="cls-24" d="M204.1,95.3c2.6-5.3,5.2-10.9,6.4-13.5l-4.1-7s-1.4,15.7-2.3,20.5Z"/><path class="cls-3" d="M226.6,121.1l1.4-10.6,3,10.4a4,4,0,0,0,4.7,2.9,41.1,41.1,0,0,0,13.1-5.2l-5.3-14.7,2.5-37c-8.3-3.2-19.7-4.3-19.7-4.3-14.1,1.6-21.4,7.8-21.4,7.8l9.3,36.9-3.8,14.3a43.2,43.2,0,0,0,11.8,2.9A4,4,0,0,0,226.6,121.1Z"/><path class="cls-27" d="M230.4,64.8,228,61.2l-6.8.7-1.5,3.9s3,25.1,7.7,40.2C232,91.2,230.4,64.8,230.4,64.8Z"/><polyline class="cls-28" points="225.9 68.3 227.9 69.5 229.8 65.5"/><polyline class="cls-28" points="222.5 69 221.7 70.1 220.3 68.1"/><path class="cls-29" d="M230.3,88.4c-1.8-6.5-4.3-15.7-4.9-17.7l.9-2.4-1.7-1a1,1,0,0,0-1.2.3l-1.1,1.5,1.2,1.8s.1,11.5.4,21c1,4.9,2.2,9.9,3.5,14.1C229,101,229.8,94.6,230.3,88.4Z"/><path class="cls-30" d="M218.9,64l-5.5,7.6,5.9,10.3-3.2,5.6s7.4,14.6,10.2,18.5"/><path class="cls-30" d="M231.4,63.3l5.6,6-3.9,11.6,4.3,4.1s-6.7,16.3-9.1,21"/><polygon class="cls-24" points="240.3 74.8 239.2 78.9 243.5 103.9 244.8 84.6 240.3 74.8"/><circle class="cls-31" cx="241.8" cy="114" r="17.3"/><path class="cls-32" d="M241.8,99.7A14.3,14.3,0,1,0,256.1,114,14.3,14.3,0,0,0,241.8,99.7Zm0,27.3a13,13,0,1,1,13-13A13,13,0,0,1,241.8,127Z"/><path class="cls-33" d="M246.7,116.5a3.3,3.3,0,0,1-1.1,2.5,5.8,5.8,0,0,1-3.2,1.1v2h-1.3v-1.9a10.8,10.8,0,0,1-4.2-.9v-2.5l2.1.7,2.1.4v-3l-.6-.3a9.9,9.9,0,0,1-2.8-1.6,3.5,3.5,0,0,1-.8-2.2,3,3,0,0,1,1.1-2.4,6.7,6.7,0,0,1,3.1-1.1v-1.5h1.3v1.5a10.7,10.7,0,0,1,4.1.9l-1,2.3a8.4,8.4,0,0,0-3.1-.8v2.9l2.7,1.2a3.4,3.4,0,0,1,1.2,1.2A2.4,2.4,0,0,1,246.7,116.5Zm-6.9-5.7a1.1,1.1,0,0,0,.3.7l1,.5v-2.3C240.3,109.9,239.8,110.2,239.8,110.8Zm4,5.9a1,1,0,0,0-.4-.7,2.9,2.9,0,0,0-1-.6v2.4C243.3,117.7,243.8,117.3,243.8,116.7Z"/><path class="cls-32" d="M233.6,102.3l-1.8-2.5-.4.3,1.8,2.5Z"/><path class="cls-32" d="M235.5,101.1l-1.4-2.7-.4.2,1.4,2.8Z"/><path class="cls-32" d="M227.7,111.5l-3-.5v.5l3,.5Z"/><path class="cls-32" d="M239.8,99.8l-.5-3h-.4l.4,3Z"/><path class="cls-32" d="M237.6,100.3l-.9-2.9-.5.2,1,2.9Z"/><path class="cls-32" d="M231.9,103.7l-2.2-2.1-.3.3,2.1,2.1Z"/><path class="cls-32" d="M228.3,109.3l-2.9-.9c-.1.1-.1.3-.2.4l2.9,1Z"/><path class="cls-32" d="M230.4,105.4l-2.5-1.8-.2.4,2.4,1.8Z"/><path class="cls-32" d="M241.8,99.7h.2v-3h-.4v3Z"/><path class="cls-32" d="M229.2,107.3l-2.7-1.4-.2.4,2.7,1.4A.8.8,0,0,1,229.2,107.3Z"/><path class="cls-32" d="M246.4,100.5l1-2.9-.5-.2-.9,2.9Z"/><path class="cls-32" d="M244.3,99.9l.4-3h-.4l-.5,3Z"/><path class="cls-32" d="M254.6,107.7l2.7-1.4-.2-.4-2.7,1.4A.8.8,0,0,1,254.6,107.7Z"/><path class="cls-32" d="M255.5,109.8l2.9-1c-.1-.1-.1-.3-.2-.4l-2.9.9Z"/><path class="cls-32" d="M256,112l3-.5a.9.9,0,0,1-.1-.5l-3,.5A.9.9,0,0,0,256,112Z"/><path class="cls-32" d="M253.5,105.8,256,104l-.3-.4-2.5,1.8Z"/><path class="cls-32" d="M248.5,101.4l1.4-2.8-.4-.2-1.4,2.7Z"/><path class="cls-32" d="M252.1,104l2.1-2.1-.3-.3-2.2,2.1Z"/><path class="cls-32" d="M227.5,114v-.3h-3v.5h3Z"/><path class="cls-32" d="M250.4,102.6l1.8-2.5-.4-.3-1.8,2.5Z"/><path class="cls-32" d="M255.9,116.4l3,.5a.6.6,0,0,1,.1-.4l-3-.5A.6.6,0,0,0,255.9,116.4Z"/><path class="cls-32" d="M250,125.7l1.8,2.4.4-.2-1.8-2.5Z"/><path class="cls-32" d="M251.7,124.2l2.2,2.2.3-.3-2.1-2.2Z"/><path class="cls-32" d="M248.1,126.8l1.4,2.7.4-.2-1.4-2.7Z"/><path class="cls-32" d="M246,127.6l.9,2.9h.5l-1-2.9Z"/><path class="cls-32" d="M253.2,122.6l2.5,1.8.3-.4-2.5-1.8Z"/><path class="cls-32" d="M255.3,118.6l2.9,1,.2-.5-2.9-.9C255.4,118.3,255.4,118.5,255.3,118.6Z"/><path class="cls-32" d="M259.1,113.7h-3v.5h3v-.5Z"/><path class="cls-32" d="M254.4,120.7l2.7,1.4c.1-.2.2-.3.2-.5l-2.7-1.3C254.6,120.4,254.5,120.5,254.4,120.7Z"/><path class="cls-32" d="M243.8,128.1l.5,3h.4l-.4-3Z"/><path class="cls-32" d="M227.7,116l-3,.5v.4l3-.5Z"/><path class="cls-32" d="M229,120.3l-2.7,1.3c0,.2.1.3.2.5l2.7-1.4C229.1,120.5,229,120.4,229,120.3Z"/><path class="cls-32" d="M231.5,123.9l-2.1,2.2.3.3,2.2-2.2Z"/><path class="cls-32" d="M241.8,128.3h-.2v3h.4v-3Z"/><path class="cls-32" d="M228.1,118.2l-2.9.9.2.5,2.9-1C228.2,118.5,228.2,118.3,228.1,118.2Z"/><path class="cls-32" d="M230.1,122.2l-2.4,1.8.2.4,2.5-1.8Z"/><path class="cls-32" d="M239.3,128.1l-.4,3h.4l.5-3Z"/><path class="cls-32" d="M237.2,127.5l-1,2.9h.5l.9-2.9Z"/><path class="cls-32" d="M235.1,126.6l-1.4,2.7.4.2,1.4-2.7Z"/><path class="cls-32" d="M233.2,125.4l-1.8,2.5.4.2,1.8-2.4Z"/><path class="cls-25" d="M246,122l-1.7,3.5s.3,5.9-2.4,7.2c0,0-1.2.2-1.4-.5s-1.7-.2-1.7-.2-1.5.2-1.7-.7a1.3,1.3,0,0,1-1.9-.6c-.1-.7,2.4-1.2,2.7-4a2.8,2.8,0,0,0-2.4.7.6.6,0,0,1-.9,0l-.3-.3s1.8-2.8,4.4-2.9a1.1,1.1,0,0,0,1-.6l1.9-3.5Z"/><path class="cls-34" d="M219,51.3c-3.9-.3-3.5-4.8-1-5.9a1.7,1.7,0,0,1,2.2.5,1.6,1.6,0,0,0,1.5.5c1.4-.2,3.7-.4,5.1.3a2.3,2.3,0,0,1,1.4,2.9,2,2,0,0,1,1.6,1.7c.2,2.7-2.9,4.8-2.9,4.8Z"/><path class="cls-25" d="M219,51.3l.4,2.7a5.6,5.6,0,0,0-.4,3.4,3.2,3.2,0,0,0,1.9,2.5l.5,3.7a2.5,2.5,0,0,0,1.2,1.9l1.3.9,2.5-1.9a3,3,0,0,0,1.2-3.3l-1.1-4.3a2,2,0,0,0,1.6-1.4c.2-1.2-.8-2.4-2.1-.9a4.9,4.9,0,0,1,.1-3.3c-2.3,1-4.5.6-2.2-1.3C220.8,51.6,219,51.3,219,51.3Z"/><path class="cls-29" d="M220.9,59.9a3.9,3.9,0,0,0,4.2-1s-.3,2.8-3.9,2.8Z"/><path class="cls-3" d="M246,66.9c3.7,1.8,10.3,14.2,14.5,23.9a14.8,14.8,0,0,1-.9,13.7l-12.8,20.9-7.4-3.8,8.5-23.5s-6.3-13.5-8.3-17.6S240.5,67,246,66.9Z"/><path class="cls-35" d="M58.6,211.8v6.8c0,1.4,13.9,2.6,31,2.6s31.1-1.2,31.1-2.6v-6.8Z"/><path class="cls-32" d="M78.9,211.8h-.4V221h.4Z"/><path class="cls-32" d="M75.3,211.8h-.4v9.1h.4Z"/><path class="cls-32" d="M82.6,211.8h-.4v9.3h.4Z"/><path class="cls-32" d="M86.2,211.8h-.4v9.4h.4Z"/><path class="cls-32" d="M71.7,211.8h-.4v8.9h.4Z"/><path class="cls-32" d="M68.5,211.8h-.3v8.7h.3Z"/><path class="cls-32" d="M59.5,219.2l.4.2v-7.6h-.4Z"/><path class="cls-32" d="M61.4,211.8H61v7.8h.4Z"/><path class="cls-32" d="M63.2,211.8h-.4v8.1h.4Z"/><path class="cls-32" d="M65.7,211.8h-.4v8.4h.4Z"/><path class="cls-32" d="M93.5,211.8h-.4v9.4h.4Z"/><path class="cls-32" d="M89.8,221.2v-9.4h-.4v9.4h.4Z"/><path class="cls-32" d="M116.5,211.8h-.4V220h.4Z"/><path class="cls-32" d="M118.3,211.8h-.4v7.9h.4Z"/><path class="cls-32" d="M111.1,211.8h-.4v8.7h.4Z"/><path class="cls-32" d="M119.8,211.8h-.4v7.6l.4-.2Z"/><path class="cls-32" d="M114,211.8h-.4v8.5h.4Z"/><path class="cls-32" d="M100.7,211.8h-.4V221h.4Z"/><path class="cls-32" d="M97.1,211.8h-.4v9.3h.4Z"/><path class="cls-32" d="M104.4,211.8H104v9.1h.4Z"/><path class="cls-32" d="M108,211.8h-.4v8.9h.4Z"/><ellipse class="cls-33" cx="89.6" cy="211.8" rx="31.1" ry="2.6"/><path class="cls-36" d="M59.5,204v6.8c0,1.4,13.9,2.6,31.1,2.6s31-1.2,31-2.6V204Z"/><path class="cls-32" d="M79.9,204h-.4v9.2h.4Z"/><path class="cls-32" d="M76.2,204h-.4v9.1h.4Z"/><path class="cls-32" d="M83.5,204h-.4v9.3h.4Z"/><path class="cls-32" d="M87.1,204h-.4v9.4h.4Z"/><path class="cls-32" d="M72.6,204h-.4v8.9h.4Z"/><path class="cls-32" d="M69.5,204h-.4v8.7h.4Z"/><path class="cls-32" d="M60.4,211.4h.4V204h-.4Z"/><path class="cls-32" d="M62.3,204h-.4v7.8h.4Z"/><path class="cls-32" d="M64.1,204h-.4v8.1h.4Z"/><path class="cls-32" d="M66.6,204h-.4v8.4h.4Z"/><path class="cls-32" d="M94.4,204H94v9.4h.4Z"/><path class="cls-32" d="M90.8,213.4V204h-.4v9.4h.4Z"/><path class="cls-32" d="M117.4,204H117v8.2h.4Z"/><path class="cls-32" d="M119.2,204h-.4v7.9h.4Z"/><path class="cls-32" d="M112,204h-.3v8.7h.3Z"/><path class="cls-32" d="M120.7,204h-.4v7.5h.4Z"/><path class="cls-32" d="M114.9,204h-.4v8.4h.4Z"/><path class="cls-32" d="M101.7,204h-.4v9.2h.4Z"/><path class="cls-32" d="M98,204h-.4v9.3H98Z"/><path class="cls-32" d="M105.3,204h-.4v9.1h.4Z"/><path class="cls-32" d="M108.9,204h-.4v8.9h.4Z"/><path class="cls-33" d="M121.6,204c0,1.4-13.9,2.6-31,2.6s-31.1-1.2-31.1-2.6,13.9-2.6,31.1-2.6S121.6,202.6,121.6,204Z"/><path class="cls-37" d="M58.6,196.2V203c0,1.4,13.9,2.6,31,2.6s31.1-1.2,31.1-2.6v-6.8Z"/><path class="cls-32" d="M78.9,196.2h-.4v9.2h.4Z"/><path class="cls-32" d="M75.3,196.2h-.4v9.1h.4Z"/><path class="cls-32" d="M82.6,196.2h-.4v9.3h.4Z"/><path class="cls-32" d="M86.2,196.2h-.4v9.3h.4Z"/><path class="cls-32" d="M71.7,196.2h-.4v8.9h.4Z"/><path class="cls-32" d="M68.5,196.2h-.3v8.7h.3Z"/><path class="cls-32" d="M59.5,203.6h.4v-7.5h-.4Z"/><path class="cls-32" d="M61.4,196.2H61V204h.4Z"/><path class="cls-32" d="M63.2,196.2h-.4v8.1h.4Z"/><path class="cls-32" d="M65.7,196.2h-.4v8.4h.4Z"/><path class="cls-32" d="M93.5,196.2h-.4v9.4h.4Z"/><path class="cls-32" d="M89.8,205.6v-9.4h-.4v9.4h.4Z"/><path class="cls-32" d="M116.5,196.2h-.4v8.1h.4Z"/><path class="cls-32" d="M118.3,196.2h-.4v7.9h.4Z"/><path class="cls-32" d="M111.1,196.2h-.4v8.7h.4Z"/><path class="cls-32" d="M119.8,196.2h-.4v7.5h.4Z"/><path class="cls-32" d="M114,196.2h-.4v8.4h.4Z"/><path class="cls-32" d="M100.7,196.2h-.4v9.2h.4Z"/><path class="cls-32" d="M97.1,196.2h-.4v9.3h.4Z"/><path class="cls-32" d="M104.4,196.2H104v9.1h.4Z"/><path class="cls-32" d="M108,196.2h-.4v8.9h.4Z"/><ellipse class="cls-33" cx="89.6" cy="196.2" rx="31.1" ry="2.6"/><path class="cls-38" d="M62,188.5v6.8c0,1.4,13.9,2.6,31.1,2.6s31.1-1.2,31.1-2.6v-6.8Z"/><path class="cls-32" d="M82.4,188.5H82v9.2h.4Z"/><path class="cls-32" d="M78.7,188.5h-.3v9.1h.3Z"/><path class="cls-32" d="M86,188.5h-.4v9.3H86Z"/><path class="cls-32" d="M89.6,188.5h-.3v9.4h.3Z"/><path class="cls-32" d="M75.1,188.5h-.4v8.9h.4Z"/><path class="cls-32" d="M72,188.5h-.4v8.7H72Z"/><path class="cls-32" d="M63,195.9h.3v-7.5H63Z"/><path class="cls-32" d="M64.8,188.5h-.4v7.8h.4Z"/><path class="cls-32" d="M66.6,188.5h-.3v8.1h.3Z"/><path class="cls-32" d="M69.1,188.5h-.4v8.4h.4Z"/><path class="cls-32" d="M96.9,188.5h-.4v9.4h.4Z"/><path class="cls-32" d="M93.3,197.9v-9.4h-.4v9.4h.4Z"/><path class="cls-32" d="M119.9,188.5h-.4v8.2h.4Z"/><path class="cls-32" d="M121.7,188.5h-.3v7.9h.3Z"/><path class="cls-32" d="M114.6,188.5h-.4v8.7h.4Z"/><path class="cls-32" d="M123.2,188.5h-.4V196h.4Z"/><path class="cls-32" d="M117.4,188.5h-.3v8.4h.3Z"/><path class="cls-32" d="M104.2,188.5h-.4v9.2h.4Z"/><path class="cls-32" d="M100.5,188.5h-.3v9.3h.3Z"/><path class="cls-32" d="M107.8,188.5h-.4v9.1h.4Z"/><path class="cls-32" d="M111.4,188.5h-.3v8.9h.3Z"/><path class="cls-33" d="M124.2,188.5c0,1.4-14,2.6-31.1,2.6S62,189.9,62,188.5s13.9-2.6,31.1-2.6S124.2,187.1,124.2,188.5Z"/><path class="cls-39" d="M55.7,180.7v6.8c0,1.4,13.9,2.6,31,2.6s31.1-1.2,31.1-2.6v-6.8Z"/><path class="cls-32" d="M76,180.7h-.3v9.2H76Z"/><path class="cls-32" d="M72.4,180.7H72v9.1h.4Z"/><path class="cls-32" d="M79.7,180.7h-.4V190h.4Z"/><path class="cls-32" d="M83.3,180.7h-.4v9.4h.4Z"/><path class="cls-32" d="M68.8,180.7h-.4v8.9h.4Z"/><path class="cls-32" d="M65.6,180.7h-.3v8.7h.3Z"/><path class="cls-32" d="M56.6,188.2H57v-7.6h-.4Z"/><path class="cls-32" d="M58.5,180.7h-.4v7.8h.4Z"/><path class="cls-32" d="M60.3,180.7h-.4v8.1h.4Z"/><path class="cls-32" d="M62.8,180.7h-.4v8.4h.4Z"/><path class="cls-32" d="M90.6,180.7h-.4v9.4h.4Z"/><path class="cls-32" d="M86.9,190.1v-9.4h-.3v9.4h.3Z"/><path class="cls-32" d="M113.6,180.7h-.4v8.2h.4Z"/><path class="cls-32" d="M115.4,180.7H115v7.9h.4Z"/><path class="cls-32" d="M108.2,180.7h-.4v8.7h.4Z"/><path class="cls-32" d="M116.9,180.7h-.4v7.6h.4Z"/><path class="cls-32" d="M111.1,180.7h-.4v8.5h.4Z"/><path class="cls-32" d="M97.8,180.7h-.4v9.2h.4Z"/><path class="cls-32" d="M94.2,180.7h-.4V190h.4Z"/><path class="cls-32" d="M101.5,180.7h-.4v9.1h.4Z"/><path class="cls-32" d="M105.1,180.7h-.4v8.9h.4Z"/><ellipse class="cls-33" cx="86.7" cy="180.7" rx="31.1" ry="2.6"/><path class="cls-40" d="M58.2,172.5v6.7c0,1.5,13.9,2.6,31.1,2.6s31-1.1,31-2.6v-6.7Z"/><path class="cls-32" d="M78.6,172.5h-.4v9.2h.4Z"/><path class="cls-32" d="M74.9,172.5h-.4v9h.4Z"/><path class="cls-32" d="M82.2,172.5h-.4v9.2h.4Z"/><path class="cls-32" d="M85.8,172.5h-.4v9.3h.4Z"/><path class="cls-32" d="M71.3,172.5h-.4v8.8h.4Z"/><path class="cls-32" d="M68.2,172.5h-.4v8.6h.4Z"/><path class="cls-32" d="M59.1,179.9h.4v-7.5h-.4Z"/><path class="cls-32" d="M61,172.5h-.4v7.7H61Z"/><path class="cls-32" d="M62.8,172.5h-.4v8h.4Z"/><path class="cls-32" d="M65.3,172.5h-.4v8.3h.4Z"/><path class="cls-32" d="M93.1,172.5h-.4v9.3h.4Z"/><path class="cls-32" d="M89.4,181.8v-9.3h-.3v9.3h.3Z"/><path class="cls-32" d="M116.1,172.5h-.4v8.1h.4Z"/><path class="cls-32" d="M117.9,172.5h-.4v7.8h.4Z"/><path class="cls-32" d="M110.7,172.5h-.3v8.6h.3Z"/><path class="cls-32" d="M119.4,172.5H119V180h.4Z"/><path class="cls-32" d="M113.6,172.5h-.4v8.4h.4Z"/><path class="cls-32" d="M100.3,172.5H100v9.2h.3Z"/><path class="cls-32" d="M96.7,172.5h-.4v9.3h.4Z"/><path class="cls-32" d="M104,172.5h-.4v9h.4Z"/><path class="cls-32" d="M107.6,172.5h-.4v8.8h.4Z"/><ellipse class="cls-33" cx="89.3" cy="172.5" rx="31.1" ry="2.6"/><path class="cls-41" d="M58.2,164.8v6.7c0,1.5,13.9,2.6,31.1,2.6s31-1.1,31-2.6v-6.7Z"/><path class="cls-32" d="M78.6,164.8h-.4V174h.4Z"/><path class="cls-32" d="M74.9,164.8h-.4v9h.4Z"/><path class="cls-32" d="M82.2,164.8h-.4V174h.4Z"/><path class="cls-32" d="M85.8,164.8h-.4v9.3h.4Z"/><path class="cls-32" d="M71.3,164.8h-.4v8.8h.4Z"/><path class="cls-32" d="M68.2,164.8h-.4v8.6h.4Z"/><path class="cls-32" d="M59.1,172.2h.4v-7.5h-.4Z"/><path class="cls-32" d="M61,164.8h-.4v7.7H61Z"/><path class="cls-32" d="M62.8,164.8h-.4v8h.4Z"/><path class="cls-32" d="M65.3,164.8h-.4v8.3h.4Z"/><path class="cls-32" d="M93.1,164.8h-.4v9.3h.4Z"/><path class="cls-32" d="M89.4,174.1v-9.3h-.3v9.3h.3Z"/><path class="cls-32" d="M116.1,164.8h-.4v8.1h.4Z"/><path class="cls-32" d="M117.9,164.8h-.4v7.8h.4Z"/><path class="cls-32" d="M110.7,164.8h-.3v8.6h.3Z"/><path class="cls-32" d="M119.4,164.8H119v7.5h.4Z"/><path class="cls-32" d="M113.6,164.8h-.4v8.4h.4Z"/><path class="cls-32" d="M100.3,164.8H100V174h.3Z"/><path class="cls-32" d="M96.7,164.8h-.4v9.3h.4Z"/><path class="cls-32" d="M104,164.8h-.4v9h.4Z"/><path class="cls-32" d="M107.6,164.8h-.4v8.8h.4Z"/><ellipse class="cls-33" cx="89.3" cy="164.8" rx="31.1" ry="2.6"/><path class="cls-42" d="M264.2,211.8v6.8c0,1.4,13.9,2.6,31.1,2.6s31.1-1.2,31.1-2.6v-6.8Z"/><path class="cls-32" d="M284.6,211.8h-.4V221h.4Z"/><path class="cls-32" d="M281,211.8h-.4v9.1h.4Z"/><path class="cls-32" d="M288.2,211.8h-.4v9.3h.4Z"/><path class="cls-32" d="M291.9,211.8h-.4v9.4h.4Z"/><path class="cls-32" d="M277.3,211.8h-.4v8.9h.4Z"/><path class="cls-32" d="M274.2,211.8h-.4v8.7h.4Z"/><path class="cls-32" d="M265.2,219.2l.4.2v-7.6h-.4Z"/><path class="cls-32" d="M267,211.8h-.4v7.8h.4Z"/><path class="cls-32" d="M268.9,211.8h-.4v8.1h.4Z"/><path class="cls-32" d="M271.3,211.8h-.4v8.4h.4Z"/><path class="cls-32" d="M299.1,211.8h-.4v9.4h.4Z"/><path class="cls-32" d="M295.5,221.2v-9.4h-.4v9.4h.4Z"/><path class="cls-32" d="M322.1,211.8h-.4V220h.4Z"/><path class="cls-32" d="M323.9,211.8h-.3v7.9h.3Z"/><path class="cls-32" d="M316.8,211.8h-.4v8.7h.4Z"/><path class="cls-32" d="M325.4,211.8H325v7.6l.4-.2Z"/><path class="cls-32" d="M319.7,211.8h-.4v8.5h.4Z"/><path class="cls-32" d="M306.4,211.8H306V221h.4Z"/><path class="cls-32" d="M302.8,211.8h-.4v9.3h.4Z"/><path class="cls-32" d="M310,211.8h-.4v9.1h.4Z"/><path class="cls-32" d="M313.6,211.8h-.3v8.9h.3Z"/><ellipse class="cls-33" cx="295.3" cy="211.8" rx="31.1" ry="2.6"/><path class="cls-43" d="M265.1,204v6.8c0,1.4,14,2.6,31.1,2.6s31.1-1.2,31.1-2.6V204Z"/><path class="cls-32" d="M285.5,204h-.4v9.2h.4Z"/><path class="cls-32" d="M281.9,204h-.4v9.1h.4Z"/><path class="cls-32" d="M289.1,204h-.3v9.3h.3Z"/><path class="cls-32" d="M292.8,204h-.4v9.4h.4Z"/><path class="cls-32" d="M278.2,204h-.3v8.9h.3Z"/><path class="cls-32" d="M275.1,204h-.4v8.7h.4Z"/><path class="cls-32" d="M266.1,211.4h.4V204h-.4Z"/><path class="cls-32" d="M267.9,204h-.3v7.8h.3Z"/><path class="cls-32" d="M269.8,204h-.4v8.1h.4Z"/><path class="cls-32" d="M272.2,204h-.3v8.4h.3Z"/><path class="cls-32" d="M300,204h-.3v9.4h.3Z"/><path class="cls-32" d="M296.4,213.4V204H296v9.4h.4Z"/><path class="cls-32" d="M323,204h-.3v8.2h.3Z"/><path class="cls-32" d="M324.9,204h-.4v7.9h.4Z"/><path class="cls-32" d="M317.7,204h-.4v8.7h.4Z"/><path class="cls-32" d="M326.3,204H326v7.5h.3Z"/><path class="cls-32" d="M320.6,204h-.4v8.4h.4Z"/><path class="cls-32" d="M307.3,204h-.4v9.2h.4Z"/><path class="cls-32" d="M303.7,204h-.4v9.3h.4Z"/><path class="cls-32" d="M310.9,204h-.3v9.1h.3Z"/><path class="cls-32" d="M314.6,204h-.4v8.9h.4Z"/><path class="cls-33" d="M327.3,204c0,1.4-13.9,2.6-31.1,2.6s-31.1-1.2-31.1-2.6,14-2.6,31.1-2.6S327.3,202.6,327.3,204Z"/><path class="cls-44" d="M264.2,196.2V203c0,1.4,13.9,2.6,31.1,2.6s31.1-1.2,31.1-2.6v-6.8Z"/><path class="cls-32" d="M284.6,196.2h-.4v9.2h.4Z"/><path class="cls-32" d="M281,196.2h-.4v9.1h.4Z"/><path class="cls-32" d="M288.2,196.2h-.4v9.3h.4Z"/><path class="cls-32" d="M291.9,196.2h-.4v9.3h.4Z"/><path class="cls-32" d="M277.3,196.2h-.4v8.9h.4Z"/><path class="cls-32" d="M274.2,196.2h-.4v8.7h.4Z"/><path class="cls-32" d="M265.2,203.6h.4v-7.5h-.4Z"/><path class="cls-32" d="M267,196.2h-.4V204h.4Z"/><path class="cls-32" d="M268.9,196.2h-.4v8.1h.4Z"/><path class="cls-32" d="M271.3,196.2h-.4v8.4h.4Z"/><path class="cls-32" d="M299.1,196.2h-.4v9.4h.4Z"/><path class="cls-32" d="M295.5,205.6v-9.4h-.4v9.4h.4Z"/><path class="cls-32" d="M322.1,196.2h-.4v8.1h.4Z"/><path class="cls-32" d="M323.9,196.2h-.3v7.9h.3Z"/><path class="cls-32" d="M316.8,196.2h-.4v8.7h.4Z"/><path class="cls-32" d="M325.4,196.2H325v7.5h.4Z"/><path class="cls-32" d="M319.7,196.2h-.4v8.4h.4Z"/><path class="cls-32" d="M306.4,196.2H306v9.2h.4Z"/><path class="cls-32" d="M302.8,196.2h-.4v9.3h.4Z"/><path class="cls-32" d="M310,196.2h-.4v9.1h.4Z"/><path class="cls-32" d="M313.6,196.2h-.3v8.9h.3Z"/><ellipse class="cls-33" cx="295.3" cy="196.2" rx="31.1" ry="2.6"/><path class="cls-45" d="M267.7,188.5v6.8c0,1.4,13.9,2.6,31,2.6s31.1-1.2,31.1-2.6v-6.8Z"/><path class="cls-32" d="M288,188.5h-.3v9.2h.3Z"/><path class="cls-32" d="M284.4,188.5H284v9.1h.4Z"/><path class="cls-32" d="M291.7,188.5h-.4v9.3h.4Z"/><path class="cls-32" d="M295.3,188.5h-.4v9.4h.4Z"/><path class="cls-32" d="M280.8,188.5h-.4v8.9h.4Z"/><path class="cls-32" d="M277.6,188.5h-.3v8.7h.3Z"/><path class="cls-32" d="M268.6,195.9h.4v-7.5h-.4Z"/><path class="cls-32" d="M270.5,188.5h-.4v7.8h.4Z"/><path class="cls-32" d="M272.3,188.5h-.4v8.1h.4Z"/><path class="cls-32" d="M274.8,188.5h-.4v8.4h.4Z"/><path class="cls-32" d="M302.6,188.5h-.4v9.4h.4Z"/><path class="cls-32" d="M298.9,197.9v-9.4h-.4v9.4h.4Z"/><path class="cls-32" d="M325.6,188.5h-.4v8.2h.4Z"/><path class="cls-32" d="M327.4,188.5H327v7.9h.4Z"/><path class="cls-32" d="M320.2,188.5h-.4v8.7h.4Z"/><path class="cls-32" d="M328.9,188.5h-.4V196h.4Z"/><path class="cls-32" d="M323.1,188.5h-.4v8.4h.4Z"/><path class="cls-32" d="M309.8,188.5h-.4v9.2h.4Z"/><path class="cls-32" d="M306.2,188.5h-.4v9.3h.4Z"/><path class="cls-32" d="M313.5,188.5h-.4v9.1h.4Z"/><path class="cls-32" d="M317.1,188.5h-.4v8.9h.4Z"/><path class="cls-33" d="M329.8,188.5c0,1.4-13.9,2.6-31.1,2.6s-31-1.2-31-2.6,13.9-2.6,31-2.6S329.8,187.1,329.8,188.5Z"/><path class="cls-46" d="M261.3,180.7v6.8c0,1.4,13.9,2.6,31.1,2.6s31.1-1.2,31.1-2.6v-6.8Z"/><path class="cls-32" d="M281.7,180.7h-.4v9.2h.4Z"/><path class="cls-32" d="M278.1,180.7h-.4v9.1h.4Z"/><path class="cls-32" d="M285.3,180.7h-.4V190h.4Z"/><path class="cls-32" d="M289,180.7h-.4v9.4h.4Z"/><path class="cls-32" d="M274.4,180.7H274v8.9h.4Z"/><path class="cls-32" d="M271.3,180.7h-.4v8.7h.4Z"/><path class="cls-32" d="M262.3,188.2h.4v-7.6h-.4Z"/><path class="cls-32" d="M264.1,180.7h-.4v7.8h.4Z"/><path class="cls-32" d="M266,180.7h-.4v8.1h.4Z"/><path class="cls-32" d="M268.4,180.7H268v8.4h.4Z"/><path class="cls-32" d="M296.2,180.7h-.4v9.4h.4Z"/><path class="cls-32" d="M292.6,190.1v-9.4h-.4v9.4h.4Z"/><path class="cls-32" d="M319.2,180.7h-.4v8.2h.4Z"/><path class="cls-32" d="M321.1,180.7h-.4v7.9h.4Z"/><path class="cls-32" d="M313.9,180.7h-.4v8.7h.4Z"/><path class="cls-32" d="M322.5,180.7h-.4v7.6h.4Z"/><path class="cls-32" d="M316.8,180.7h-.4v8.5h.4Z"/><path class="cls-32" d="M303.5,180.7h-.4v9.2h.4Z"/><path class="cls-32" d="M299.9,180.7h-.4V190h.4Z"/><path class="cls-32" d="M307.1,180.7h-.4v9.1h.4Z"/><path class="cls-32" d="M310.8,180.7h-.4v8.9h.4Z"/><ellipse class="cls-33" cx="292.4" cy="180.7" rx="31.1" ry="2.6"/><path class="cls-47" d="M263.8,172.5v6.7c0,1.5,13.9,2.6,31.1,2.6s31.1-1.1,31.1-2.6v-6.7Z"/><path class="cls-32" d="M284.2,172.5h-.4v9.2h.4Z"/><path class="cls-32" d="M280.6,172.5h-.4v9h.4Z"/><path class="cls-32" d="M287.8,172.5h-.3v9.2h.3Z"/><path class="cls-32" d="M291.5,172.5h-.4v9.3h.4Z"/><path class="cls-32" d="M276.9,172.5h-.3v8.8h.3Z"/><path class="cls-32" d="M273.8,172.5h-.4v8.6h.4Z"/><path class="cls-32" d="M264.8,179.9h.4v-7.5h-.4Z"/><path class="cls-32" d="M266.6,172.5h-.3v7.7h.3Z"/><path class="cls-32" d="M268.5,172.5h-.4v8h.4Z"/><path class="cls-32" d="M270.9,172.5h-.3v8.3h.3Z"/><path class="cls-32" d="M298.7,172.5h-.3v9.3h.3Z"/><path class="cls-32" d="M295.1,181.8v-9.3h-.4v9.3h.4Z"/><path class="cls-32" d="M321.7,172.5h-.3v8.1h.3Z"/><path class="cls-32" d="M323.6,172.5h-.4v7.8h.4Z"/><path class="cls-32" d="M316.4,172.5H316v8.6h.4Z"/><path class="cls-32" d="M325,172.5h-.3V180h.3Z"/><path class="cls-32" d="M319.3,172.5h-.4v8.4h.4Z"/><path class="cls-32" d="M306,172.5h-.4v9.2h.4Z"/><path class="cls-32" d="M302.4,172.5H302v9.3h.4Z"/><path class="cls-32" d="M309.6,172.5h-.3v9h.3Z"/><path class="cls-32" d="M313.3,172.5h-.4v8.8h.4Z"/><ellipse class="cls-33" cx="294.9" cy="172.5" rx="31.1" ry="2.6"/><path class="cls-34" d="M100.9,87.5c4.6.2,6.2,2.2,6.3,4.2s-1.7,2.9-1.7,4.7,2.4,3.5,1.8,6.4a7.1,7.1,0,0,1-2.1,4.2l-23.3,2.3s-1-4.4.8-7.4S89,99,90.3,94.1,95.4,84.6,100.9,87.5Z"/><path class="cls-3" d="M98.9,104.2s8.7,0,11.1,2.1c4.3,3.6,10,37.5,10,37.5H74.7l8.4-13.2L81.7,106S83.1,103.4,98.9,104.2Z"/><path class="cls-34" d="M120,143.8s-.1-.6-.2-1.6l-39-7.9-6.1,9.5Z"/><path class="cls-10" d="M111.7,142l2.6,7.1,2.1,17.3H92.1c-7.4,0-21.7,0-21.7-9.8S76.7,142,76.7,142Z"/><polygon class="cls-34" points="87.1 115.9 83.1 130.6 82.5 120.2 87.1 115.9"/><path class="cls-10" d="M95.4,101.4a26.9,26.9,0,0,0-5.5,3.8c-1.7,1.8,5.5,4.2,5.5,4.2s-2.3,1.1,0,2.5,5.8,1.2,6.8,3c0,0,1.1-2,1.8-3a1.8,1.8,0,0,0-1.1-3c1.6-1.6,2.2-3.5,1.3-4.4s-5.3-2.3-5.3-2.3Z"/><line class="cls-48" x1="108.4" y1="112.8" x2="109.8" y2="125.1"/><path class="cls-49" d="M101.9,113.4l.4,3.5a11.1,11.1,0,0,1-.6,5.1l-8.4,21.8"/><rect class="cls-50" x="82.5" y="147.4" width="22.3" height="1.75"/><path class="cls-25" d="M88.5,142l14.6,1s6.1,1.8,6.7,3.7H98.7l-11.6,1.5Z"/><polygon class="cls-51" points="132.7 149.1 101.7 149.1 108.9 119.7 139.9 119.7 132.7 149.1"/><polygon class="cls-50" points="100.2 149.1 102.4 149.1 109.6 119.7 107.4 119.7 100.2 149.1"/><path class="cls-50" d="M125.4,135.9h-9.9a1.2,1.2,0,0,1-1.2-1.5h0a2.1,2.1,0,0,1,1.9-1.5h9.9a1.1,1.1,0,0,1,1.1,1.5h0A2,2,0,0,1,125.4,135.9Z"/><path class="cls-25" d="M107.1,149.1c4.8,0,19.8-2.4,22.7,10.9s6.9,50.2,6.9,50.2l3.6,8.4,3.1,2.8a.6.6,0,0,1-.4,1,10.8,10.8,0,0,1-6.3-2.1,8.3,8.3,0,0,1-3.6-5.6v6.7h-1.4s-2.6-7.8.5-10.8c0,0-3.2-10.8-5.9-16.5s-8.8-18.9-7.5-27.7h-8Z"/><path class="cls-29" d="M129.5,158.6c-3.7-11.8-17.7-9.5-22.4-9.5l3.8,17.3h8a23.1,23.1,0,0,0,.4,8.2C118,167.5,125.4,159.1,129.5,158.6Z"/><path class="cls-52" d="M133.2,221.4v-6.7a8.3,8.3,0,0,0,3.6,5.6,10.8,10.8,0,0,0,6.3,2.1.6.6,0,0,0,.4-1l-3.1-2.8-1.6-3.8-2.3,1.3a30.5,30.5,0,0,0-4.7-4.8c-2.1,3.4.1,10.1.1,10.1Z"/><path class="cls-25" d="M99.9,91.2a7.8,7.8,0,0,1-3,3.7s-.5-1.2-1.6-.9-1.3,2.8.8,3l-2.4,7.2s5.5,4.4,7.6,7.7c0,0,.3-5.5-1-7.8l.6-3.2a2.9,2.9,0,0,0,2-1.1c.7-1,.2-2.8.5-3.9s.6-2,.6-2A4.7,4.7,0,0,1,99.9,91.2Z"/><path class="cls-29" d="M100.9,100.9a4.5,4.5,0,0,1-4-2,3.8,3.8,0,0,0,3.7,3.5Z"/><path class="cls-25" d="M98.2,150.4a13.2,13.2,0,0,0-3.1,14.8,1.9,1.9,0,0,0,1.8,1.2h1.5A65.6,65.6,0,0,0,95.8,185c0,10.7-1.5,21-4.1,25s-2.1,7.2-1.4,12.7h1l.4-6.2a13.4,13.4,0,0,0,3.1,5.4c2,1.8,6,3.1,6.3,2.7s-2.6-4.8-2.6-4.8l-1.7-9.1,11.1-30.8c3-8.5,5.4-16.9,6.4-20.3s-1.2-10.5-7.1-10.5h-5.9A4.4,4.4,0,0,0,98.2,150.4Z"/><path class="cls-53" d="M98.4,166.4a30.8,30.8,0,0,1,5.1-8.9"/><path class="cls-29" d="M94.6,156.1a13.2,13.2,0,0,0,.5,9.1,1.7,1.7,0,0,0,1.7,1.2h1.6a27.5,27.5,0,0,1,3.3-6.5A16.8,16.8,0,0,1,94.6,156.1Z"/><path class="cls-52" d="M97.8,215.8l-3,.6c-1.2-1.2-2.6-4.6-3.2-6.2-2,3.4-2,7.1-1.3,12.5h1l.4-6.2a13.4,13.4,0,0,0,3.1,5.4c2,1.8,6,3.1,6.3,2.7s-2.6-4.8-2.6-4.8Z"/><path class="cls-3" d="M81.7,106c-5.3,5.6-36.9,37.4-20.6,43.2,8.6,3,26.8.8,26.8.8l1.4-8.7-16.2-2,14-23.4S86.3,108.2,81.7,106Z"/><path class="cls-34" d="M73.1,139.3l-7.3-.8S70,135.8,73.1,139.3Z"/><circle class="cls-9" cx="3.7" cy="191.1" r="3.4"/></svg>