<svg xmlns="http://www.w3.org/2000/svg" viewBox="0 0 366.8 229"><defs><style>.cls-1{isolation:isolate;}.cls-2{fill:#263238;}.cls-3{fill:#cfcce6;}.cls-4{fill:#d9d7ec;}.cls-5{fill:#eae5f2;}.cls-6{fill:#c0c5e4;}.cls-7{fill:#8282be;}.cls-8{fill:#9ea2d1;}.cls-39,.cls-9{fill:none;stroke-miterlimit:10;}.cls-9{stroke:#9ea2d1;stroke-width:1.5px;}.cls-10{fill:#0a1929;}.cls-11{fill:#797a7a;}.cls-12,.cls-41{fill:#fff;}.cls-13{fill:#faa819;}.cls-14{fill:#b2add6;}.cls-15,.cls-17,.cls-22,.cls-24,.cls-25,.cls-34,.cls-37{mix-blend-mode:multiply;}.cls-15{opacity:0.15;}.cls-16{fill:#010101;opacity:0.26;}.cls-17{opacity:0.62;}.cls-18{fill:#d6dcdb;}.cls-19{fill:#f0efef;}.cls-20{fill:#14133c;}.cls-21{fill:#d1cee8;}.cls-22{fill:#c6c2e1;opacity:0.55;}.cls-23,.cls-34{fill:#96ceb4;}.cls-24,.cls-26{fill:#5a57a6;}.cls-24,.cls-25{opacity:0.35;}.cls-27{fill:#8d8dc5;}.cls-28{fill:#e3ddee;}.cls-29{fill:#f8c117;}.cls-30{fill:#f9b8b0;}.cls-31{fill:#6b65ae;}.cls-32{fill:#ed9d80;}.cls-33{fill:#382e7c;}.cls-34,.cls-37{opacity:0.25;}.cls-35{fill:#a7a4d1;}.cls-36{fill:#7973b6;}.cls-38{fill:#cf4b2f;}.cls-39{stroke:#a7a4d1;}.cls-39,.cls-41,.cls-42{opacity:0.45;}.cls-40{fill:#515251;}.cls-43{fill:#f2a182;}.cls-44{fill:#605faa;}.cls-45{fill:#b5b4da;}.cls-46{fill:#6962ac;}.cls-47{fill:#1f1953;}.cls-48{fill:#fbbd9e;}.cls-49{fill:#3c2e7a;}.cls-50{fill:#e9e5f2;}.cls-51{fill:#e0d8ec;}.cls-52{fill:#f5f6f6;}</style></defs><g class="cls-1"><g id="Layer_1" data-name="Layer 1"><path class="cls-2" d="M375.8,211.1H-1.4c0-.1,84.4-.2,188.6-.2S375.8,211,375.8,211.1Z"/><path class="cls-3" d="M38.8,205.9c0,3.7,47.3,6.7,105.6,6.7s105.5-3,105.5-6.7-47.2-6.8-105.5-6.8S38.8,202.2,38.8,205.9Z"/><path class="cls-3" d="M103.2,214.2c0,2.4-12,4.2-26.8,4.2s-26.8-1.8-26.8-4.2,12-4.2,26.8-4.2S103.2,211.9,103.2,214.2Z"/><ellipse class="cls-3" cx="281.5" cy="215.1" rx="45" ry="3.3"/><polygon class="cls-4" points="49.3 159.6 47.6 183.7 70.7 183.7 69.1 159.5 49.3 159.6"/><path class="cls-5" d="M53.9,161.7h0a.8.8,0,0,1,.8-.7h0a.8.8,0,0,1,.8.7.9.9,0,0,1-.8.7h0A.8.8,0,0,1,53.9,161.7Zm.8-.4a.4.4,0,1,0,0,.8h0a.4.4,0,1,0,0-.8Zm-.7.4Z"/><path class="cls-5" d="M61.8,161.7h0a.6.6,0,0,1,.2-.5l.6-.2h0a.8.8,0,0,1,.8.7.5.5,0,0,1-.3.4c-.1.2-.3.2-.5.2h0C62.1,162.3,61.8,162,61.8,161.7Zm.8-.4h-.5c0,.1-.1.1-.1.3h0c0,.2.3.4.6.4h0l.4-.2a.3.3,0,0,0,.1-.2c0-.3-.2-.4-.5-.4Z"/><path class="cls-5" d="M58.4,166.5h.2a4.2,4.2,0,0,0,3.3-1.3,5.1,5.1,0,0,0,.9-3.6c0-.1-.1-.2-.3-.2s-.2.2-.2.3a4.1,4.1,0,0,1-.8,3.1,3.4,3.4,0,0,1-2.9,1.2,3.5,3.5,0,0,1-2.8-.9,4.4,4.4,0,0,1-.8-3.4.3.3,0,0,0-.3-.3l-.3.2a5.3,5.3,0,0,0,1,3.8A3.7,3.7,0,0,0,58.4,166.5Z"/><polygon class="cls-6" points="60.2 166.3 57.4 184.3 82.5 184.3 79.9 166.3 60.2 166.3"/><path class="cls-7" d="M50.9,196.7a5.1,5.1,0,1,0,5.1,5.1A5.1,5.1,0,0,0,50.9,196.7Zm0,7.4a2.3,2.3,0,0,1-2.4-2.3,2.4,2.4,0,0,1,4.8,0A2.3,2.3,0,0,1,50.9,204.1Z"/><path class="cls-8" d="M50.1,196.7a5.1,5.1,0,1,0,0,10.2,5.1,5.1,0,0,0,0-10.2Zm0,7.4a2.3,2.3,0,0,1-2.4-2.3,2.4,2.4,0,0,1,2.4-2.4,2.3,2.3,0,0,1,2.3,2.4A2.3,2.3,0,0,1,50.1,204.1Z"/><path class="cls-7" d="M79.6,196.7a5.1,5.1,0,1,0,5.1,5.1A5.1,5.1,0,0,0,79.6,196.7Zm0,7.4a2.3,2.3,0,0,1-2.4-2.3,2.4,2.4,0,0,1,4.8,0A2.3,2.3,0,0,1,79.6,204.1Z"/><path class="cls-8" d="M78.8,196.7a5.1,5.1,0,1,0,0,10.2,5.1,5.1,0,0,0,0-10.2Zm0,7.4a2.3,2.3,0,0,1-2.4-2.3,2.4,2.4,0,0,1,2.4-2.4,2.3,2.3,0,0,1,2.3,2.4A2.3,2.3,0,0,1,78.8,204.1Z"/><path class="cls-9" d="M117.9,139.7H102.7a4.7,4.7,0,0,0-4,2.2l-9.2,14.8"/><path class="cls-9" d="M48.5,183.9H82.6a3.8,3.8,0,0,0,3.7-3.1l3.5-22a3.7,3.7,0,0,0-3.7-4.3H45a3.7,3.7,0,0,0-3.7,4.3l3.5,22A3.8,3.8,0,0,0,48.5,183.9Z"/><line class="cls-9" x1="65.6" y1="154.5" x2="65.6" y2="183.9"/><line class="cls-9" x1="88.1" y1="169.2" x2="43" y2="169.2"/><line class="cls-9" x1="79" y1="154.5" x2="76.1" y2="183.9"/><line class="cls-9" x1="52.8" y1="154.5" x2="55.4" y2="183.9"/><path class="cls-9" d="M85.5,182.6l5.5,8.2a3.3,3.3,0,0,1-2.8,5.2H43"/><rect class="cls-10" x="157.4" y="186.5" width="46.8" height="12.59"/><rect class="cls-10" x="100" y="73.9" width="162.2" height="116.69" rx="9.4"/><rect class="cls-11" x="104.5" y="78.1" width="152.6" height="101.23" rx="5.8"/><path class="cls-10" d="M144.6,198H217a7.3,7.3,0,0,1,7.3,7.3v.6a0,0,0,0,1,0,0h-87a0,0,0,0,1,0,0v-.6A7.3,7.3,0,0,1,144.6,198Z"/><rect class="cls-12" x="141" y="85.1" width="106.8" height="71.79" rx="4.7"/><rect class="cls-13" x="151.1" y="137.6" width="4.7" height="11.68"/><rect class="cls-14" x="161.6" y="127.3" width="4.7" height="21.93"/><rect class="cls-13" x="172.1" y="129.6" width="4.7" height="19.66"/><rect class="cls-14" x="182.6" y="118.5" width="4.7" height="30.77"/><g class="cls-15"><rect class="cls-16" x="161.6" y="127.3" width="2.1" height="21.93"/></g><g class="cls-15"><rect class="cls-16" x="151.1" y="137.6" width="2.1" height="11.68"/></g><g class="cls-17"><rect class="cls-16" x="182.6" y="118.5" width="2.1" height="30.77"/></g><g class="cls-15"><rect class="cls-16" x="172.1" y="129.6" width="2.1" height="19.66"/></g><polygon class="cls-18" points="189.7 152.5 148 152.5 148 108.1 148.7 108.1 148.7 151.8 189.7 151.8 189.7 152.5"/><polygon class="cls-18" points="152.3 132.1 151.9 131.6 162.8 121.9 172.9 124 183.8 111.9 184.3 112.3 173.1 124.7 163 122.5 152.3 132.1"/><polygon class="cls-18" points="185.1 114.1 182 111.2 186 110.1 185.1 114.1"/><rect class="cls-14" x="193.6" y="136.8" width="3.2" height="3.19"/><rect class="cls-13" x="193.6" y="142.3" width="3.2" height="3.19"/><rect class="cls-19" x="197.7" y="143.7" width="10.1" height="1.82"/><rect class="cls-19" x="197.7" y="138.1" width="10.1" height="1.82"/><rect class="cls-14" x="212.4" y="136.8" width="3.2" height="3.19"/><rect class="cls-13" x="212.4" y="142.3" width="3.2" height="3.19"/><rect class="cls-19" x="216.5" y="143.7" width="10.1" height="1.82"/><rect class="cls-19" x="216.5" y="138.1" width="10.1" height="1.82"/><rect class="cls-14" x="229.3" y="136.8" width="3.2" height="3.19"/><rect class="cls-13" x="229.3" y="142.3" width="3.2" height="3.19"/><rect class="cls-19" x="233.4" y="143.7" width="6.7" height="1.82"/><rect class="cls-19" x="233.4" y="138.1" width="6.7" height="1.82"/><rect class="cls-19" x="194.2" y="106.2" width="45.8" height="0.83"/><rect class="cls-19" x="148" y="96" width="92" height="1.91"/><rect class="cls-19" x="194.1" y="108.8" width="46" height="0.83"/><rect class="cls-19" x="194.1" y="103.6" width="46" height="0.83"/><rect class="cls-19" x="194.1" y="111.4" width="46" height="0.83"/><rect class="cls-19" x="194.1" y="114" width="46" height="0.83"/><rect class="cls-19" x="194.1" y="116.6" width="46" height="0.83"/><rect class="cls-19" x="194.1" y="119.2" width="46" height="0.83"/><rect class="cls-19" x="194.1" y="121.8" width="46" height="0.83"/><rect class="cls-19" x="194.1" y="124.4" width="46" height="0.83"/><rect class="cls-19" x="199.7" y="127" width="40.4" height="0.83"/><path class="cls-20" d="M243.1,85.1H145.6a4.7,4.7,0,0,0-4.6,4.7v4.1H247.8V89.8A4.7,4.7,0,0,0,243.1,85.1Z"/><path class="cls-21" d="M234,89.7a1.3,1.3,0,0,1-1.3,1.3,1.3,1.3,0,0,1-1.4-1.3,1.4,1.4,0,0,1,1.4-1.4A1.3,1.3,0,0,1,234,89.7Z"/><circle class="cls-21" cx="238.2" cy="89.7" r="1.3"/><circle class="cls-21" cx="243.7" cy="89.7" r="1.3"/><rect class="cls-22" x="112.6" y="101" width="106.8" height="71.79" rx="4.7"/><rect class="cls-23" x="114.8" y="98.2" width="106.8" height="71.79" rx="4.7"/><rect class="cls-13" x="124.9" y="150.7" width="4.7" height="11.68"/><rect class="cls-14" x="135.4" y="140.4" width="4.7" height="21.93"/><rect class="cls-13" x="145.9" y="142.7" width="4.7" height="19.66"/><rect class="cls-14" x="156.4" y="131.6" width="4.7" height="30.77"/><rect class="cls-16" x="135.4" y="140.4" width="2.1" height="21.93"/><rect class="cls-16" x="124.9" y="150.7" width="2.1" height="11.68"/><rect class="cls-16" x="156.4" y="131.6" width="2.1" height="30.77"/><rect class="cls-16" x="145.9" y="142.7" width="2.1" height="19.66"/><polygon class="cls-18" points="163.5 165.6 121.8 165.6 121.8 125.2 122.5 125.2 122.5 164.9 163.5 164.9 163.5 165.6"/><polygon class="cls-18" points="126.1 145.2 125.7 144.7 136.6 134.9 146.7 137.1 157.6 125 158.1 125.4 146.9 137.8 136.8 135.6 126.1 145.2"/><polygon class="cls-18" points="158.9 127.2 155.8 124.2 159.8 123.2 158.9 127.2"/><rect class="cls-14" x="167.4" y="149.8" width="3.2" height="3.19"/><rect class="cls-13" x="167.4" y="155.4" width="3.2" height="3.19"/><rect class="cls-19" x="171.5" y="156.8" width="10.1" height="1.82"/><rect class="cls-19" x="171.5" y="151.2" width="10.1" height="1.82"/><rect class="cls-14" x="186.2" y="149.8" width="3.2" height="3.19"/><rect class="cls-13" x="186.2" y="155.4" width="3.2" height="3.19"/><rect class="cls-19" x="190.3" y="156.8" width="10.1" height="1.82"/><rect class="cls-19" x="190.3" y="151.2" width="10.1" height="1.82"/><rect class="cls-14" x="203.1" y="149.8" width="3.2" height="3.19"/><rect class="cls-13" x="203.1" y="155.4" width="3.2" height="3.19"/><rect class="cls-19" x="207.2" y="156.8" width="6.7" height="1.82"/><rect class="cls-19" x="207.2" y="151.2" width="6.7" height="1.82"/><rect class="cls-19" x="168" y="119.3" width="45.8" height="0.83"/><rect class="cls-19" x="121.8" y="109.1" width="92" height="1.91"/><rect class="cls-19" x="167.9" y="121.9" width="46" height="0.83"/><rect class="cls-19" x="167.9" y="116.7" width="46" height="0.83"/><rect class="cls-19" x="167.9" y="124.5" width="46" height="0.83"/><rect class="cls-19" x="167.9" y="127.1" width="46" height="0.83"/><rect class="cls-19" x="167.9" y="129.7" width="46" height="0.83"/><rect class="cls-19" x="167.9" y="132.3" width="46" height="0.83"/><rect class="cls-19" x="167.9" y="134.9" width="46" height="0.83"/><rect class="cls-19" x="167.9" y="137.5" width="46" height="0.83"/><rect class="cls-19" x="173.5" y="140" width="40.4" height="0.83"/><path class="cls-20" d="M216.9,98.2H119.4a4.7,4.7,0,0,0-4.6,4.7V107H221.6v-4.1A4.7,4.7,0,0,0,216.9,98.2Z"/><path class="cls-21" d="M207.8,102.8a1.3,1.3,0,0,1-1.3,1.3,1.3,1.3,0,0,1-1.4-1.3,1.4,1.4,0,0,1,1.4-1.4A1.3,1.3,0,0,1,207.8,102.8Z"/><path class="cls-21" d="M213.3,102.8a1.3,1.3,0,0,1-1.3,1.3,1.3,1.3,0,0,1-1.4-1.3,1.4,1.4,0,0,1,1.4-1.4A1.3,1.3,0,0,1,213.3,102.8Z"/><path class="cls-21" d="M218.8,102.8a1.3,1.3,0,0,1-1.3,1.3,1.3,1.3,0,0,1-1.4-1.3,1.4,1.4,0,0,1,1.4-1.4A1.3,1.3,0,0,1,218.8,102.8Z"/><path class="cls-24" d="M252.9,74h-25c.2,8.1.3,16.2.4,24.3a11.7,11.7,0,0,1-.4,3.7h-.1c-.3,0-.1.1-.3.6h0c-1,1.6-3,2.5-4.9,3v.2a.5.5,0,0,0-.2.8c.1.2,1.5.6,3.5.4l2.1-.6.8-.5.8-.2h0l2.3-1-.5-2.2a.4.4,0,0,0-.1-.3,106.4,106.4,0,0,0,4.4-15.6,191.3,191.3,0,0,1-3,20.4,3.3,3.3,0,0,1-2.8,2c-.5.1-3.1-.1-2.9,1.1s1.5.9,3.4,1a6,6,0,0,0,2.3-.2,5.4,5.4,0,0,0,1.4-.7l.3.4,2.3-.6v-1.4a2.8,2.8,0,0,0-.5-1.4V106h1.3s2.7-8.6,3.9-11.5a27.5,27.5,0,0,0,1.5-3.6,34.1,34.1,0,0,0,.5-4.6A38.2,38.2,0,0,1,245,78a1.3,1.3,0,0,1,.3-.5c.2-.2.5-.2.8-.3,3.4-.3,4.9.3,7-.4s3.1-2.1,3.2-2.1A7.7,7.7,0,0,0,252.9,74Z"/><g class="cls-25"><path class="cls-26" d="M262.2,130V100.9c-4.4,5.7-8.6,10.8-13,16.4-1.8,2.5-9.2,10.6-4.2,13.9,1.3.8,3.5.8,4.6.9,4,.3,8-.8,11.9-1.9Z"/></g><path class="cls-24" d="M262.2,136.2l-2.4.2v-.2l-1.9.2-.5-1.6a2.4,2.4,0,0,0-2.4-1.5,1.3,1.3,0,0,0-1.2,1.8l.6,1.6h-2v.2l-4,.3c-.7,0-1.6.8-1.4,1.4h.1l3.5,9.9v41.8h4.1l7.7-30Zm-6.4-.3a1.4,1.4,0,0,1-1.3-.9c-.2-.5.1-.9.7-1a1.5,1.5,0,0,1,1.3.9C256.7,135.4,256.4,135.8,255.8,135.9Z"/><path class="cls-24" d="M110.2,119a19.2,19.2,0,0,0-2.4,4,4.4,4.4,0,0,1-2.3,2.1l-5.5,2.3v4.7l7.2-4.3c2.8,1,5.2-1.3,6-3s-.2-1.1-.2-1.5.2-1.3.2-1.4-2.9-.2-2.7-.6a2.8,2.8,0,0,1,1.1-1.7c1.3-.9,2.3-1.9,2.3-2.3S110.5,118.6,110.2,119Z"/><rect class="cls-11" x="254.9" y="143.1" width="63.1" height="72.92" rx="6.9"/><rect class="cls-27" x="260.7" y="150.7" width="53.3" height="14.98" rx="1.8"/><rect class="cls-27" x="260.7" y="171" width="13.7" height="9.51" rx="1.8"/><rect class="cls-27" x="280.5" y="171" width="13.7" height="9.51" rx="1.8"/><rect class="cls-27" x="300.3" y="171" width="13.7" height="9.51" rx="1.8"/><rect class="cls-27" x="260.7" y="186.3" width="13.7" height="9.51" rx="1.8"/><rect class="cls-27" x="280.5" y="186.3" width="13.7" height="9.51" rx="1.8"/><rect class="cls-27" x="260.7" y="201.6" width="13.7" height="9.51" rx="1.8"/><rect class="cls-27" x="280.5" y="201.6" width="13.7" height="9.51" rx="1.8"/><rect class="cls-27" x="300.3" y="186.3" width="13.7" height="24.79" rx="1.8"/><path class="cls-28" d="M259.7,151.4a1.8,1.8,0,0,1,1.7-1.7h50a1.8,1.8,0,0,1,1.7,1.7V163a1.7,1.7,0,0,1-1.7,1.7h-50"/><rect class="cls-28" x="259.7" y="170" width="13.7" height="9.51" rx="1.8"/><rect class="cls-28" x="279.5" y="170" width="13.7" height="9.51" rx="1.8"/><rect class="cls-28" x="299.4" y="170" width="13.7" height="9.51" rx="1.8"/><rect class="cls-28" x="259.7" y="185.3" width="13.7" height="9.51" rx="1.8"/><rect class="cls-28" x="279.5" y="185.3" width="13.7" height="9.51" rx="1.8"/><rect class="cls-28" x="259.7" y="200.6" width="13.7" height="9.51" rx="1.8"/><rect class="cls-28" x="279.5" y="200.6" width="13.7" height="9.51" rx="1.8"/><rect class="cls-13" x="299.4" y="185.3" width="13.7" height="24.79" rx="1.8"/><path class="cls-29" d="M300.3,209.4V187.9a1.7,1.7,0,0,1,1.7-1.6h11a1.9,1.9,0,0,0-1.6-1.1H301a1.6,1.6,0,0,0-1.6,1.7v21.4a1.8,1.8,0,0,0,1,1.6C300.4,209.8,300.3,209.6,300.3,209.4Z"/><path class="cls-24" d="M254.9,160.3l1.7,4.4h7s-.5,19.2-.5,22.8,3,28.5,3,28.5h4.1l-.5-31.4,5.8-16s4.4,21.5,6.2,25.1S293.3,216,293.3,216H297l-9.6-41.2-4.2-14.4-20.8-9.7-7.5.7"/><path class="cls-26" d="M119.3,179.4h0a1.2,1.2,0,0,1,1.2-1.1h0a1.1,1.1,0,0,1,1.2,1c.1.6-.5,1.1-1.2,1.1h0A1.2,1.2,0,0,1,119.3,179.4Zm1.2-.7a.8.8,0,0,0-.8.7c0,.3.4.6.8.6h0a.8.8,0,0,0,.9-.7c0-.3-.4-.6-.9-.6Zm-1,.7Z"/><path class="cls-26" d="M131.4,179.3h0a.7.7,0,0,1,.3-.6,1,1,0,0,1,.9-.4h0a1.1,1.1,0,0,1,1.2,1,.9.9,0,0,1-.4.8l-.8.2h0C131.9,180.3,131.4,179.9,131.4,179.3Zm1.2-.6-.7.2c0,.1-.1.2-.1.4h0a.7.7,0,0,0,.8.7h0l.6-.2c.1-.2.2-.3.2-.5s-.3-.6-.8-.6Z"/><path class="cls-10" d="M81.8,99.3c1.3,2.2.2,5.1,1.5,7.3a10.7,10.7,0,0,1,1.6,2.5,2.3,2.3,0,0,1-3.2,2.5l-.4-.3c-.7-.2-1.2.4-1.8.8a3,3,0,0,1-2.3.4,3.5,3.5,0,0,1-1.8-2.3c-.9-2.7-.3-5.7.5-8.4s1.1-2.9,2.4-3.4"/><path class="cls-30" d="M110.9,122.3c.1.3.5.6.2,1.2s-2.8,3.4-5.3,2.5c-.1,0-14,8.1-15.1,8.1s-8.3-6.9-10.7-15.5c-.6-2-.4-4.4,1.5-5.4a4.4,4.4,0,0,1,2.7,2.3c1.5,3,6.3,12.8,7.3,13.2s7.7-2.7,12.8-4.9a3.5,3.5,0,0,0,2-1.7,15.8,15.8,0,0,1,2.2-3.3c.2-.3,3.3-2,3.3-1.4s-.9,1.1-2.1,1.9-.8,1-1,1.3,2.2-.3,2.4.5S110.9,122.2,110.9,122.3Z"/><path class="cls-23" d="M81,112.9a6.1,6.1,0,0,1,4.1,3.2l.6,1.3c.7,1.9,1.7,3.6,2.5,5.5a12.5,12.5,0,0,1-3.3,1.6,7.5,7.5,0,0,1-3,.4h-.5c-.3-.1-.4-.3-.6-.5l-.9-1.1a2.4,2.4,0,0,1-.6-1.1,2.9,2.9,0,0,1,.1-1.6"/><g class="cls-25"><path class="cls-31" d="M82.8,118a.2.2,0,0,1-.2-.2.5.5,0,0,0-.5.3.8.8,0,0,0-.2.5,15.7,15.7,0,0,0,.4,2.3l-.2,4h0a9,9,0,0,0,2.8-.4l1.4-.6C85.8,121.7,84.3,119.8,82.8,118Z"/></g><path class="cls-30" d="M76.6,109s0,2.4.4,2.6l1.6.5v5.1l-6.9-1L67,113.6s4.9-1.6,5-2.1-.3-3.3-.3-3.3"/><path class="cls-30" d="M66.1,183.4h0c-1.9,8.9-1,21.1-1.4,27.8l2.5.4,6.9-33.7a3.4,3.4,0,0,0,.1-1c.3-4.1-3.4-4.3-5.5-.9a15,15,0,0,0-.9,1.8l-.3.8h0a14,14,0,0,0-.9,2.9h-.1c-.1.3-.1.5-.2.8h0C66.2,182.8,66.2,183.1,66.1,183.4Z"/><path class="cls-30" d="M77.1,151.5c-.1.7-.5,4.2-1,8.3s-.8,7.4-1.1,10.5-.5,4.2-.6,5.1a7.7,7.7,0,0,1-.2,1.5h0c-.8,4.1-3.7,4.3-5.4,3.4l-.6-.5a1.7,1.7,0,0,1-.7-1.2h0c-.1-.8-.3-2-.4-3.3h0c-.2-2.6-.4-6-.5-9.3s-.3-8-.3-10.2a.6.6,0,0,1-.1-.4c0-6.7,6.2-11.1,10.1-9h.3a3.5,3.5,0,0,1,.6,2.4C77.2,149.8,77.1,150.7,77.1,151.5Z"/><path class="cls-30" d="M67.6,177l-.5-1.7h0a23.8,23.8,0,0,1-.5,6.2h-.1a2.4,2.4,0,0,1-.2.8h0l-.2.9h0c0,.8,1.7-2.7,2.1-3.6a.1.1,0,0,1,.1-.1l-.5-1.9Z"/><path class="cls-30" d="M81,185.1h0c-.2,9.3,2.7,20.3,3.5,27.1l2.3-.3s.5-28.6.5-34.2a3.7,3.7,0,0,0-.1-1.1c-.4-4.1-3.8-3.4-5.1.5-.2.6-.3,1.3-.5,2s-.1.6-.2.9h0l-.3,3.1h0a2.8,2.8,0,0,1-.1.9h0Z"/><path class="cls-30" d="M83,181.3l-.7-.3a2.2,2.2,0,0,1-.9-1h0l-.8-3.2h0c-.7-2.6-1.4-5.9-2.1-9.1s-1.6-7.9-2-10.1a11.6,11.6,0,0,1-.4-1.8c-1.2-6.8,4.1-11.3,7.9-10h.2c.8.3,1,3,1.2,4.8s1.4,21,1.8,24.5v1.5C87.1,180.9,84.7,181.8,83,181.3Z"/><path class="cls-30" d="M81.3,178.4l-.7-1.7h0a29.1,29.1,0,0,1,.5,6.3h0a2.8,2.8,0,0,1-.1.9h0v.9h0c.2.8,1.1-3.1,1.3-4.1v-.2l-.7-1.7Z"/><path class="cls-20" d="M69.5,138.4s-5,6.3-4.5,12.7c.2,2.7.5,5,.8,7.7a45.4,45.4,0,0,1,.5,6s10.3,3.2,20.2-1c0-.7.8-13.7-4.5-26.2A91.8,91.8,0,0,1,69.5,138.4Z"/><path class="cls-23" d="M85.1,123.7c0,1.9-1,3-2.4,4.5a45.7,45.7,0,0,0-.7,7c-.1,1.4.5,2.3,0,2.4-2,1.8-9.2,3.2-12.5.8.3-2.9-1-9.4-1.9-12.7a10.4,10.4,0,0,0-.3-1.2c-.9-2.5-2.4-10.5-1.3-10.9l1-.2,4.3-1.5s1.5,4.5,5.4,5c2.1-.9,1.9-3.6,1.9-4.8l3.1,1c.6.9.1,2.7,1.1,5.4C83,119.2,85.2,121.5,85.1,123.7Z"/><path class="cls-30" d="M81.6,98.8s.4,4.8-.4,7.3a6,6,0,0,1-5.2,3.6c-5.8,0-6.8-7.8-6.8-8.2s8.5-3.6,8.5-3.6Z"/><path class="cls-10" d="M92.5,214.9c-2,.3-4.2-.2-5.1-.1s-2.6.6-3.3,0-.6-2.9.2-3.2h.5a5.3,5.3,0,0,0,2.4-.2,12.6,12.6,0,0,0,3.4,1.3,7.8,7.8,0,0,1,2.3.7C93.6,213.8,93.7,214.7,92.5,214.9Z"/><path class="cls-10" d="M70.5,215.8c-2.1-.4-3.4-1.5-4.3-1.7s-2.6-.5-2.8-1.2.5-3,1.3-3l.5.3a4.8,4.8,0,0,0,2.3.7c1.3,1.1,1.2,1.4,2.8,2.3l1.9,1.4C72.8,215.2,71.6,216,70.5,215.8Z"/><path class="cls-30" d="M40.6,120.3l1.9-2.2L54,128.3s5.6-7.4,7.1-9.7,3.3-4.8,5.7-5.2c.6.3-.2,9.5-.5,9.7-3.4,2.6-10.2,11-12.3,11.4S40.6,120.3,40.6,120.3Z"/><path class="cls-23" d="M67.7,113s-2.4,0-3.4.8-5.8,8.5-5.8,8.5a3.4,3.4,0,0,0,1.3,2.6,6.9,6.9,0,0,0,3.4,1.5l3.8-3.5c.9-.6.9,1,.9,1l4.3-4.1Z"/><path class="cls-10" d="M66.3,113.1l-.4-.2a3.5,3.5,0,0,1-1.6-1.6,5.5,5.5,0,0,1,0-3.8c.4-.7,1.1-1.1,1.6-1.8a4.9,4.9,0,0,0,.9-3.1c.1-1.1,0-2.2.2-3.3a8.2,8.2,0,0,1,2.4-4.8c2.3-1.9,6.9-3.1,9.4-.9.4.3.5.6,1.1.7a5.1,5.1,0,0,1,2.1.6c.8.5,1.8,1.2,1.7,2.2a3.8,3.8,0,0,1-1.6,2.3l-.8.2c-1,0-1.8-.6-2.8-.5a2,2,0,0,0-1.2.6c-.3.5-.3,1.1-.7,1.5s-1.6.5-2.4,1l-.3.2a.6.6,0,0,0-.1.4V104c-.4-.1-.5-.7-.8-.9a.9.9,0,0,0-1.1,0,2.2,2.2,0,0,0-.5,1.1,3.4,3.4,0,0,0,.2,1.4c.3.8,1,1.6,1.5,1s0,1.6,0,2.3,0,1.6.5,2,1.2.1,1.2.9-.7,1.4-1.5,1.5a5.7,5.7,0,0,1-2.2-.4,3.7,3.7,0,0,0-2.3-.1,7.5,7.5,0,0,1-1.3.6A2.7,2.7,0,0,1,66.3,113.1Z"/><path class="cls-30" d="M45.4,120.7s-2.7-2.2-2.9-2.8a11.6,11.6,0,0,0-.4-1.8,3.1,3.1,0,0,0-1.9-1.8c-.6-.3-.3-.5-1-.4s-1.7,1.3-2.1,2.1c-1.8,3.6,3.2,4.3,3.4,4.3s2.3,2.1,2.3,2.1"/><path class="cls-23" d="M36.9,119l1.9,1.2c.2.2.5.1.7-.2l4-6.8-2.4-1.3-4.3,6.4A.5.5,0,0,0,36.9,119Z"/><path class="cls-23" d="M30.3,104.5l.7.5,2.5-3.8-.6-.4a2.1,2.1,0,0,0-2.9.8h0A2,2,0,0,0,30.3,104.5Z"/><polygon class="cls-23" points="28 109.1 39.8 110.9 42.5 107 36.5 96.6 28 109.1"/><polygon class="cls-23" points="28.7 109.3 39.8 110.9 40.9 109.3 31.6 105.2 28.7 109.3"/><path class="cls-23" d="M44.6,113.8h0a1.5,1.5,0,0,0,2.1-.6l.5-.7a1.5,1.5,0,0,0-.3-2.1h0a1.5,1.5,0,0,0-2,.6l-.5.7A1.5,1.5,0,0,0,44.6,113.8Z"/><path class="cls-23" d="M44.9,111l-.5.7a1.4,1.4,0,1,0,2.3,1.5l.5-.7h.1a1.5,1.5,0,0,1-2,.3,1.5,1.5,0,0,1-.3-1.9C45,110.9,44.9,110.9,44.9,111Z"/><path class="cls-23" d="M27.6,109.5h0a1,1,0,0,0,1.2-.3l8.1-11.8a.9.9,0,0,0-.2-1.3h0a.9.9,0,0,0-1.2.4l-8.1,11.8A.8.8,0,0,0,27.6,109.5Z"/><path class="cls-23" d="M36.9,96.4l-6.7,9.8a.9.9,0,0,1-1.2.3.2.2,0,0,1-.2-.2l-1.4,2a.8.8,0,0,0,.2,1.2,1,1,0,0,0,1.2-.3l8.1-11.8A.9.9,0,0,0,36.9,96.4Z"/><path class="cls-23" d="M40.8,113l.8.5a2.6,2.6,0,0,0,3.6-1l.8-1.1a2.6,2.6,0,0,0-.4-3.7l-.8-.5a2.7,2.7,0,0,0-3.7.9l-.7,1.1A2.8,2.8,0,0,0,40.8,113Z"/><path class="cls-23" d="M40.4,109.2l-1.1,1.6a.9.9,0,0,0,.1,1.2l3.6,2.4a.7.7,0,0,0,1.1-.3l1.2-1.6a1,1,0,0,1-1.2.3l-3.5-2.4A.8.8,0,0,1,40.4,109.2Z"/><path class="cls-30" d="M37.3,117.3a3.7,3.7,0,0,1,.7-2.8c.1-.3.4-.5.6-.7s.2-.3.4-.3a1,1,0,0,1,.9.2,1.6,1.6,0,0,1,.7.7.9.9,0,0,1-.5,1.1H40v.2a1.9,1.9,0,0,1,.3,1,.4.4,0,0,1-.6.4h-.4a1.1,1.1,0,0,1-.2.8h-.4l-.6-.3"/><path class="cls-30" d="M42.5,118.1c0-.4-.2-1.1-.2-1.5a3.2,3.2,0,0,0-1.6-2.7h-.2l-.2.3v.3c.1.4.6,1,.5,1.4a4.7,4.7,0,0,0-.4,1.6c0,.6.3,1.4.9,1.5"/><path class="cls-30" d="M214.8,43.7s-2.1-1.5-2.2-2.2a15.3,15.3,0,0,0-2.1-3.7c-.5-.6-3-1.4-3.6-1.5s-3.6.2-3.2.6,2.4.3,2.7.5l.4.2s-.4.6-.2.9-.7.8-.4,1.3-.1.5.2,1.1,1.6,1.5,1.9,1.2,1.2,1.7,2,1.6,2.9,1.8,2.9,1.8"/><path class="cls-30" d="M248,32.8c.1,1.5,0,4,.4,4.4s1.8.3,1.8.3-4.8,6.1-5.3,5.8-6.1-5-4.8-5.3,2.5-.2,2.5-.8a13.4,13.4,0,0,1-.1-2"/><path class="cls-23" d="M253.5,65.4s-9.4,1.1-11.6,1.1-2-1.1-2-1.1a73.6,73.6,0,0,0-1-9.9c-.4-1.8-.6-2.4-1-4.1-.8-3.8-.7-4.5-1.6-9.1l5.6-4.6a3,3,0,0,0,3,1.8,4.4,4.4,0,0,0,4.1-2.2l7.7,5.1.7,12.4L256.5,65"/><path class="cls-30" d="M248.1,31.5a16.6,16.6,0,0,1-.6,2.1,2.5,2.5,0,0,1-2.6,1.8H242a3.6,3.6,0,0,1-2.3-.5c-.6-.5-.6-1.4-.7-2.1a25.1,25.1,0,0,1-.4-2.7,48.9,48.9,0,0,1-.3-5.4,2.2,2.2,0,0,1,.1-.8.4.4,0,0,1,.1-.3h.4a24.5,24.5,0,0,1,5.4-.3,5.9,5.9,0,0,1,3.7.9,6.9,6.9,0,0,1,1.9,3.3c.1.2.2.5,0,.6"/><path class="cls-32" d="M227,99a14,14,0,0,0,.6,2.5c.2.7,2.3.1,2.5-.3a23.9,23.9,0,0,0-.7-3.5"/><path class="cls-33" d="M230.8,101.7c.2.7.4,2,.4,2l-2.1.9-.4-.3a4,4,0,0,1-1.1.9,7.6,7.6,0,0,1-2,.6c-1.9.2-3.2-.2-3.3-.4s1.9-1.4,2.4-1.5a3,3,0,0,0,2.3-2.3c.1-.5,0-.6.3-.6a.8.8,0,0,1,.5.2,1.4,1.4,0,0,0,1.5.4,2.7,2.7,0,0,0,.8-.7A1,1,0,0,1,230.8,101.7Z"/><path class="cls-20" d="M236.3,74.5a34.9,34.9,0,0,1-10.7.3c.4,1.3,1.6,3,2,4.9,1.4,6.2,1.9,14.5,2.3,19.6,0,0-.7,1.3-2.9.3-3.3-8.1-9-24.6-9-28.1s11.4-5.7,19.8-6.8"/><path class="cls-20" d="M250.8,65.4c2.6,1.9-14.5,9.1-14.5,9.1a27.4,27.4,0,0,1-5.6.6,2.5,2.5,0,0,1-.4-1.1c-.1-.5-.1-1-.2-1.5a3.1,3.1,0,0,0-1.7-2.3,6.6,6.6,0,0,0-2.8-.9,33.7,33.7,0,0,0-6.3-.1c5.1-3.8,15.6-4.3,20.5-4.6C240.8,66.1,250.4,65.1,250.8,65.4Z"/><path class="cls-32" d="M232.4,103.3s0,1.9.1,2.6,2.4.5,2.6.1a19.2,19.2,0,0,0-.1-3.5"/><path class="cls-33" d="M235.7,106.6v2.1l-2.2.5-.3-.3a4.1,4.1,0,0,1-1.3.7l-2.1.2c-1.8-.2-3.1-.7-3.2-1s2.2-1,2.7-1a3.2,3.2,0,0,0,2.7-1.9c.2-.5.1-.7.4-.6a1.1,1.1,0,0,1,.5.4,1.4,1.4,0,0,0,1.4.6l.8-.5A.9.9,0,0,1,235.7,106.6Z"/><path class="cls-20" d="M256.5,65a88.7,88.7,0,0,1-11.6.4c-1.5,0-12.7,2.1-13.8,4s1.2,21.4.9,34.4a3.4,3.4,0,0,0,3.7.1c.6-6.4,4.4-21.5,1.8-28.6,6.2.8,11.2,1.6,16.8-.2a4.7,4.7,0,0,0,2.9-3.1A10.6,10.6,0,0,0,256.5,65Z"/><path class="cls-23" d="M241.9,37.7h-1.6a13,13,0,0,0-3.3.7c-1.5.5-2.6,1.9-3.8,3.1s-7.4,6.9-8.6,7.2S213.3,42,213.3,42l-2.5,2.5s11,10.2,14.3,10.2c1.6,0,10.4-4.6,13.2-6.4Z"/><path class="cls-34" d="M225.1,52.7c-2.2.2-12.6-7.8-13.8-8.7l-.5.5s11,10.2,14.3,10.2c1.4,0,7.7-3.2,11.4-5.3l.9-.6-.5-3.4S227.6,52.6,225.1,52.7Z"/><path class="cls-35" d="M214.6,67.1h25.2l-4.5-14.8a2,2,0,0,0-1.9-1.3H211.3a1.3,1.3,0,0,0-1.2,1.6Z"/><path class="cls-36" d="M214.3,67.1h24.8l-4.5-14.8a2,2,0,0,0-1.9-1.3H210.6a1.3,1.3,0,0,0-1.2,1.6l4.4,14.1A.5.5,0,0,0,214.3,67.1Z"/><g class="cls-37"><path class="cls-38" d="M253,44.8A116.9,116.9,0,0,0,251.2,59c-4.4,1.7-6.2,4.3-10.5,6.2,0,0-3.4-.6-3.8.7s4,1.3,4,1.3c4,.1,14.6-2.9,15.3-3.1S259,50.6,259,43.3a4.9,4.9,0,0,0-.6-3,5.1,5.1,0,0,0-1.3-.9,17.4,17.4,0,0,0-8.1-2.1"/></g><path class="cls-30" d="M241.3,66.1a2.6,2.6,0,0,0-2.1-.7h-1.7c-.3.1-.5.1-.6.4s1.3,0,1.9.2h-4.3a.3.3,0,0,0-.3.3c0,.1.1.2.2.3a3.5,3.5,0,0,0,1.3.5,10.3,10.3,0,0,0,6-.5"/><path class="cls-23" d="M252.8,44.7c-.1,6.1-.6,8.9-.5,14.9-3,.7-7.2,4.1-11.5,6.1a1.9,1.9,0,0,0,.1,1.5c.3.2,14.6-3.3,15.7-4.3S259,50.6,259,43.3a4.9,4.9,0,0,0-.6-3,5.1,5.1,0,0,0-1.3-.9,17.4,17.4,0,0,0-8.1-2.1"/><path class="cls-39" d="M227.1,59.3c.1,1.3-1.5,2.3-3.4,2.3s-3.7-1-3.8-2.3,1.5-2.4,3.4-2.4S227,58,227.1,59.3Z"/><ellipse class="cls-35" cx="223.5" cy="59.3" rx="1.3" ry="2.3" transform="translate(155.6 280.3) rotate(-87.8)"/><path class="cls-10" d="M250.4,26a7.7,7.7,0,0,0-.2-1.5,4.8,4.8,0,0,0-2.4-3,7.2,7.2,0,0,0-5.2-.5c-1,.2-1.4.7-1.9.7l-1.3-.4c-3.8-1.4-3.2,2.3-2.8,3.3s1.1.8,1.2,1,.1,1.1.2,1.5a.7.7,0,0,0,.4.6s.1-1.2.1-1.4a1.4,1.4,0,0,1,.5-1.1,3.3,3.3,0,0,1,1.4-.4,7.8,7.8,0,0,1,2.8.5c.7.6.9,2,1.1,2.8s.1.6.3.6.5-1.2,1.2-.8a2.1,2.1,0,0,1,.5,1.5,1.6,1.6,0,0,1-1.1,1.7c-.3,0,.5,1.6.9,1.9s.3.3.4.4l.5.2h1.2a1.4,1.4,0,0,0,.8-.9,11.1,11.1,0,0,0,.9-1.9A10.5,10.5,0,0,0,250.4,26Z"/><path class="cls-40" d="M310.9,83.6H263.2l5.7-4.3V58.7a3.1,3.1,0,0,1,3.1-3.1h38.9a3.1,3.1,0,0,1,3.1,3.1V80.4A3.1,3.1,0,0,1,310.9,83.6Z"/><rect class="cls-41" x="288.1" y="59.6" width="21.8" height="2.09"/><rect class="cls-41" x="288.1" y="62.7" width="21.8" height="2.09"/><rect class="cls-41" x="288.1" y="65.8" width="21.8" height="2.09"/><rect class="cls-41" x="288.1" y="68.9" width="21.8" height="2.09"/><rect class="cls-41" x="288.1" y="72.5" width="15.2" height="2.09"/><rect class="cls-13" x="272.6" y="59.6" width="13.7" height="16.02" rx="3.4"/><rect class="cls-41" x="272.6" y="77.6" width="13.7" height="1.72"/><path class="cls-40" d="M141.1,53.1h60.8l-7.3-5.4V14.4a3.9,3.9,0,0,0-4-3.9H141.1a3.9,3.9,0,0,0-4,3.9V49.1A4,4,0,0,0,141.1,53.1Z"/><g class="cls-42"><rect class="cls-12" x="142.4" y="16.6" width="27.8" height="2.66" transform="translate(312.6 35.9) rotate(180)"/><rect class="cls-12" x="142.4" y="20.6" width="27.8" height="2.66" transform="translate(312.6 43.9) rotate(180)"/><rect class="cls-12" x="142.4" y="24.6" width="27.8" height="2.66" transform="translate(312.6 51.8) rotate(180)"/><rect class="cls-12" x="142.4" y="28.5" width="27.8" height="2.66" transform="translate(312.6 59.6) rotate(180)"/><rect class="cls-12" x="142.4" y="32.3" width="27.8" height="2.66" transform="translate(312.6 67.3) rotate(180)"/><rect class="cls-12" x="142.4" y="39.4" width="27.8" height="2.66" transform="translate(312.6 81.4) rotate(180)"/><rect class="cls-12" x="142.4" y="43.5" width="47.4" height="2.66" transform="translate(332.2 89.7) rotate(180)"/></g><rect class="cls-41" x="172.4" y="39.6" width="17.5" height="2.19" transform="translate(362.2 81.4) rotate(180)"/><ellipse class="cls-5" cx="281.7" cy="225.4" rx="26.8" ry="2.8"/><path class="cls-8" d="M267.3,221.4a7.2,7.2,0,0,1-2.8,2.1c-1.5.7-4.6,1-2.9,1.6a10,10,0,0,0,4.9,0l3.3-.2c1.6,0,1.6-.1,1.4-1.9S268.1,220,267.3,221.4Z"/><path class="cls-8" d="M296.6,220.5c-.1.5.6,2-.7,3.1s-4.2,2.4-2.2,2.4a11.2,11.2,0,0,0,4.7-.9c1-.5.2-1.2,1.5-1.6s1.2-1.7.4-2.4C299.2,218.7,296.9,218.9,296.6,220.5Z"/><path class="cls-20" d="M290.4,169.5s3.9-11.3-7-20.7c0,0-5.9,2.4-10.6,2.7a22.7,22.7,0,0,1-5.5-.2s-.3,10.1-.4,15.5Z"/><path class="cls-20" d="M266.1,188.3c-.3-5.1,5.2-4.4,7.3-.6,4.1,7.8-1.6,25.8-2.3,34.3a4.8,4.8,0,0,1-2.9.2,2.2,2.2,0,0,1-.9-1C267.4,210.8,266.3,193.7,266.1,188.3Z"/><path class="cls-20" d="M272.6,189c-.7,2.1-7.8,4-6.9-3.5.3-3.3,1.7-21.7,1.9-23.5s.6-4.3,1.5-4.6c4.3-1.5,11.7,4.4,10.3,11C278.5,172.9,274.1,184.8,272.6,189Z"/><path class="cls-20" d="M284.2,191.9c-1.7-4.8,3.8-5.6,6.9-2.7,7.3,6.9,7.6,23.1,9.4,31.5a5.6,5.6,0,0,1-3.2.9,1.2,1.2,0,0,1-.9-.4C293.5,211.1,286,197,284.2,191.9Z"/><path class="cls-20" d="M291.4,190.4c.2,2.1-5.6,6.5-7.9-.6-1.1-3.2-5.4-22-6-23.7s-.4-5.2.3-5.8c3.4-3.2,11-.4,12.4,6.2C291.2,170.9,291,185.9,291.4,190.4Z"/><path class="cls-43" d="M261.4,107.9l.5-.6c1.4-1.8,1.6-3.3,2.9-5.4a14.6,14.6,0,0,1,.9-1.8,9.2,9.2,0,0,1,2.1-1.7c.6-.3.1,1,.1,1s.5-.7,1-.7.2,1.2.2,1.4a9.5,9.5,0,0,1-1,4.4,2.5,2.5,0,0,0-.4,1.1c.5,0,.8-.4,1.2-.6a1.6,1.6,0,0,1,1.3-.4l-.3.5a4.7,4.7,0,0,1-2.2,2.6l-1.9.7c-1.1.6-1.7,2-2.8,2.5"/><rect class="cls-44" x="265.6" y="99.2" width="4.8" height="8.8" rx="0.6" transform="matrix(0.92, 0.39, -0.39, 0.92, 60.73, -95.38)"/><rect class="cls-45" x="266.1" y="99.7" width="4" height="7.86" transform="translate(60.8 -95.4) rotate(22.7)"/><path class="cls-23" d="M271.5,115.1a23.2,23.2,0,0,0-5.4.9c-3.8,1.1-5.1,2.9-6.4,3.6,2.5-3.2,5.4-10.1,5.4-10.1s-3.4-2.8-3.8-2.1-14.8,17.5-14.4,20.2c.2,1.1,1.9,2.2,3.3,2.2,4.1-.1,8.9-1.6,13.8-3.3,2.2-.7,2.9.9,2.9.9"/><path class="cls-46" d="M259.7,119.6s-1.8,3.7-2.4,3.9a10.2,10.2,0,0,0,2.4-1.8,20.5,20.5,0,0,0,2.4-3.8A22.5,22.5,0,0,0,259.7,119.6Z"/><path class="cls-43" d="M265.4,101.9a.7.7,0,0,1,.2.6,3.9,3.9,0,0,1,0,2.4,4.1,4.1,0,0,1-1,1.3l-1.5,1"/><path class="cls-47" d="M271.5,95.8c-.9.3-1.4,1.6-1.8,2.4a30.1,30.1,0,0,0-.7,3.2,4.4,4.4,0,0,0,.2,2.3,4.7,4.7,0,0,0,.6.9,1.2,1.2,0,0,0,.5.5.6.6,0,0,0,.6.1c.3-.1.4-.4.5-.8a20.7,20.7,0,0,1,2.3-5.8"/><path class="cls-43" d="M270.5,102.2c0-.6-.7-1-1.3-.4a3.9,3.9,0,0,0-.6,2.4c-.1.9.6,1.1,1.2,1.2"/><path class="cls-23" d="M264.1,118.4c1.1-1.3,4.9-3.6,9.9-3.4s13,.7,14,3,1.1,13.3.3,17.5-2.1,10.9-2.1,12.8,1,2.7.6,3.3-8.3,1.7-11.7,1.7-8.2-.8-8.4-1.8.6-1.4.7-2.9.5-11.2-.1-12.8-1.4-7.6-2.2-9.8S262.9,119.8,264.1,118.4Z"/><path class="cls-46" d="M285.7,128.2c.3.8,2.8,4.7,2.8,4.7v.5l-.3,2.1c-.6,3.1-2.1,10.9-2.1,12.8s1,2.7.6,3.3-14.5,3.6-13.8.5c0-.3,11.4-9,11.5-9.3.5-2.5,1-4.3,1.2-6.1C286.2,132.3,285.3,127.5,285.7,128.2Z"/><path class="cls-48" d="M271.3,110.6a28.8,28.8,0,0,1-.2,4.1l-.9.6s.5,3.4,1.4,3.1,6.5-3.1,6.5-3.1-.8-.3-.8-.6.8-6.6.8-6.6"/><path class="cls-48" d="M275.2,96.3c-.8.2-3-.3-3.6.7a17.7,17.7,0,0,0-1.3,3.6,23.8,23.8,0,0,0-1.1,3.8c-.4,1.6-1.1,4.5.5,5.9a2.3,2.3,0,0,0,1.2.6l2.2.4a7.3,7.3,0,0,0,3.6.1c1.5-.5,2.4-2.6,2.8-4.1l2.2-8.2Z"/><path class="cls-10" d="M271.2,120s-.4,15.4-1,24.8l2.3,3.1L274,144a114.7,114.7,0,0,0-1.5-23.9Z"/><path class="cls-49" d="M270.6,118.6v.2a3.1,3.1,0,0,0,.5,1.2h1.3s1-.5,1.1-1-1.5-1.4-1.5-1.4h-.2a2.7,2.7,0,0,0-1.2.9Z"/><path class="cls-12" d="M277.4,113.7a6.8,6.8,0,0,1,1.6,1.6c-.7,1.7-2.3,4.6-4.1,5.9a7.9,7.9,0,0,0-2.8-3.5S276.9,116.8,277.4,113.7Z"/><path class="cls-12" d="M272.1,117.7a5.4,5.4,0,0,0-2.8,2.6,13.9,13.9,0,0,1,.4-4.9s1.1-1.4,1.5-1.5A7.2,7.2,0,0,0,272.1,117.7Z"/><path class="cls-43" d="M272.3,152.1a4.9,4.9,0,0,0-3.3,1.8l-.2.3c0,.2.2.2.3.2s1-.3,1.7-.6l1.5-.7"/><path class="cls-50" d="M266.4,139.5l6.1,19.6a.7.7,0,0,1-.6,1l-12.7,1.1a1.2,1.2,0,0,1-1.1-.8l-6.6-19.3a1.4,1.4,0,0,1,1.1-1.3l12.8-1.1A1.2,1.2,0,0,1,266.4,139.5Z"/><path class="cls-51" d="M266,140l6,19.3a.7.7,0,0,1-.6,1l-12.8,1.1a1.1,1.1,0,0,1-1-.8l-6-19.3a.7.7,0,0,1,.6-1l12.7-1.1A1.2,1.2,0,0,1,266,140Z"/><polygon class="cls-12" points="255.8 139.4 256.3 141.1 262.2 140.6 261.8 138.9 255.8 139.4"/><path class="cls-12" d="M257,137.8l.6,1.9,2.8-.2-.6-1.9a1.9,1.9,0,0,0-1.9-1.4A1.1,1.1,0,0,0,257,137.8Zm.6,0c-.1-.5.1-.9.5-.9s.9.3,1.1.8a.7.7,0,0,1-.5.9A1.1,1.1,0,0,1,257.6,137.8Z"/><path class="cls-48" d="M277.1,150.7l-5.2,1.5a13.7,13.7,0,0,0-2.3,1.7c-1.3,1.4-.7,2-1.2,3.8v.3c0,.2.2.3.5.2s.5.1.7-.2.3.3.7.1l.7-.6a6.6,6.6,0,0,1,1.5-.9l1.4-.6c.5-.4,1.5-.5,2-2a1.2,1.2,0,0,1,.7-.7,16.4,16.4,0,0,1,2.2-1.4"/><path class="cls-23" d="M285.4,125.6c.5,2.1,2.9,16.1,2.9,16.1L275,151.3l1.1,2.9s15.9-5.3,17.1-9,1.2-20.1-3.2-25.9a10.7,10.7,0,0,0-4.2-2.8"/><path class="cls-43" d="M271.7,155.8l-1,.9a5.2,5.2,0,0,1-1,1.1l.8-1.2.6-.5Z"/><path class="cls-43" d="M271,154.9l-.6.7-.4.7a8.6,8.6,0,0,1-1,1.6,13,13,0,0,1,.8-1.7,1.8,1.8,0,0,1,.5-.7A1.3,1.3,0,0,1,271,154.9Z"/><path class="cls-43" d="M270.2,154.2l-.6.7c-.2.2-.2.5-.3.7l-.7,1.7a5.8,5.8,0,0,1,.4-1.8l.5-.7Z"/><path class="cls-10" d="M280.3,105.9c-.5-.3-.9-.6-1.3-.1s-.2.6-.5.7a.5.5,0,0,1-.7-.5,1.4,1.4,0,0,1,.1-.9l.6-2a3,3,0,0,0,.1-2.1,1.6,1.6,0,0,0-.6-.8,7.1,7.1,0,0,0-3.1-1.3,19.4,19.4,0,0,1-3.3-.7,3.1,3.1,0,0,1-1.3-.6,2.7,2.7,0,0,1-.9-2.1,4.4,4.4,0,0,1,.7-2.2,1.1,1.1,0,0,0,.3.8,2.1,2.1,0,0,1,.6-1c.3,1.8,7.9,1.2,9.7,2s2.3,1,2.2,2.9l.3.4a5.7,5.7,0,0,1,1.7,4c.1,2.2-1.2,4.6-2.4,6.4a3.8,3.8,0,0,1-1,1.2,2.5,2.5,0,0,1-1.7.4c-.6-.1-1.7-.1-1.7-.6s.9-1.2,1.1-1.5"/><path class="cls-48" d="M278.3,108a.8.8,0,0,0,.2.7.9.9,0,0,0,.9.1,2.5,2.5,0,0,0,1.5-1.9c.2-.9-.4-1.9-1.2-1.6a1.2,1.2,0,0,0-.9,1.2"/><path class="cls-43" d="M271.3,111l2.4.4a3.3,3.3,0,0,1-2.4.9"/><rect class="cls-13" x="171.9" y="15.2" width="18.4" height="21.51" rx="3.4"/><circle class="cls-52" cx="3.7" cy="191.1" r="3.4"/></g></g></svg>