<svg id="Layer_1" data-name="Layer 1" xmlns="http://www.w3.org/2000/svg" xmlns:xlink="http://www.w3.org/1999/xlink" viewBox="0 0 383.2 236.3"><defs><style>.cls-1{fill:#142433;}.cls-2{fill:#e9e8e8;}.cls-3{fill:#dcdbdb;}.cls-4{fill:#ededed;}.cls-5{fill:#d96548;}.cls-6{fill:#f6927a;}.cls-7{fill:#f79570;}.cls-8{fill:#744036;}.cls-9{fill:#0b0b0b;}.cls-10{fill:#0a1929;}.cls-11{fill:#14133c;}.cls-12{clip-path:url(#clip-path);}.cls-13{fill:#0b2b34;}.cls-14{fill:#1b3a43;}.cls-15{fill:#001821;}.cls-16{fill:#ba7362;}.cls-17{fill:#96ceb4;}.cls-18{fill:#a1a3a4;}.cls-19{fill:#71b292;}.cls-20{fill:#e5e5e4;}.cls-21{fill:#cb5749;}.cls-22,.cls-23{fill:none;stroke-miterlimit:10;}.cls-22{stroke:#14133c;}.cls-23{stroke:#f7fafd;stroke-width:0;}.cls-24{fill:#9794c9;}</style><clipPath id="clip-path"><path class="cls-1" d="M144.1,165.6a27.1,27.1,0,0,1-8.1-1c-9-2.8-11.7-11.3-15.3-20a140.8,140.8,0,0,1-7.8-27l3.5-1.4c4.6,7.6,9.1,15.1,14,22.4a49,49,0,0,0,7.5,9.5c7.4,7.1,18.1,9.7,28.3,10.8,1.1.1,2.4.4,2.8,1.4a1.9,1.9,0,0,1-.6,2.1,4.7,4.7,0,0,1-2,1,37.8,37.8,0,0,1-7.5,1.2c-3.8.3-9.6,1-14.8,1"/></clipPath></defs><path class="cls-2" d="M7.8,26a1.3,1.3,0,0,0,1,1.5,1.3,1.3,0,0,0,1.5-1,1.2,1.2,0,0,0-1-1.4A1.3,1.3,0,0,0,7.8,26Z"/><path class="cls-3" d="M214.4,3c64.3.2,115.4,51.9,115.3,116.6-.1,63-52.2,114.6-115.4,114.5a115.4,115.4,0,0,1-115.7-116C98.7,54.4,150.6,2.9,214.4,3Zm92.9,83c1.7-1.4,1.3-3,.2-4.4s-2.5-3.4-4-3.6c-3.4-.6-5-2.9-6.6-5.4h-.6c0,.1-.1.1-.2.2s0,4.1-2.4,4c-.9,0-1.9-2.2-2.5-3.5-2.5-5.2-8-8.6-13-7.4,1.4,1.5,2.4,3.4,3.9,4.1,3.7,1.8,3.6,4.4,2.3,7.9H279c-.5-.1-1-.7-1.5-1.1s.7-1.2,1.2-1.5a29.9,29.9,0,0,1,3.3-1.2l-2.7-2.2c-4.2-3.6-6.7-3.5-11,.1l-4.4,3.7c-2.7,2.2-8.6,1.6-10.2-1.4a7.7,7.7,0,0,1-.1-5.2c.1-.7,2.2-1,3.4-1.1s4.5.3,6.7.1,2.2-.8,2.4-1.5-.3-2.2-.7-3.1-1-.8-1.5-1.1a2.9,2.9,0,0,0-.2-.9c6,1.6,8.6-2.1,11.2-6.1.2-.4,1.1-.6,1.8-.6h3.5V51.9l-2.5-.2c-3.1-.4-6-2.7-6.1-4.9s1.4-4.8,5.3-5.5,2.3-2.5,2.6-4a4.3,4.3,0,0,0-1.7-3.1c-30.2-22-63.2-27-98.7-15.5a95,95,0,0,0-16.9,7.6h0c-2.5,1.5-5,3.1-7.4,4.8,2,4.7,10.1,8.5,14.2,6.7l-10.5-5.5a11.5,11.5,0,0,1,4.4-4.8c3.2-1.6,6.8-.7,9.4,2.9a10.7,10.7,0,0,1,2.5-.3,10.2,10.2,0,0,1,2.7,1.1,8.8,8.8,0,0,1-2.1,1.2c-1.6.5-2.9,1.6-2.1,3.1s2.3,2.4,3.4,2.2a46,46,0,0,0,8-2.2l-1.6-2a5.2,5.2,0,0,1-1.1-1.9c-.3-2,.5-3.5,2.7-3.7s3.9.9,4,3.3,0,3.8,2.4,4.4c1.3-5.1,2.8-6.4,8.1-6.6a26.8,26.8,0,0,1,4.9.1c6.3.6,6.9,1.2,7.4,7.3l.7.5c.8.7,1.5,1.5,2.3,2.3a11,11,0,0,1-3,1.6c-1.7.2-3.1,0-3.9,2.1s-2.2,1.6-3.4,1.5-2-1.3-2.6-2.3.1-1.8.4-2.6a14,14,0,0,1,1.6-2c-1.1-.6-2.1-1.7-3.1-1.7-3.2-.1-7.6,1.4-8.4,6.1-2,.2-4,.3-6,.7a94,94,0,0,0-10.8,2.3c-2.2.7-2.5,2.5-.9,4.1s4.4,4,6.7,5.9c.4.3,1.3.6,1.6.4a53,53,0,0,0,6.4-5.1c.8-.8.5-2.5.8-3.8s.5-2.5.8-2.5a29.1,29.1,0,0,1,7.8-.1c.8.1,1.4,1.9,2.3,3.3h3.1c4.4-.1,5.1.5,5.8,4.9a13.6,13.6,0,0,1,.2,2c.1,3-1.4,6.3,1.9,8.5.2.2,0,.9,0,1.4-3.4.7-4.7-.1-6.3-4.3-2.7,1.7-5.4,2.1-8.2.5-.4-.3-1.6.3-2.1.9-5,5-9.9,10.1-14.8,15.2a15.4,15.4,0,0,0-2.5,3.2c-1.4,2.5-3,4.6-5.9,5.6s-4.8,2.7-4.3,6.1a5.1,5.1,0,0,1-.4,1.4l-1.6-1.3c-7.8-6.4-16.7-1.6-20.4,4.1a7.3,7.3,0,0,0-.9,4.4c0,1.8,2.4,2.8,3.4,1.5,2.5-3.3,5.8-1.5,9.2-2.1a17.3,17.3,0,0,0-1.2,2.6c-.2.8-.3,1.6-.5,2.4,5.9,1,5.9,1,6.1,5.2s1.9,5.8,6.3,4.5a5.9,5.9,0,0,0,2.2-1.4c1.3-1,2.6-2.1,3.9-3s3.7-1.3,5.1,1.2,2,2.9,3.1,4.4c6.1-4.5,9.5-4,12.5,2.3,1.2,2.5,2.7,3.4,5.3,3.1s4.1,1,4.3,3.6c.5,5.5,3.3,8,8.7,8h3.8c3.8-.1,6.6,1.7,9,4.3a3.7,3.7,0,0,1,.2,5.4c-2.9,3.5-4.1,7.8-4.6,12.2-.6,6.6-1.9,7.9-8.7,8.1-2.9.1-3.5,1-2,3.5s1.1,3.8-.6,6a55.2,55.2,0,0,0-5.1,9.2c-1.1,2.3-2.5,3.8-5.1,3.8h-6c.3,4.7-1.9,9.7,4.2,12-2.1,3.2-1.8,6,2.9,7.5-.9,3.1-2.2,4.1-4.9,3.2a16.8,16.8,0,0,1-5.6-3c-5.5-4.7-7.8-11.2-8.8-18s-1.8-15.7-2.4-23.6c-.4-4.8-2.1-8.8-6.1-11.8a58,58,0,0,1-5.6-5.5c-3.3-3.2-5.1-6.9-4.2-11.5a32.1,32.1,0,0,1,1.5-5.3c.6-1.8,1.7-3.6,2-5.4.5-4.1-1.3-6-5.3-6-1.8.1-3.3-.1-4.1-1.9s-4-4.3-7.4-3.7l-1.2-.3a9.1,9.1,0,0,0-.1-1.7c-.2-1.2-.5-2.4-.8-3.6a22.2,22.2,0,0,0-3.2,1.4c-3.3,2.1-7.3,1.8-9.7-1.3a20.3,20.3,0,0,1-3.2-6.8c-1.2-4.1-1.9-8.3-3.1-12.5-.3-1-1.6-1.7-2.4-2.6-.4,1.2-1.2,2.5-1,3.5.5,2.5,1.6,4.9,2.2,7.3s-.1,2.2-.1,3.4c-1.2-.6-2.8-.8-3.6-1.7-2.4-2.8-2.2-6.3-2.1-9.7s.1-4.8-2.6-6c-.4-.1-.6-1.1-.7-1.7a20.6,20.6,0,0,1-.3-2.6h-1.1c-11.9,29.5-12.4,59.1,2.1,87.7,20,39.8,53.2,60.4,97.8,59.8,37.3-.5,66-18.2,87.2-49.2-4.5-.9-8.3-1.5-12.1-2.4-5.6-1.3-8.1-4.6-8.1-10.3,0-1.3.1-2.7,0-4.1a3.4,3.4,0,0,0-.9-1.9c-3-2.2-3.4-4.5-1.2-7.6,3.4-4.8,3.8-6.2.2-10.8s-3.5-7.8-3.3-12.2-.4-3.6-3.7-3.1c-1.7.2-4,.3-5.2-.7a3.5,3.5,0,0,0-4.2-.6c-3.8,1.9-7.8,2-12,1.9-6.1-.3-10.7-4-11.3-10.1-.4-3,.5-6.2.8-9.2s.7-3.4.2-4.8c-1.4-4.1-1.3-5.1,2.3-7.6a24.6,24.6,0,0,1,3.4-2.2,3.5,3.5,0,0,0,2.2-3.6c-.1-4.4.9-5.3,5.4-5.2s6.8,0,10.1-2,6.9-1.4,10.2.7l7.9,5a7.7,7.7,0,0,0,8.5.1,5.6,5.6,0,0,1,6.6.4c.8.5,1.4,1.2,2.2,1.8S305.7,87.3,307.3,86ZM291.9,52.1c-1.7-1.6-3.3-4.3-4.9-4.3s-3.3,2.7-4.9,4.3l4.8,3.6ZM177.8,67.2c-1.6-.9-2.4-1.7-3.2-1.7s-1.4.9-2.1,1.4,1.4,1.6,2.2,1.7S176.2,68,177.8,67.2Zm-2.6,4.3a4.1,4.1,0,0,0-.1-1.1c-.8-.4-1.7-1.2-2.4-1a10.4,10.4,0,0,0-2.9,1.9c.8.6,1.5,1.8,2.2,1.7S174.1,72,175.2,71.5ZM169.8,66c1.1-1.2,3-2.5,2.8-3.4a4.9,4.9,0,0,0-3.1-3.2c-1.3-.3-3,.7-4.5,1.2.7,1.6,1.3,3.3,1.7,4.2l-1.6,5.5c1.2,0,2.6.5,3.4.1S171,67.5,169.8,66Zm-8.3-7.4a43.6,43.6,0,0,1,3.1-3.5c-1.1-.8-2.1-2.1-3.1-2s-2.1,1.3-3.2,2Zm-4.1-14.2h-6.8C152.4,46.7,154.9,46.8,157.4,44.4Zm-.6-5.9c-3.2-1.1-4.7-.6-6.1,2C153.6,42,155.2,41.5,156.8,38.5Z"/><path class="cls-4" d="M307.5,81.6c1.1,1.4,1.5,3-.2,4.4s-3.4,1.9-5.3.4-1.4-1.3-2.2-1.8a5.6,5.6,0,0,0-6.6-.4,7.7,7.7,0,0,1-8.5-.1l-7.9-5c-3.3-2.1-6.9-2.8-10.2-.7s-6.6,2-10.1,2-5.5.8-5.4,5.2a3.5,3.5,0,0,1-2.2,3.6,24.6,24.6,0,0,0-3.4,2.2c-3.6,2.5-3.7,3.5-2.3,7.6.5,1.4,0,3.2-.2,4.8s-1.2,6.2-.8,9.2c.6,6.1,5.2,9.8,11.3,10.1,4.2.1,8.2,0,12-1.9a3.5,3.5,0,0,1,4.2.6c1.2,1,3.5.9,5.2.7,3.3-.5,3.8-.3,3.7,3.1s.3,8.4,3.3,12.2,3.2,6-.2,10.8c-2.2,3.1-1.8,5.4,1.2,7.6a3.4,3.4,0,0,1,.9,1.9c.1,1.4,0,2.8,0,4.1,0,5.7,2.5,9,8.1,10.3,3.8.9,7.6,1.5,12.1,2.4-21.2,31-49.9,48.7-87.2,49.2-44.6.6-77.8-20-97.8-59.8-14.5-28.6-14-58.2-2.1-87.7H118a20.6,20.6,0,0,0,.3,2.6c.1.6.3,1.6.7,1.7,2.7,1.2,2.7,3.6,2.6,6s-.3,6.9,2.1,9.7c.8.9,2.4,1.1,3.6,1.7,0-1.2.4-2.4.1-3.4s-1.7-4.8-2.2-7.3c-.2-1,.6-2.3,1-3.5.8.9,2.1,1.6,2.4,2.6,1.2,4.2,1.9,8.4,3.1,12.5a20.3,20.3,0,0,0,3.2,6.8c2.4,3.1,6.4,3.4,9.7,1.3a22.2,22.2,0,0,1,3.2-1.4c.3,1.2.6,2.4.8,3.6a9.1,9.1,0,0,1,.1,1.7l1.2.3c3.4-.6,5.9.6,7.4,3.7s2.3,2,4.1,1.9c4,0,5.8,1.9,5.3,6-.3,1.8-1.4,3.6-2,5.4a32.1,32.1,0,0,0-1.5,5.3c-.9,4.6.9,8.3,4.2,11.5a58,58,0,0,0,5.6,5.5c4,3,5.7,7,6.1,11.8.6,7.9,1.2,15.8,2.4,23.6s3.3,13.3,8.8,18a16.8,16.8,0,0,0,5.6,3c2.7.9,4-.1,4.9-3.2-4.7-1.5-5-4.3-2.9-7.5-6.1-2.3-3.9-7.3-4.2-12h6c2.6,0,4-1.5,5.1-3.8a55.2,55.2,0,0,1,5.1-9.2c1.7-2.2,1.9-3.8.6-6s-.9-3.4,2-3.5c6.8-.2,8.1-1.5,8.7-8.1.5-4.4,1.7-8.7,4.6-12.2a3.7,3.7,0,0,0-.2-5.4c-2.4-2.6-5.2-4.4-9-4.3h-3.8c-5.4,0-8.2-2.5-8.7-8-.2-2.6-1.8-3.8-4.3-3.6s-4.1-.6-5.3-3.1c-3-6.3-6.4-6.8-12.5-2.3-1.1-1.5-2.2-2.9-3.1-4.4s-2.8-2.9-5.1-1.2-2.6,2-3.9,3a5.9,5.9,0,0,1-2.2,1.4c-4.4,1.3-6.1.1-6.3-4.5s-.2-4.2-6.1-5.2c.2-.8.3-1.6.5-2.4a17.3,17.3,0,0,1,1.2-2.6c-3.4.6-6.7-1.2-9.2,2.1-1,1.3-3.4.3-3.4-1.5a7.3,7.3,0,0,1,.9-4.4c3.7-5.7,12.6-10.5,20.4-4.1l1.6,1.3a5.1,5.1,0,0,0,.4-1.4c-.5-3.4,1.5-5.1,4.3-6.1s4.5-3.1,5.9-5.6a15.4,15.4,0,0,1,2.5-3.2c4.9-5.1,9.8-10.2,14.8-15.2.5-.6,1.7-1.2,2.1-.9,2.8,1.6,5.5,1.2,8.2-.5,1.6,4.2,2.9,5,6.3,4.3,0-.5.2-1.2,0-1.4-3.3-2.2-1.8-5.5-1.9-8.5a13.6,13.6,0,0,0-.2-2c-.7-4.4-1.4-5-5.8-4.9h-3.1c-.9-1.4-1.5-3.2-2.3-3.3a29.1,29.1,0,0,0-7.8.1c-.3,0-.6,1.6-.8,2.5s0,3-.8,3.8a53,53,0,0,1-6.4,5.1c-.3.2-1.2-.1-1.6-.4-2.3-1.9-4.6-3.8-6.7-5.9s-1.3-3.4.9-4.1a94,94,0,0,1,10.8-2.3c2-.4,4-.5,6-.7.8-4.7,5.2-6.2,8.4-6.1,1,0,2,1.1,3.1,1.7a14,14,0,0,0-1.6,2c-.3.8-.7,2-.4,2.6s1.7,2.2,2.6,2.3,3.1-.7,3.4-1.5,2.2-1.9,3.9-2.1a11,11,0,0,0,3-1.6c-.8-.8-1.5-1.6-2.3-2.3l-.7-.5c-.5-6.1-1.1-6.7-7.4-7.3a26.8,26.8,0,0,0-4.9-.1c-5.3.2-6.8,1.5-8.1,6.6-2.4-.6-2.3-2.5-2.4-4.4s-1.8-3.4-4-3.3-3,1.7-2.7,3.7a5.2,5.2,0,0,0,1.1,1.9l1.6,2a46,46,0,0,1-8,2.2c-1.1.2-2.9-1.1-3.4-2.2s.5-2.6,2.1-3.1a8.8,8.8,0,0,0,2.1-1.2,10.2,10.2,0,0,0-2.7-1.1,10.7,10.7,0,0,0-2.5.3c-2.6-3.6-6.2-4.5-9.4-2.9l-.7-1.2h0a95,95,0,0,1,16.9-7.6c35.5-11.5,68.5-6.5,98.7,15.5a4.3,4.3,0,0,1,1.7,3.1c-.3,1.5-.1,3.6-2.6,4s-5.5,2.6-5.3,5.5,3,4.5,6.1,4.9l2.5.2v2.9h-3.5c-.7,0-1.6.2-1.8.6-2.6,4-5.2,7.7-11.2,6.1a2.9,2.9,0,0,1,.2.9c.5.3,1.3.6,1.5,1.1s1,2.2.7,3.1-1.5,1.4-2.4,1.5-4.5-.2-6.7-.1-3.3.4-3.4,1.1a7.7,7.7,0,0,0,.1,5.2c1.6,3,7.5,3.6,10.2,1.4l4.4-3.7c4.3-3.6,6.8-3.7,11-.1l2.7,2.2a29.9,29.9,0,0,0-3.3,1.2c-.5.3-.8,1-1.2,1.5s1,1,1.5,1.1h5.4c1.3-3.5,1.4-6.1-2.3-7.9-1.5-.7-2.5-2.6-3.9-4.1,5-1.2,10.5,2.2,13,7.4.6,1.3,1.6,3.5,2.5,3.5,2.4.1,1.7-2.5,2.4-4s.2-.1.2-.2h.6c1.6,2.5,3.2,4.8,6.6,5.4C305,78.2,306.4,80.2,307.5,81.6Z"/><path class="cls-3" d="M169.8,66c1.2,1.5.6,3.3-1.3,4.4s-2.2-.1-3.4-.1l1.6-5.5c-.4-.9-1-2.6-1.7-4.2,1.5-.5,3.2-1.5,4.5-1.2a4.9,4.9,0,0,1,3.1,3.2C172.8,63.5,170.9,64.8,169.8,66Z"/><path class="cls-3" d="M286.9,55.7l-4.8-3.6c1.6-1.6,3.2-4.3,4.9-4.3s3.2,2.7,4.9,4.3Z"/><path class="cls-3" d="M161.5,58.6l-3.2-3.5c1.1-.7,2.1-2,3.2-2s2,1.2,3,2Z"/><path class="cls-3" d="M156.8,38.5c-1.6,3-3.2,3.5-6.1,2C152.1,37.9,153.6,37.4,156.8,38.5Z"/><path class="cls-3" d="M175.2,71.4c-1.1.6-2.1,1.5-3.2,1.6s-1.4-1.1-2.2-1.7a10.4,10.4,0,0,1,2.9-1.9c.7-.2,1.6.6,2.4,1Z"/><path class="cls-3" d="M150.6,44.4h6.8C154.9,46.8,152.4,46.7,150.6,44.4Z"/><path class="cls-3" d="M177.8,67.2c-1.6.8-2.4,1.6-3.1,1.4s-1.5-1.1-2.2-1.7,1.4-1.4,2.1-1.4S176.2,66.3,177.8,67.2Z"/><path class="cls-3" d="M263.5,49.1l-3.1-4.8c4.5-.8,9.2,4.9,7.7,8.4a3.5,3.5,0,0,1-2.8,1.8,4.2,4.2,0,0,1-2.4-2.5A6.2,6.2,0,0,1,263.5,49.1Z"/><path class="cls-3" d="M257.5,51.3c.9,1.7,1.9,2.7,1.8,3.5s-1.4,1.4-2.2,2.1-1.8-1.6-1.9-2.4S256.3,52.9,257.5,51.3Z"/><path class="cls-5" d="M208.2,139a5.8,5.8,0,0,1,3.5-.6c1.7.4,7.7,4.3,7.7,4.3l4.8-.9,2.9,13.6-18.9,7.9V139Z"/><path class="cls-6" d="M194.2,143.8a28.7,28.7,0,0,0,5.9-1.4c1.6-.7,5.3-4.1,6.1-4l3.6.6-1.1,3.4s5.6,3.5,7.3,4.7,7,7,7.3,8.4-.2,3-.9,3.5-3.1-.5-3.1-.5a2.8,2.8,0,0,1-.5,2.4c-.9,1.2-3,.8-3,.8s-.2,2-1.2,2.4-3.1-.7-3.1-.7-.6,1.6-1.4,1.8-3.1-1.1-3.1-1.1-9.6-7-11.8-8a12.4,12.4,0,0,0-2.8-1.1l1.8-11.2Z"/><path class="cls-7" d="M211.5,163.4l-.2-.5a2.8,2.8,0,0,0-.5-.9c-.4-.8-.8-1.4-.7-1.4s.6.5,1,1.2a3,3,0,0,1,.4,1.1.7.7,0,0,1,0,.5Z"/><path class="cls-7" d="M215.5,162.2c-.1,0-.5-.8-1.2-1.8s-1.4-1.7-1.3-1.8a5.6,5.6,0,0,1,1.5,1.6,4.6,4.6,0,0,1,1,2Z"/><path class="cls-7" d="M219.4,158.7c-.1,0-.4-1-1-2.1s-1.5-1.9-1.4-2a5.9,5.9,0,0,1,1.6,1.8,4.6,4.6,0,0,1,.8,2.3Z"/><path class="cls-7" d="M216.6,151.2a10.8,10.8,0,0,1,.3,1.6,3.5,3.5,0,0,1-.2,1.6,4.6,4.6,0,0,1-.1-1.6,7,7,0,0,1,0-1.6Z"/><path class="cls-5" d="M202.5,145.8s1.5-4.9,2.1-5.5,5.6-1.9,5.6-1.9l1.5,4-1.1,1.2h-2.4a4.2,4.2,0,0,1-5.7,2.3Z"/><path class="cls-5" d="M193.3,155.3s-.7.5,0,1.8,2.5.3,3.1,0-.9,2.1.3,2.8a4.6,4.6,0,0,0,2.5.4,2.3,2.3,0,0,0,1.6,2.1c1.6.9,2,0,2,0s.2,2.2,2.1,2.3a3.4,3.4,0,0,0,2.5-.4l-.8-1.3s1-2.2.2-3.1a2.8,2.8,0,0,0-2.2-.9s.3-1.9-.7-2.5a2.1,2.1,0,0,0-2.9.9s-.1-2.2-1.7-2.1a3.4,3.4,0,0,0-2.4,1l-3.6-1Z"/><path class="cls-8" d="M201,157.4a3.7,3.7,0,0,1-.7,1.6,5.1,5.1,0,0,1-1.1,1.4l.8-1.6c.5-.8.9-1.5,1-1.4Z"/><path class="cls-8" d="M204.6,159.3a3.8,3.8,0,0,1-.8,1.7c-.6.8-1.2,1.4-1.3,1.3l1.1-1.5c.5-.8.9-1.6,1-1.5Z"/><path class="cls-9" d="M167.3,182h-9.2l-2.3,33.3H165c1.5-5.1,5.4-31.5,5.4-31.5l-3.1-1.8Z"/><path class="cls-9" d="M115.5,182s-5.9,13.8-5.3,19.3,3.9,14,3.9,14h45.3s1.2-4.7,2.2-11.5,3.6-21.8,3.6-21.8Z"/><path class="cls-10" d="M175.3,49.6c-1.5-1.9-3.4-3.8-3.8-6.2s.6-4.7-.4-6.7-4.7-3-6.3-5.3-.9-2.6-1.6-3.7-3.9-2.6-6.1-2.4-4.6.8-6.9.9-6.3-1.2-9.4-.4-5.5,3.7-7.8,6.4l-3,3.2-2,1.4a27.1,27.1,0,0,0-3.7,2.1,5.6,5.6,0,0,0,0,8.1,5.9,5.9,0,0,0-4.3,5.6,15.1,15.1,0,0,0,.9,4.1,6.4,6.4,0,0,1-.1,4.1,2.6,2.6,0,0,1-3.5,1.3,6.4,6.4,0,0,0,3.2,4.3,3.5,3.5,0,0,1-2.5,1c2.2,6.1,9,9.6,15.5,10s12.9-1.9,19-4l17.7-3.7c1.6-.3,2.3-2.1,2.4-3.7s-.3-3.3.3-4.7,3.3-2.9,4.2-4.9-.2-4.9-1.8-6.8Z"/><path class="cls-10" d="M133.1,63.6a82.4,82.4,0,0,1-2.5-12.2,25.3,25.3,0,0,1,1.6-12.2c.3-.6,2.4-4.5,3-4.4s-.9,3.7-.7,4.1c2,3.8,2.3,8.3,1.8,12.6a55.3,55.3,0,0,1-3.2,12.1"/><path class="cls-6" d="M133.5,47.7c.2-10.4,6.5-19,16.9-18.5h1a18.7,18.7,0,0,1,16.7,19c-.3,9.1-.6,19.1-1.2,23.9-1.2,9.9-11.3,10.4-11.3,10.4L155.3,99,131.6,82.6l1.9-34.9"/><path class="cls-7" d="M155.6,82.6a24,24,0,0,1-12.5-5.2s2.3,8.4,12.3,8.6l.2-3.4Z"/><path class="cls-6" d="M133.6,55.2c-.2-.1-6.7-2.7-7.2,4.1s6.5,5.9,6.5,5.7.7-9.8.7-9.8Z"/><path class="cls-7" d="M131,62.3h-.3a1.4,1.4,0,0,1-.9,0c-.7-.3-1.2-1.5-1.2-2.8a3.8,3.8,0,0,1,.5-1.6,1.5,1.5,0,0,1,1-.9c.3,0,.6.2.6.4v.3c0,.1.2-.1.1-.4a.8.8,0,0,0-.2-.4l-.7-.2a1.7,1.7,0,0,0-1.3.9,4.1,4.1,0,0,0-.5,1.9,3,3,0,0,0,1.5,3.1,1.3,1.3,0,0,0,1.1-.1c.2-.2.3-.3.2-.3Z"/><path class="cls-10" d="M164.4,36.7c1.1-.5-2-4.3-4.6-5.7s-10.2-3.7-14.1-2.9-8.5,3-11.1,7.1a26.5,26.5,0,0,0-3.9,13.5,7.7,7.7,0,0,0,.7,4.2c.9,1.6,2.6,2.7,2.4,4.7a2.9,2.9,0,0,0,.6,2.2c1.1,1.4,2.8.2,3.5-1s2.1-5.7,2.4-8.8a17.8,17.8,0,0,0,0-6.5c-.3-1.2-.7-2.3-.9-3.5a4.1,4.1,0,0,1,.7-3.4l.6-.5a7,7,0,0,1,7.1-.9c3.8,1.6,10.2,4.1,12,2.9a10.8,10.8,0,0,0,3.3-2.9l1.3,1.5Z"/><path class="cls-10" d="M146.2,27.2a14.9,14.9,0,0,1,11.5,1.4,7.6,7.6,0,0,1,3.8,4.8c.4,2.1-.6,4.5-2.6,5.2h-.1c-3,.8-4.9.3-7.7-.9s-4.5-2.6-6.9-3.6a14,14,0,0,0-8.1-.8,22.4,22.4,0,0,1,10.1-6.1Z"/><path class="cls-10" d="M147.9,26h.7a10.2,10.2,0,0,1,1.8.5,12,12,0,0,1,2.5,1.3,9.4,9.4,0,0,1,2.5,2.4,7.5,7.5,0,0,1,1.4,3.2,9.9,9.9,0,0,1,.4,2.8,14.2,14.2,0,0,1,.1,1.9c0,.4,0,.7-.1.7v-.7a17.6,17.6,0,0,0-.2-1.9,14.7,14.7,0,0,0-.4-2.7,8.7,8.7,0,0,0-1.4-3.1,10.9,10.9,0,0,0-2.4-2.4,12,12,0,0,0-2.5-1.3c-1.4-.6-2.4-.7-2.4-.8Z"/><path class="cls-10" d="M154.2,25.7h.6l.6.3.9.4a8.4,8.4,0,0,1,3.5,4.2,4.4,4.4,0,0,1,.5,1.5l.3,1.4V35c-.1.4-.1.8-.2,1.1a2,2,0,0,1-.2.9l-.3.7-.3.5a18.3,18.3,0,0,0,.6-2.1,4.5,4.5,0,0,0,.1-1.2,4.8,4.8,0,0,0,0-1.2,7.7,7.7,0,0,0-.2-1.5c-.2-.4-.3-.9-.5-1.4a9,9,0,0,0-3.4-4.1l-.8-.5-.7-.3-.5-.2Z"/><path class="cls-11" d="M158.6,97.4c0,.9,4.7,21.6,6.5,26.6s7.5,55.9,6.8,59.6-2.7,3.4-2.7,3.4-46-2.9-51-2.4-7,.3-8.2-5.4,0-35-1-42.1-1.1-10.5-1.5-21.1c-.4-9.1,1.7-16.4,6.1-21.7s13.9-10.7,13.9-10.7l3.4-4.9,24.2,12.7.6-2.9,1.4,4.5,1.5,4.4"/><path class="cls-1" d="M144.1,165.6a27.1,27.1,0,0,1-8.1-1c-9-2.8-11.7-11.3-15.3-20a140.8,140.8,0,0,1-7.8-27l3.5-1.4c4.6,7.6,9.1,15.1,14,22.4a49,49,0,0,0,7.5,9.5c7.4,7.1,18.1,9.7,28.3,10.8,1.1.1,2.4.4,2.8,1.4a1.9,1.9,0,0,1-.6,2.1,4.7,4.7,0,0,1-2,1,37.8,37.8,0,0,1-7.5,1.2c-3.8.3-9.6,1-14.8,1"/><g class="cls-12"><rect class="cls-1" x="112.9" y="116.2" width="56.4" height="49.33"/></g><path class="cls-11" d="M111.6,114.8c.3.5,20.8,44.2,29.9,46s37.6,2.2,43.1,1.2l11-2.1s4-9.5.3-17.6l-7.6.2s-21.2-1.1-24.2-1.9-5.6-3.7-8.3-3.5L139.6,99.5s-10.4-9.7-17.9-6.7-12.3,18.1-10.1,22Z"/><path class="cls-13" d="M188.9,161.5a4.5,4.5,0,0,1,.1-.8,11.3,11.3,0,0,0,.5-2c.1-.8.3-1.8.4-2.9s.1-2.4.1-3.7a31,31,0,0,0-1.1-6.6,12.4,12.4,0,0,0-.6-2,3.1,3.1,0,0,0-.2-.7l.3.7a9.7,9.7,0,0,1,.7,1.9,26.6,26.6,0,0,1,1.1,6.7,22.6,22.6,0,0,1-.1,3.7,24.3,24.3,0,0,1-.4,3,16.7,16.7,0,0,1-.6,2l-.2.7Z"/><path class="cls-13" d="M139.6,99.5a2.2,2.2,0,0,1,.4.7c.2.4.4,1.1.8,1.9l3.3,7.6c2.8,6.5,6.8,15.9,11.8,27.3h-.1a6.6,6.6,0,0,1,3.6,1.1l3.3,1.8a10.1,10.1,0,0,0,3.9.9l4.1.4c5.6.5,11.5.8,17.6,1.2h0l7.6-.3h.2a21.5,21.5,0,0,1,1.5,8.8,28.4,28.4,0,0,1-1.9,9h-.1l-4.8.9-5.4,1a45.3,45.3,0,0,1-5.3.5c-3.5.2-7,.2-10.4.2s-6.8-.1-10.1-.3-6.5-.2-9.6-.5l-4.6-.4a21.1,21.1,0,0,1-4.5-.8,5.6,5.6,0,0,1-2-1.1,10.7,10.7,0,0,1-1.6-1.4,28.9,28.9,0,0,1-2.9-3.2,138.3,138.3,0,0,1-8.6-13c-4.8-8.2-8.2-15-10.6-19.8l-2.7-5.5-.9-1.9.3.5c.1.3.4.8.7,1.4l2.7,5.5c2.4,4.7,5.9,11.6,10.7,19.7a125.6,125.6,0,0,0,8.6,12.9,28.9,28.9,0,0,0,2.9,3.2,10.7,10.7,0,0,0,1.6,1.4,5.2,5.2,0,0,0,1.9,1.1,31.1,31.1,0,0,0,4.4.7l4.6.5,9.6.5,10.1.2c3.4,0,6.9,0,10.4-.2a31.7,31.7,0,0,0,5.3-.5l5.3-1,4.9-.9h-.2a27.8,27.8,0,0,0,1.9-8.9,19.8,19.8,0,0,0-1.5-8.7h.1l-7.6.3h0l-17.6-1.2-4.1-.4-2.1-.3a7.3,7.3,0,0,1-1.9-.7,34.7,34.7,0,0,1-3.3-1.8,6.6,6.6,0,0,0-3.5-1.1h-.1L144,109.7l-3.2-7.5-.9-2-.3-.7Z"/><path class="cls-13" d="M137.5,96.6l-.8-.8a12.4,12.4,0,0,0-2.3-1.7,16.6,16.6,0,0,0-4-1.8,15.3,15.3,0,0,0-5.3-.4,13.3,13.3,0,0,0-5,1.5,15,15,0,0,0-3.6,2.4,23.5,23.5,0,0,0-1.9,2.2l-.7.9v-.2l.5-.7a10.7,10.7,0,0,1,1.9-2.3,13.7,13.7,0,0,1,8.7-4.1,13.6,13.6,0,0,1,5.4.5,13.4,13.4,0,0,1,4,1.8,18.6,18.6,0,0,1,2.3,1.8l.5.6.2.3Z"/><path class="cls-13" d="M155.7,137.1a19.4,19.4,0,0,1-1,3.2,16.3,16.3,0,0,1-1.3,3.1,16.7,16.7,0,0,1,1-3.2l1.3-3.1Z"/><path class="cls-13" d="M192.8,144.3h.2l.4.4a.7.7,0,0,1,0,.9.8.8,0,0,1-.9.4.9.9,0,0,1-.8-.7,1.2,1.2,0,0,1,.3-.9.7.7,0,0,1,.6-.1h.2c0,.1-.4,0-.7.3a.6.6,0,0,0-.1.6.6.6,0,0,0,.5.6.8.8,0,0,0,.7-.4c.1-.1.1-.4.1-.6s-.5-.4-.5-.5Z"/><path class="cls-13" d="M155.7,92.9l-.6-.3-1.5-.9h.1c-.3,1.5-.6,3.7-1.1,6.4v.2h-.2l-7.8-4.8-6-3.6c-1.8-1.2-3.5-2.1-4.9-2.9L130.3,85l-.9-.5-.3-.2h.3l.9.5,3.5,1.8,5,2.8,6,3.7,7.8,4.8h-.2c.5-2.7.8-4.9,1.2-6.5h.1l1.5.9.5.4"/><path class="cls-14" d="M154,100.7c-3.3-1-6.2-3.1-8.9-5.2l-12.1-9,.7.4,1.7,1,5.7,3.4,3.5,2.1,7.8,4.8h.2v-.2c.2-1.2.4-2.4.6-3.4l.6-2.7c0,2.9.1,5.8.2,8.7"/><path class="cls-15" d="M152.6,98.3h-.2l-7.8-4.8-3.5-2.1,11.4,6.8.7-3.4c-.2,1-.4,2.2-.6,3.4v.2M135.4,87.9l-1.7-1-.7-.4-.6-.4,3,1.8"/><path class="cls-10" d="M262.2,42.2a4.5,4.5,0,0,1-2.1-8.7,5.1,5.1,0,0,1-.9-5.4,4.8,4.8,0,0,1,4.9-2.6,5.8,5.8,0,0,1,2.8-4.8,6.1,6.1,0,0,1,5.6,0,6.3,6.3,0,0,1,7.8-.3,4.6,4.6,0,0,1,4.8,2.3,4.7,4.7,0,0,1-.7,5.3"/><path class="cls-5" d="M261.6,42.9a19.1,19.1,0,0,1,18.7-18h1c10.7.4,16.4,9.8,15.7,20.5l.6,38.1-26,9.4L271.3,79S261,77.6,260.7,67.4c-.2-5,.3-15.3.9-24.5Z"/><path class="cls-8" d="M271.3,79a24.8,24.8,0,0,0,13.4-4.2s-3.1,7.5-13.3,6.8V79Z"/><path class="cls-10" d="M262.5,38.1s2.6-6.5,5.6-8,5.5,2.2,9,1.1,7.1-2.9,10.9-.2,2.2,5.1,2.5,9.7c1.4,18.5,4.9,23.6,5.7,14.9.1-1,2.7-1.8,3-5.8s.5-11.6-.8-15.3-2.8-5.2-6.1-7.6c-5.1-3.6-12-3.6-16.7-3s-13.7,6.2-13.1,14.2Z"/><path class="cls-16" d="M295.5,55.3a2.8,2.8,0,0,1,3-2.7c1.9.1,4.1,1.2,4,5.1-.1,7.1-7.1,5.5-7.1,5.3s.1-4.7.1-7.7Z"/><path class="cls-8" d="M296.9,60.4l.4.2a1.4,1.4,0,0,0,.9,0,3,3,0,0,0,1.4-2.7,5.2,5.2,0,0,0-.3-1.8,1.3,1.3,0,0,0-.9-.9c-.4-.1-.7.1-.7.3a1,1,0,0,0-.1.4c-.1,0-.2-.2-.1-.4a.5.5,0,0,1,.3-.5l.6-.2a1.8,1.8,0,0,1,1.3,1.2,3.8,3.8,0,0,1,.4,1.9c-.1,1.4-.8,2.8-1.8,3a1,1,0,0,1-1.1-.2c-.3-.1-.3-.3-.3-.3Z"/><path class="cls-10" d="M295.1,41.7a6.5,6.5,0,0,1-2.9,1.4,2.2,2.2,0,0,1-2.6-1.5c-.1-.5,0-1.1-.3-1.5s-1.1-.2-1.7-.2a4.3,4.3,0,0,1-4.7-3.1,2,2,0,0,1-2.6.3,9,9,0,0,1-1.9-2,3.2,3.2,0,0,0-2.5-1.2,8.3,8.3,0,0,1-1.5.4c-.9-.1-1.4-1.1-1.5-2.1s-.3-1.9-1.1-2.4a3.1,3.1,0,0,0-2.5,0c-.9.1-2-.1-2.2-.9a1.6,1.6,0,0,1,.3-1.3,4.6,4.6,0,0,1,5.3-1.8,6.2,6.2,0,0,1,5.2-4.5,6.3,6.3,0,0,1,6.1,3.1,6.3,6.3,0,0,1,10.1,2,4.9,4.9,0,0,1,4.8,1.6,4.4,4.4,0,0,1,.4,4.9,4.6,4.6,0,0,1,2.5,3.4c0,1.5-1.4,3-2.8,2.6a2.5,2.5,0,0,1-.9,3.3,2.7,2.7,0,0,1-3.4-.7"/><path class="cls-10" d="M272.2,27.9h0a.8.8,0,0,0,.1.4,5.5,5.5,0,0,0,.5,1.3,4.9,4.9,0,0,0,1.6,1.6,4.7,4.7,0,0,0,2.9.8h-.1a2.5,2.5,0,0,0,.2,1.9,6.6,6.6,0,0,0,1.2,1.7l.8.8,1.1.4a2.6,2.6,0,0,0,2.3-.9h-.3a5.5,5.5,0,0,0,2.3,3.6,4.8,4.8,0,0,0,2.4.7,7.9,7.9,0,0,0,2.2-.6h-.2a6.2,6.2,0,0,0,1.7,2.2,3.3,3.3,0,0,0,2.5.6,3.8,3.8,0,0,0,2.9-3.1h-.1a4.1,4.1,0,0,0,2.4.3,5.4,5.4,0,0,0,1.7-.8,2.4,2.4,0,0,0,.7-.9l.2-.3a4.4,4.4,0,0,1-1,1.1,3.9,3.9,0,0,1-1.6.7,3.7,3.7,0,0,1-2.3-.3h-.2v.2a3.5,3.5,0,0,1-2.8,2.8,2.4,2.4,0,0,1-2.2-.6,5.3,5.3,0,0,1-1.6-2h-.2a7.9,7.9,0,0,1-2.2.6,4,4,0,0,1-2.1-.7,5.1,5.1,0,0,1-2.2-3.4v-.3l-.3.2a2,2,0,0,1-1.9.8,2.9,2.9,0,0,1-1-.3,6,6,0,0,1-.8-.8,6.1,6.1,0,0,1-1.2-1.6,2.3,2.3,0,0,1-.2-1.8h-.1a4.9,4.9,0,0,1-2.8-.7,6.1,6.1,0,0,1-1.6-1.6c-.6-1-.6-1.8-.7-1.7Z"/><path class="cls-17" d="M221.9,140.2c.9-.3,30.4-3.9,30.4-3.9l11.9-10.1-1.1,29.3-37.6,3.6-3.6-18.9"/><path class="cls-18" d="M255.6,133.5h0l3.3-2.8-3.3,2.8"/><path class="cls-19" d="M256.5,156l-.9-22.5,3.3-2.8h0v.6a144.8,144.8,0,0,0-1.9,19.3l-.5,5.4"/><path class="cls-20" d="M265.2,107l5.4-11.7.7-7.3s10.2-6.4,15.1-8.9a111.7,111.7,0,0,1,11.5-4.6v6.8L265.2,107"/><path class="cls-17" d="M310,166.9s2.9-39.1,3.1-42c0,0,1.8-20.9-1.9-28.8s-12.1-15-12.1-15l-.7-4.2L282.1,87.1l-7.5,6.6a76.8,76.8,0,0,0-7,8.8A30.1,30.1,0,0,0,262,114c-.4,1.7-4.8,22.5-5,37.1,0,0-.6,12.6-1.4,19.8-.9,8.9-2.3,29.1-2,41.1l52.6-1.6c13-2,10.7-3.3,10.7-3.3L310,166.9"/><path class="cls-13" d="M297.9,81.3l-.4.2-1.1.4-1.6.9-2.2,1.3a56.4,56.4,0,0,0-11.5,10.7H281l-5.1,1v-.2c0,2.4-.1,4.8-.2,7.4h-.1a83.9,83.9,0,0,0-7.4,8.1,32.2,32.2,0,0,0-2.5,3.9l-.3.5-.2.5-.4,1-.6,2.2c-.8,2.8-1.4,5.6-2,8.2-1.2,5.3-2.2,10.1-3,14.1-1.7,8-2.6,13-2.6,13a6.2,6.2,0,0,1,.1-.9c.1-.6.2-1.5.4-2.6s1.1-5.5,1.8-9.5,1.8-8.9,3-14.1c.6-2.7,1.2-5.5,2-8.3.2-.7.4-1.4.7-2.2l.3-1,.3-.6.2-.5c.8-1.3,1.7-2.6,2.6-3.9a64.8,64.8,0,0,1,7.5-8.1h-.1c.1-2.6.2-5,.3-7.4h.1l5-.9h0A58.5,58.5,0,0,1,292.5,84l2.2-1.3,1.7-.8,1.1-.5h.4"/><path class="cls-17" d="M280.2,112.2l.6,52.2-7.9,50.9h21s9.5-38.6,11.7-46.7,5.4-47.6,5.7-49.5,2.3-14.5-4.3-20.9l-26.8,14"/><path class="cls-13" d="M307,98.2l.4.4,1.1,1.4a17.7,17.7,0,0,1,2.7,6.4,39.2,39.2,0,0,1,.4,11.1,67.8,67.8,0,0,0-.7,6.8c-.3,2.4-.5,5-.7,7.7q-.7,8.1-1.8,17.7c-.3,3.2-.7,6.5-1.2,9.8a78.1,78.1,0,0,1-1.8,10.4c-3.5,13.9-7.4,29.3-11.4,45.4H272.8c2.9-18.8,5.6-36.1,7.9-50.9h0c-.1-15.8-.3-28.8-.4-37.9,0-4.6-.1-8.1-.1-10.6v-2.7a19.4,19.4,0,0,1,.1,2.7c0,2.5.1,6,.2,10.6.1,9.1.2,22.1.5,37.9h0c-2.3,14.7-5,32-8,50.8v-.2h20.8c4.1-16.1,7.9-31.4,11.4-45.4a77.3,77.3,0,0,0,1.9-10.3c.4-3.4.8-6.7,1.2-9.8.7-6.4,1.2-12.3,1.7-17.7.3-2.7.5-5.3.8-7.7s.4-4.7.7-6.9a31.8,31.8,0,0,0-.4-10.9,17.9,17.9,0,0,0-2.5-6.5l-1.1-1.4-.4-.4"/><path class="cls-13" d="M291.3,169.6l-1.6-.5a24.5,24.5,0,0,1-3.8-1.5c-1.5-.6-2.7-1.3-3.7-1.8l-1.4-.9,1.5.7,3.7,1.7,3.7,1.6,1.6.7Z"/><path class="cls-13" d="M255.4,173h0v-.4c0-.4.1-.9.1-1.5s.2-3.3.4-5.7c.3-4.7.7-11.3,1.4-18.6s1.4-13.8,2-18.5c.3-2.4.5-4.3.7-5.6a15.7,15.7,0,0,1,.3-1.6v-.4h.1a.6.6,0,0,0-.1.4,13.7,13.7,0,0,1-.2,1.6c-.1,1.3-.3,3.2-.6,5.6-.6,4.7-1.3,11.3-1.9,18.5s-1.2,13.9-1.5,18.6c-.2,2.4-.4,4.3-.5,5.7s-.1,1.1-.1,1.5,0,.3-.1.4Z"/><path class="cls-13" d="M297.9,91.6a26.4,26.4,0,0,0-2-4.2c-1.4-2.1-3-3.5-2.9-3.6l1.1.9a15.8,15.8,0,0,1,2,2.6,10.7,10.7,0,0,1,1.4,2.9,13.1,13.1,0,0,1,.4,1.4Z"/><path class="cls-13" d="M260.9,156.4v.4a1.6,1.6,0,0,1-.4,1,1.5,1.5,0,0,1-1.5.3,1.6,1.6,0,0,1-.8-.6,1.4,1.4,0,0,1-.3-.9,1.6,1.6,0,0,1,.4-1.2,1,1,0,0,1,.5-.4l.5-.2h0a1.5,1.5,0,0,1,1,.3,1.2,1.2,0,0,1,.5.7,2.8,2.8,0,0,1,.1.6c-.1,0-.1-.2-.2-.6a1.2,1.2,0,0,0-.5-.5c-.2-.2-.5-.2-.9-.2h-.4l-.4.3a2,2,0,0,0-.3,1.1,1.3,1.3,0,0,0,.9,1.3,1.3,1.3,0,0,0,1.2-.3,1.5,1.5,0,0,0,.5-.8,1,1,0,0,0,.1-.4Z"/><path class="cls-13" d="M260.1,174.9a.6.6,0,0,1,.1.4,2.8,2.8,0,0,1-.5.9,1.3,1.3,0,0,1-1.5.4,1.6,1.6,0,0,1-.8-.6,1.7,1.7,0,0,1-.3-1,1.9,1.9,0,0,1,.4-1.2,1,1,0,0,1,.5-.4h.5a1.5,1.5,0,0,1,1,.3c.3.1.4.4.5.6a3.2,3.2,0,0,1,.1.7l-.2-.6a1.3,1.3,0,0,0-.5-.6l-.9-.2h.1l-.5.2a.5.5,0,0,0-.4.3,1.7,1.7,0,0,0-.3,1,1.4,1.4,0,0,0,2.2,1.1,1.2,1.2,0,0,0,.4-.8v-.4Z"/><path class="cls-13" d="M304.6,95.1l-1.9-.9-2.3-.6a11.2,11.2,0,0,0-2.7-.3l-2.8.4-2.2.6-1.9,1c0-.1.1-.2.4-.4l.6-.3.8-.4,2.2-.8,2.9-.4a12.7,12.7,0,0,1,2.8.3l2.2.7.8.4.6.3.5.4Z"/><path class="cls-19" d="M258.8,143.7c.2-.7.3-1.4.5-2.1.8-4,1.8-8.8,3-14.1.6-2.6,1.2-5.4,2-8.2l.6-2.2.4-1,.2-.5.3-.5a32.2,32.2,0,0,1,2.5-3.9,6.4,6.4,0,0,0,1-1.3l4.3-4.7,2.1-2.1h.1c.1-2.5.2-4.9.2-7.3l5-.9h.1c1.2-1.4,2.4-2.8,3.6-4a12.4,12.4,0,0,1-2.4,4.5c-.3.2-2.4,1.8-4.4,1.8h-.1c.1,6.6-.3,9.1-3.1,11s-4.9,5.1-6.6,8.2c-2.8,5.3-3.3,11.7-5.1,17.4-1.2,3.7-2,6.8-4.2,10m5.8-26.5a13.4,13.4,0,0,1,.5-1.7,7.8,7.8,0,0,1,1.3-2l-.9,1.4-.2.5-.3.6-.3,1c-.1.1-.1.1-.1.2"/><path class="cls-15" d="M258.7,143.9s4.4-20.5,5.9-26.7c0-.1,0-.1.1-.2l.3-1,.3-.6.2-.5.9-1.4,2.9-3.6a6.4,6.4,0,0,1-1,1.3,32.2,32.2,0,0,0-2.5,3.9l-.3.5-.2.5-.4,1-.6,2.2c-.8,2.8-1.4,5.6-2,8.2-1.2,5.3-2.2,10.1-3,14.1-.2.7-.3,1.4-.5,2.1s-.1.1-.1.2m14.9-38.7,2.1-2.2c.1-2.6.1-4.8.2-7.4h0l5.1-.9,3.7-4.1v.2c-1.2,1.2-2.4,2.6-3.6,4H281l-5,.9c0,2.4-.1,4.8-.2,7.3h-.1l-2.1,2.1m2.3-9.6h0"/><path class="cls-19" d="M296,207.4l9.4-37.5a78.1,78.1,0,0,0,1.8-10.4c.5-3.3.9-6.6,1.2-9.8q1.1-9.6,1.8-17.7.3-3.5.6-6.6c.6,28.7-3.1,58.8-14.8,82"/><path class="cls-21" d="M295.2,209l2.2-8.6c-.6,2.7-1.3,5.4-2,8.1-.1.2-.2.3-.2.5m12.1-51.5c.5-4.3,1-9.4,1.6-14.3-.3,2.1-.5,4.2-.7,6.5s-.6,5.1-.9,7.8"/><path class="cls-15" d="M295.4,208.5c.7-2.7,1.4-5.4,2-8.1,3-11,7.7-29.2,8.6-33.5.3-1.5.7-5,1.3-9.4q.4-4,.9-7.8c.2-2.3.4-4.4.7-6.5,1-9.6,1.8-18.3,1.8-18.3s.1.3.1.5q-.3,3.2-.6,6.6-.7,8.1-1.8,17.7c-.3,3.2-.7,6.5-1.2,9.8a78.1,78.1,0,0,1-1.8,10.4L296,207.4l-.6,1.1"/><path class="cls-13" d="M297.1,77.5l-.3.2-.8.6-3.1,2-10.2,6.6-4.5,2.8h.1l-1.5,1.1-1.2,1.1a20.8,20.8,0,0,0-2.1,2.1h-.2c-.6-1.6-1.2-2.8-1.6-3.7a6.6,6.6,0,0,0-.4-1.1v-.3l.2.3.4,1c.5.9,1,2.2,1.7,3.7h-.1l2-2.2a6.9,6.9,0,0,1,1.3-1.1l1.4-1.1h0l4.4-2.8,10.3-6.6,3.1-1.9.9-.5.3-.2Z"/><path class="cls-22" d="M310.7,177.6l4.2-.5a.7.7,0,0,1,.8.4,10.5,10.5,0,0,0,.8,1.1,15.4,15.4,0,0,0,1.7,1.9c.3.2.3.6.2,1l-1.6,4.1a.8.8,0,0,0,.4,1.1l3.7,1.8a.8.8,0,0,0,1.1-.3l2.2-3.4a.8.8,0,0,1,1-.4,17.7,17.7,0,0,0,5.1.5,1,1,0,0,1,.9.6l.8,2.4a.8.8,0,0,0,1,.6l4-.8h.2a1.2,1.2,0,0,0,.5-.9l-.4-3.2v-.7l1.9-1.3a14.5,14.5,0,0,0,2.2-2.1.8.8,0,0,1,1-.2l3.3,1.3a.9.9,0,0,0,1.2-.5l1.3-2.7.4-.8a.8.8,0,0,0-.3-1.2l-2.9-1.9a.9.9,0,0,1-.4-.9,14.1,14.1,0,0,0,.5-3.5v-.3h0c0-.3.3-.6.6-.8l3.9-1.2h.1a.9.9,0,0,0,.5-1l-.8-3.9a1,1,0,0,0-1-.8l-4.4.5a.8.8,0,0,1-.9-.5,12.8,12.8,0,0,0-1.4-2.1l-.8-1a.9.9,0,0,1-.2-1l1.6-3.9a1.2,1.2,0,0,0-.5-1.2l-3.6-1.7a1,1,0,0,0-1.2.3l-1.7,2.7a.9.9,0,0,1-1.1.4,20.2,20.2,0,0,0-4.9-.9.9.9,0,0,1-.9-.6l-1.1-3.5a.9.9,0,0,0-1.1-.6l-3.9.8a.9.9,0,0,0-.7,1h0l.4,3.7a.8.8,0,0,1-.5.9h0l-2.4,1.6-1.2,1a.9.9,0,0,1-1,.1l-3.3-1.3a1,1,0,0,0-1.2.5l-1.8,3.5c0,.2,0,.3-.1.4a.9.9,0,0,0,.5.8l2.3,1.5a1.2,1.2,0,0,1,.4.8.4.4,0,0,1-.1.3,16.8,16.8,0,0,0-.8,6.3,1.1,1.1,0,0,1-.5.9h-.1l-3.1.9a.9.9,0,0,0-.6,1.1h0l.7,3.8A1.1,1.1,0,0,0,310.7,177.6Zm26.8-12,.6,2a9.1,9.1,0,0,1-.7,4.6c0,.1-.1.2-.1.4a8.9,8.9,0,0,1-16.7-2.5,9.2,9.2,0,0,1,.3-4,2,2,0,0,1,.4-.8,9.5,9.5,0,0,1,2-2.8A8.8,8.8,0,0,1,337.5,165.6Z"/><rect class="cls-23" x="32.6" y="29.9" width="89.4" height="82.5" rx="15.9"/><path class="cls-10" d="M111.7,98.8H42.6v-22h69.1Zm-68.3-.9h67.5V77.6H43.4Z"/><rect class="cls-10" x="47.6" y="82.7" width="26.8" height="1.74"/><rect class="cls-10" x="77.1" y="82.7" width="19" height="1.74"/><rect class="cls-10" x="47.6" y="87.7" width="14.8" height="1.74"/><rect class="cls-10" x="64.8" y="87.7" width="19" height="1.74"/><rect class="cls-10" x="85.8" y="87.7" width="19" height="1.74"/><rect class="cls-11" x="43" y="60" width="7.2" height="10.03"/><rect class="cls-11" x="55.3" y="53.4" width="7.2" height="16.68"/><rect class="cls-17" x="67.7" y="47.9" width="7.2" height="22.13"/><rect class="cls-11" x="80.1" y="52.4" width="7.2" height="17.71"/><rect class="cls-11" x="92.4" y="42.9" width="7.2" height="27.13"/><rect class="cls-17" x="104.8" y="38.1" width="7.2" height="31.97"/><path class="cls-24" d="M378,229.9a.8.8,0,0,1-.8.8.8.8,0,0,1,0-1.6A.8.8,0,0,1,378,229.9Z"/></svg>